<svg width="453" height="730" viewBox="0 0 453 730" fill="none" xmlns="http://www.w3.org/2000/svg">
<path d="M248.236 76.7482C261.716 83.1913 288.223 119.694 284.163 145.822C280.104 171.95 243.142 200.02 235.102 200.305C227.062 200.589 205.623 166.857 202.624 146.509C200.634 132.889 211.619 121.542 220.296 109.485C233.085 91.6479 246.14 75.777 248.236 76.7482Z" fill="#263238"/>
<path d="M195.433 140.54C201.642 114.649 227.513 95.6753 246.273 76.7486C246.458 76.5591 246.856 76.7486 246.697 77.0329C232.475 96.4807 210.054 110.67 200.209 132.723C194.372 145.823 194.001 160.486 202.704 172.685C210.266 183.25 222.127 190.948 232.687 198.955C233.404 199.476 232.422 200.352 231.705 199.855C210.399 184.481 188.986 167.284 195.433 140.54Z" fill="#263238"/>
<path d="M250.332 80.0416C249.748 79.4968 250.651 78.6677 251.234 79.2125C267.739 94.5386 286.684 115.171 289.709 137.035C292.972 160.723 272.488 177.304 254.525 191.517C254.312 191.683 253.967 191.517 254.18 191.233C272.117 176.641 292.495 157.904 287.4 134.192C283.022 113.915 265.775 94.7281 250.332 80.0416Z" fill="#263238"/>
<path d="M233.695 193.72C257.363 200.068 288.222 211.367 291.725 231.383C295.227 251.4 282.252 287.026 279.917 287.784C277.582 288.542 231.811 280.37 214.935 260.733C198.059 241.095 230.617 192.89 233.695 193.72Z" fill="#263238"/>
<path d="M278.777 289.845C289.391 272.6 300.933 250.026 293.716 229.986C286.737 210.728 257.072 200.281 237.358 194.88C237.326 194.891 237.291 194.895 237.257 194.891C237.223 194.887 237.191 194.876 237.163 194.858C237.134 194.841 237.111 194.818 237.096 194.79C237.08 194.763 237.071 194.733 237.071 194.703C237.071 194.672 237.08 194.642 237.096 194.615C237.111 194.588 237.134 194.565 237.163 194.547C237.191 194.53 237.223 194.519 237.257 194.515C237.291 194.511 237.326 194.514 237.358 194.525C258.081 198.552 286.923 208.951 294.91 228.28C302.897 247.61 292.522 274.685 279.361 290.248C279.149 290.58 278.565 290.177 278.777 289.845Z" fill="#263238"/>
<path d="M276.31 280.157C286.923 276.438 309.61 276.746 327.096 286.434C357.026 303.016 360.502 290.224 392.476 270.208C419.487 253.295 450.851 269.852 453 291.764C453 291.764 442.917 272.079 420.522 280.18C393.749 289.892 375.176 345.488 328.343 343.735C267.713 341.508 276.31 280.157 276.31 280.157Z" fill="#263238"/>
<path d="M297.351 280.465C296.741 280.465 296.714 279.494 297.351 279.47C303.506 279.101 309.685 279.743 315.58 281.365C323.249 283.521 329.325 288.093 336.807 290.675C355.673 297.283 370.346 281.46 382.234 270.966C398.154 256.896 420.31 252.869 438.91 265.826C438.967 265.864 439.004 265.92 439.014 265.982C439.024 266.044 439.006 266.107 438.964 266.158C438.921 266.208 438.858 266.241 438.789 266.25C438.719 266.259 438.648 266.243 438.592 266.205C432.815 262.258 425.936 259.8 418.704 259.099C411.472 258.397 404.163 259.479 397.57 262.225C384.808 267.745 377.272 279.352 365.862 286.529C358.061 291.433 348.987 295.294 339.328 292.854C334.021 291.527 329.404 288.543 324.628 286.292C316.247 282.291 306.853 280.285 297.351 280.465Z" fill="#263238"/>
<path d="M275.592 286.6C275.592 286.364 276.043 286.34 276.043 286.6C277.105 302.448 277.689 318.84 289.019 332.058C301.224 346.27 322.717 351.008 341.848 347.692C363.261 343.925 370.743 327.723 380.667 312.515C387.831 301.524 396.004 290.983 408.661 284.587C409.059 284.397 409.404 284.942 409.059 285.179C390.617 297.023 382.206 314.457 370.505 331.11C360.952 344.707 347.128 350.416 329.218 350.06C289.762 348.947 273.868 318.153 275.592 286.6Z" fill="#263238"/>
<path d="M128.94 457.153C128.94 457.153 128.94 457.485 129.205 458.148C129.205 458.267 129.205 458.385 129.338 458.551C129.523 459.262 129.789 460.256 130.134 461.512C130.134 461.796 130.293 462.104 130.399 462.412L136.369 484.134C136.873 485.982 137.404 487.924 137.988 489.937C138.306 491.169 138.678 492.448 139.023 493.751L139.659 496.12C139.872 496.925 140.111 497.731 140.349 498.489C140.588 499.247 141.013 500.858 141.358 502.16C141.517 502.776 141.676 503.416 141.888 504.055C142.074 504.813 142.286 505.619 142.525 506.424C142.764 507.23 143.135 508.651 143.454 509.812C143.772 510.972 143.985 511.778 144.276 512.773L144.993 515.378L145.152 515.947C145.842 518.395 146.532 520.906 147.222 523.48C147.567 524.782 147.938 526.109 148.31 527.459C148.893 529.473 149.45 531.533 150.008 533.618C150.406 535.016 150.804 536.437 151.175 537.858C151.175 538.024 151.175 538.166 151.308 538.308C151.759 539.895 152.184 541.506 152.635 543.046C153.086 544.586 153.324 545.628 153.696 546.931C154.492 549.844 155.315 552.829 156.164 555.861C164.124 584.476 173.119 617.45 182.698 652.555C182.857 653.076 182.99 653.598 183.122 654.142C183.137 654.245 183.137 654.348 183.122 654.45C183.812 657.08 184.555 659.709 185.298 662.362C185.431 662.883 185.563 663.404 185.723 663.925C185.71 663.996 185.71 664.068 185.723 664.139L186.121 665.678L186.678 667.692V667.976C186.678 668.237 186.81 668.497 186.89 668.781L187.288 670.274C187.362 670.476 187.424 670.682 187.474 670.89C188.058 673.045 188.668 675.225 189.252 677.404C190.021 680.199 190.817 683.018 191.587 685.86C192.038 687.613 192.515 689.343 193.019 691.072C193.311 692.209 193.63 693.441 193.948 694.483C195.116 698.723 196.31 702.987 197.477 707.274C197.769 708.459 198.114 709.643 198.432 710.78L204.482 732.81H412.774C405.08 708.554 397.385 684.368 389.902 660.941C388.894 657.696 387.859 654.45 386.824 651.229C386.214 649.381 385.63 647.533 385.046 645.686L383.932 642.156C383.855 641.997 383.801 641.83 383.773 641.659C383.56 641.067 383.375 640.498 383.216 639.906C383.03 639.385 382.871 638.84 382.711 638.295C382.646 638.141 382.593 637.982 382.552 637.821C382.181 636.684 381.809 635.453 381.464 634.41C380.827 632.468 380.217 630.525 379.607 628.607C362.413 574.977 347.129 527.649 336.914 496.191C336.806 495.774 336.673 495.363 336.516 494.959C329.458 473.095 324.92 459.19 324.071 456.561L323.912 456.135H317.385L250.757 456.395H249.962H226.081H224.091H193.338H188.164H156.509H153.351L128.94 457.153Z" fill="#F7A9A0"/>
<path opacity="0.1" d="M128.94 457.153C128.94 457.153 128.94 457.485 129.205 458.148C129.205 458.266 129.205 458.385 129.338 458.55C129.523 459.261 129.789 460.256 130.134 461.511C130.134 461.796 130.293 462.104 130.399 462.412L136.369 484.133C136.873 485.981 137.404 487.924 137.988 489.937C138.306 491.192 138.678 492.495 139.023 493.822L139.659 496.191C139.872 496.996 140.11 497.801 140.349 498.559C140.588 499.317 141.013 500.928 141.358 502.231C141.517 502.847 141.676 503.486 141.888 504.126C142.074 504.884 142.286 505.689 142.525 506.495C142.764 507.3 143.135 508.722 143.454 509.882C143.772 511.043 143.984 511.848 144.276 512.843L144.993 515.449L145.152 516.017C145.806 518.465 146.496 520.976 147.222 523.55C147.566 524.853 147.938 526.18 148.309 527.53C148.893 529.543 149.45 531.604 150.008 533.689C150.406 535.086 150.777 536.508 151.175 537.929C151.175 538.095 151.175 538.237 151.308 538.379C151.759 539.966 152.183 541.577 152.635 543.116C153.086 544.656 153.324 545.698 153.696 547.001C154.492 549.915 155.314 552.9 156.163 555.932C164.124 584.547 173.119 617.52 182.698 652.626C182.83 653.147 182.989 653.668 183.149 654.189C183.121 654.298 183.121 654.412 183.149 654.521C183.839 657.15 184.581 659.78 185.324 662.433C185.457 662.954 185.59 663.475 185.749 663.996C185.749 663.996 185.749 664.138 185.749 664.209C185.749 664.707 186.041 665.228 186.174 665.749C186.333 666.412 186.518 667.076 186.704 667.762C186.691 667.857 186.691 667.952 186.704 668.047L186.943 668.852L187.341 670.344L187.5 670.937C188.111 673.116 188.694 675.295 189.305 677.475C190.074 680.293 190.844 683.112 191.64 685.931C192.091 687.684 192.568 689.413 193.072 691.142C193.364 692.279 193.683 693.511 194.001 694.554C195.169 698.794 196.363 703.057 197.53 707.345C197.822 708.529 198.167 709.714 198.485 710.851C200.475 718.17 202.492 725.537 204.509 732.881H259.275L269.225 690.242L274.691 666.791L275.593 662.954L276.947 657.15L314.545 496.072L314.811 494.935L317.676 482.57L323.195 458.882L323.514 457.532L323.885 455.921H317.358L250.731 456.182H249.961H226.081H224.117L193.364 456.3H188.057L156.402 456.419H153.271H130.372L128.94 457.153Z" fill="black"/>
<path d="M25.5634 653.195C25.9348 654.451 26.3328 655.564 26.7043 656.867C29.8353 666.745 32.7806 674.586 33.7889 677.262C34.0543 677.902 34.1869 678.257 34.1869 678.257C32.5418 696.26 30.8967 714.618 29.2251 733H230.804C231.627 715.684 232.317 701.377 232.768 691.641C233.219 682.687 233.458 677.594 233.458 677.594C239.216 674.562 244.655 671.814 249.723 669.374L257.683 665.655C265.219 662.197 271.72 659.449 276.974 657.341C286.818 653.409 292.337 651.703 292.337 651.703C294.513 646.397 296.556 640.854 298.44 635.121C312.821 593.217 316.695 535.087 317.518 496.571C317.518 496.192 317.518 495.813 317.518 495.434C317.518 490.909 317.677 486.645 317.677 482.737C317.677 471.603 317.677 463.242 317.465 459.049C317.465 457.533 317.465 456.68 317.465 456.206V456.041H55.4142L54.9366 457.391C50.9299 468.974 22.5385 552.545 17.5767 606.625C16.4357 619.179 20.9464 637.988 25.5634 653.195Z" fill="#F7A9A0"/>
<path d="M323.885 456.253L393.483 659.97C393.483 659.97 315.128 683.658 280.21 689.106C245.291 694.554 134.564 689.106 134.564 689.106L116.521 573.035L98.5309 687.661L27.34 676.243C27.34 676.243 12.8258 630.549 12.8524 608.093C12.8524 574.93 55.3069 456.229 55.3069 456.229L323.885 456.253Z" fill="#455A64"/>
<path d="M213.53 668.828C220.641 669.065 227.885 669.207 234.89 669.326H237.172H249.006H253.225C255.746 669.326 258.399 669.326 261 669.018C264.944 668.752 268.858 668.198 272.701 667.36C276.734 666.602 280.661 665.796 284.429 664.991L286.923 664.446C293.769 662.977 300.562 661.461 307.381 659.922L308.018 659.78L308.973 659.566L309.796 659.377L317.57 657.577L330.519 654.568L331.447 654.331C350.897 649.783 369.869 645.235 387.169 641.019L386.612 639.313L386.108 637.726C368.807 641.919 349.915 646.467 330.545 651.015L329.484 651.252L316.615 654.26L308.814 656.037L308.177 656.179L306.957 656.463L306.426 656.582C299.633 658.121 292.787 659.661 285.968 661.106L283.527 661.651C279.706 662.456 275.885 663.238 272.064 664.02C268.342 664.833 264.554 665.38 260.734 665.654C258.081 665.867 255.64 665.891 253.172 665.938C251.766 665.938 250.359 665.938 248.953 665.938H234.97C228.018 665.82 220.8 665.678 213.742 665.441L213.53 668.828Z" fill="#FFCE43"/>
<path d="M288.462 662.291C285.968 661.77 284.88 660.207 285.808 658.762C286.444 657.821 287.398 657.084 288.533 656.658C289.668 656.233 290.925 656.14 292.123 656.393C291.646 655.351 292.919 654.143 294.007 653.574C294.775 653.02 295.749 652.745 296.734 652.807C297.719 652.868 298.641 653.261 299.314 653.906C300.445 655.115 301.983 655.967 303.699 656.334C305.415 656.701 307.218 656.564 308.84 655.943C309.134 656.49 309.34 657.073 309.45 657.672C309.689 658.258 309.823 658.873 309.848 659.496C308.088 659.636 306.426 660.279 305.107 661.328C303.788 662.378 302.882 663.779 302.525 665.323C302.232 666.13 301.621 666.814 300.807 667.249C299.992 667.685 299.028 667.842 298.093 667.692C296.793 667.692 295.016 667.124 294.909 665.987C293.963 666.708 292.784 667.141 291.543 667.222C290.302 667.303 289.064 667.028 288.011 666.437C286.312 665.608 286.525 663.784 288.462 662.291Z" fill="#FFCE43"/>
<path d="M312.501 656.132C313.759 655.96 315.044 656.16 316.163 656.701C316.67 656.921 317.143 657.2 317.569 657.53C319.167 658.81 320.357 660.444 321.019 662.267C321.078 662.978 321.427 663.645 322 664.141C322.572 664.638 323.329 664.929 324.126 664.962C324.924 664.994 325.707 664.764 326.327 664.315C326.947 663.867 327.362 663.231 327.493 662.528C328.471 663.286 329.712 663.72 331.006 663.759C332.301 663.798 333.571 663.438 334.604 662.741C336.886 661.391 336.143 657.696 331.287 655.351C330.544 655.019 330.332 654.711 330.518 654.498C330.704 654.285 330.969 654.261 331.447 654.261C332.302 654.312 333.13 654.548 333.861 654.948C336.276 656.227 337.947 656.18 340.15 662.054C341.556 666.057 346.385 666.365 347.712 663.357C349.437 667.597 352.647 669.729 357.158 667.621C360.607 665.773 360.714 663.547 358.697 660.728C361.35 661.225 364.375 659.448 364.349 657.672C364.322 655.895 363.208 653.361 355.088 652.129C352.674 652.129 353.072 650.234 355.964 650.613C360.715 650.717 365.25 652.408 368.674 655.351C372.654 657.885 375.042 657.317 376.979 656.44C378.465 655.753 380.03 654.237 378.863 652.721C380.853 653.503 386.239 653.408 387.831 650.021C389.264 647.249 383.427 643.625 375.44 644.525C379.203 642.81 383.398 641.994 387.619 642.156L387.221 640.948L386.664 639.243L381.357 640.427L315.818 655.351L312.501 656.132Z" fill="#FFCE43"/>
<path d="M314.997 656.322C314.418 656.854 313.722 657.273 312.953 657.554L316.164 656.748L381.358 640.498L386.665 639.195L386.161 637.608L385.763 636.448C382.25 638.453 378.223 639.626 374.061 639.859C381.464 637.04 384.436 631.26 381.624 629.531C378.36 627.328 373.663 629.649 372.39 631.213C372.549 629.389 370.347 628.844 368.702 628.844C366.499 628.844 364.138 629.531 362.121 633.581C360.835 637.661 357.868 641.156 353.816 643.364C351.507 644.975 350.128 643.53 352.197 642.441C358.539 637.703 357.982 635.026 357.106 633.51C356.231 631.994 352.542 631.805 350.526 633.368C350.711 630.052 349.358 628.157 345.378 628.086C340.31 628.252 338.745 631.52 339.594 635.95C336.781 633.937 332.801 636.305 333.783 640.403C335.109 646.467 333.623 647.178 332.217 649.357C331.824 649.999 331.27 650.55 330.599 650.968C330.455 651.079 330.284 651.158 330.099 651.199C329.915 651.24 329.723 651.242 329.537 651.205C329.298 651.087 329.325 650.731 329.776 650.115C332.721 645.946 331.315 642.417 328.609 642.227C327.331 642.078 326.034 642.323 324.934 642.922C323.834 643.521 322.996 644.438 322.559 645.52C322.071 644.944 321.358 644.552 320.562 644.421C319.766 644.29 318.945 644.43 318.259 644.814C317.573 645.197 317.072 645.796 316.857 646.492C316.641 647.189 316.725 647.932 317.093 648.576C317.519 650.455 317.373 652.402 316.668 654.213C316.477 654.669 316.218 655.099 315.899 655.493C315.637 655.801 315.334 656.079 314.997 656.322Z" fill="#FFCE43"/>
<path d="M134.592 661.722L130.267 661.461L130.426 662.504L130.585 663.664L130.797 665.038L134.3 665.252H135.228C159.534 666.673 182.486 667.739 204.801 668.52V666.862V666.531V664.967C182.539 664.186 159.693 663.12 135.441 661.722H134.592Z" fill="#FFCE43"/>
<path d="M20.6266 652.651C20.9451 653.882 21.2634 655.019 21.5818 656.299C44.5073 658.904 67.3797 660.752 89.456 662.315C93.781 662.647 98.0795 662.955 102.351 663.215L102.909 659.71L89.7744 658.81C67.2735 657.175 43.9501 655.28 20.6266 652.651Z" fill="#FFCE43"/>
<path d="M89.7483 664.566C90.5327 665.426 91.6065 666.038 92.8107 666.311C94.015 666.584 95.2858 666.504 96.4349 666.082C96.143 667.195 97.6555 668.19 98.8495 668.616C99.6791 668.954 100.601 669.07 101.503 668.948L102.379 663.215L102.936 659.71L103.758 654.498C103.245 654.155 102.646 653.928 102.013 653.837C101.379 653.746 100.731 653.794 100.123 653.977C98.9026 654.214 97.2575 654.972 97.3371 656.109C96.2794 655.538 95.0454 655.283 93.8143 655.381C92.5832 655.479 91.4191 655.925 90.4913 656.654C90.1332 656.895 89.8723 657.233 89.7479 657.617C89.6235 658.002 89.6422 658.412 89.8014 658.786C90.1811 659.605 90.8651 660.282 91.7384 660.704C90.8091 660.994 90.015 661.553 89.483 662.292C89.248 662.646 89.1471 663.058 89.1949 663.468C89.2426 663.877 89.4367 664.262 89.7483 664.566Z" fill="#FFCE43"/>
<path d="M130.426 662.504L130.585 663.664L130.797 665.038L132.257 674.395C133.272 674.584 134.326 674.527 135.308 674.229C137.962 673.59 138.519 669.871 134.751 666.27C134.141 665.725 134.061 665.394 134.3 665.251C134.486 665.133 134.804 665.251 135.229 665.251C136.044 665.525 136.766 665.982 137.325 666.578C139.156 668.473 140.774 668.947 140.774 675.082C140.774 679.298 145.205 680.909 147.514 678.446C147.673 682.946 149.981 685.86 155.023 685.102C158.976 684.344 159.852 682.236 158.897 679.014C161.232 680.199 164.787 679.369 165.345 677.688C165.902 676.006 165.769 673.282 158.472 669.823C156.19 669.136 157.225 667.454 159.826 668.639C164.313 670.054 168.043 672.919 170.28 676.669C173.199 680.151 175.587 680.293 177.842 679.985C179.514 679.749 181.53 678.73 180.92 676.977C182.539 678.28 187.766 679.654 190.419 676.859C192.754 674.49 188.403 669.586 180.496 668.236C186.821 667.44 193.259 668.665 198.671 671.695C203.262 673.661 206.897 674.727 208.064 673.471C208.993 672.595 208.065 671.292 207.295 670.818C208.463 671.505 212.098 672.5 213.106 670.984C214.671 668.615 211.036 667.525 207.189 667.004L204.88 666.862L188.27 665.891L130.426 662.504Z" fill="#FFCE43"/>
<path d="M128.94 653.077L130.266 661.462L130.426 662.504L130.585 663.665L188.297 666.034L204.907 666.674H207.242C211.116 666.389 214.804 665.513 213.424 663.049C212.522 661.486 208.86 662.268 207.64 662.86C208.489 662.457 209.497 661.202 208.648 660.254C207.587 658.951 203.898 659.804 199.175 661.391C193.525 664.038 186.987 664.754 180.787 663.405C188.748 662.765 193.603 658.051 191.401 655.635C189.039 652.65 183.812 653.598 182.061 654.735C182.83 653.029 180.973 651.845 179.408 651.466C177.311 650.968 174.87 650.874 171.58 654.072C168.97 657.611 164.93 660.115 160.303 661.059C157.65 661.96 156.748 660.207 159.083 659.733C166.751 657.08 167.043 654.308 166.857 652.627C166.671 650.945 163.116 649.713 160.675 650.66C162.001 647.557 161.391 645.378 157.65 644.194C152.794 642.938 150.167 645.591 149.398 650.045C147.461 647.344 142.844 648.505 142.313 652.674C141.464 658.785 139.819 659.022 137.723 660.704C137.11 661.205 136.373 661.57 135.573 661.77C135.25 661.886 134.889 661.886 134.565 661.77C134.326 661.604 134.432 661.273 135.122 660.775C139.368 657.648 139.288 653.906 136.794 652.958C135.635 652.458 134.319 652.326 133.064 652.585C131.81 652.843 130.692 653.477 129.895 654.38C129.717 653.875 129.387 653.424 128.94 653.077Z" fill="#FFCE43"/>
<path d="M309.795 527.602C309.795 527.602 278.564 576.067 275.46 581.563C272.355 587.058 256.382 643.886 256.382 643.886" fill="#37474F"/>
<path d="M287.215 594.543C287.215 594.543 280.29 611.125 279.52 614.986C278.751 618.847 278.99 634.055 278.99 634.055" fill="#37474F"/>
<path d="M386.426 408.285C387.435 424.464 368.994 443.817 343.096 452.369L234.599 357.475C255.587 355.106 277.531 351.719 289.524 350.724C342.645 346.341 385.79 397.934 386.426 408.285Z" fill="#37474F"/>
<path d="M323.885 459.237L297.749 365.457C297.749 365.457 330.731 336.889 310.114 301.499C299.686 283.591 242.399 228.232 211.938 200.897C186.996 178.535 145.232 179.577 133.663 199.996C73.7488 306.592 55.4933 456.205 55.4933 456.205L323.885 459.237Z" fill="#455A64"/>
<path d="M149.768 189.006C150.697 194.098 193.868 232.899 215.599 226.29C220.429 224.822 209.152 202.223 209.152 202.223L224.09 157.809L163.513 117.776C163.513 117.776 149.423 186.85 149.768 189.006Z" fill="#F7A9A0"/>
<path d="M157.597 146.841C161.806 158.38 168.628 169.024 177.639 178.111C186.649 187.198 197.656 194.535 209.975 199.665L224.118 157.714L163.54 117.681L157.597 146.841Z" fill="#263238"/>
<path d="M293.689 90.8665C301.119 166.549 251.235 179.08 232.9 180.502C216.29 181.781 159.586 184.268 143.454 109.651C127.321 35.034 164.469 8.02975 202.147 3.31585C239.825 -1.39805 286.26 15.1598 293.689 90.8665Z" fill="#F7A9A0"/>
<path d="M265.697 71.94C263.738 71.824 261.788 71.6025 259.859 71.2767C257.772 71.3024 255.732 70.7203 254.048 69.6185C253.606 69.1721 253.339 68.6096 253.286 68.0157C253.234 67.4219 253.399 66.8288 253.756 66.3259C254.645 65.4316 255.785 64.7649 257.058 64.3943C258.331 64.0238 259.692 63.9628 261 64.2177C263.735 64.3665 266.31 65.4226 268.217 67.1787C268.633 67.5988 268.901 68.1183 268.989 68.6731C269.077 69.228 268.981 69.7937 268.713 70.3003C268.445 70.8069 268.016 71.2322 267.48 71.5236C266.944 71.8151 266.324 71.9598 265.697 71.94Z" fill="#263238"/>
<path d="M211.885 87.9768C213.803 88.3531 215.743 88.6378 217.696 88.8296C219.693 89.3759 221.836 89.326 223.798 88.6874C224.372 88.3732 224.813 87.8985 225.053 87.3373C225.293 86.7761 225.318 86.1598 225.125 85.5843C224.551 84.5099 223.67 83.5896 222.571 82.9159C221.471 82.2422 220.193 81.839 218.863 81.7469C216.16 81.1902 213.322 81.5533 210.903 82.7655C210.38 83.0738 209.968 83.5112 209.718 84.0244C209.468 84.5375 209.391 85.1044 209.495 85.6563C209.598 86.2082 209.88 86.7212 210.304 87.1331C210.728 87.5451 211.277 87.8381 211.885 87.9768Z" fill="#263238"/>
<path d="M223.825 94.9413C223.825 94.7518 223.401 95.2255 223.427 95.4387C224.223 100.555 224.17 106.548 219.182 108.775C219.023 108.775 219.182 109.083 219.182 109.059C225.497 107.638 225.497 99.6789 223.825 94.9413Z" fill="#263238"/>
<path d="M218.041 89.9904C208.674 90.251 209.948 106.904 218.598 106.572C227.248 106.24 225.868 89.8483 218.041 89.9904Z" fill="#263238"/>
<path d="M214.432 91.1509C212.866 92.1931 211.407 93.9697 209.443 94.254C207.48 94.5382 205.33 92.9511 203.738 91.364C203.553 91.1982 203.42 91.364 203.42 91.5772C203.606 94.7751 205.224 97.973 209.098 98.2099C212.972 98.4467 214.936 95.462 215.573 92.1931C215.705 91.5772 215.068 90.7482 214.432 91.1509Z" fill="#263238"/>
<path d="M256.277 91.648C256.277 91.4585 256.755 91.8612 256.755 92.0744C256.914 97.262 258.081 103.16 263.441 104.605C263.6 104.605 263.6 104.913 263.441 104.89C256.967 104.439 255.508 96.5751 256.277 91.648Z" fill="#263238"/>
<path d="M261.08 85.9869C270.34 84.8499 272.198 101.479 263.733 102.568C255.269 103.658 253.332 86.9344 261.08 85.9869Z" fill="#263238"/>
<path d="M265.086 86.7214C266.652 87.4794 268.297 88.948 270.075 88.9007C271.852 88.8533 273.418 86.9109 274.532 85.0632C274.532 84.8737 274.798 85.0632 274.851 85.2291C275.302 88.4032 274.479 91.8143 271.136 92.7144C267.793 93.6146 265.484 91.0326 264.264 87.9768C264.051 87.361 264.449 86.4371 265.086 86.7214Z" fill="#263238"/>
<path d="M228.416 137.958C229.769 139.19 231.069 140.895 233.192 141.108C235.347 141.114 237.48 140.719 239.454 139.948C239.493 139.919 239.542 139.906 239.592 139.911C239.642 139.915 239.687 139.937 239.719 139.971C239.751 140.006 239.766 140.05 239.761 140.095C239.756 140.139 239.731 140.18 239.693 140.208C238.827 141.197 237.683 141.963 236.378 142.429C235.073 142.895 233.654 143.044 232.263 142.861C231.083 142.55 230.033 141.934 229.245 141.091C228.456 140.248 227.965 139.216 227.832 138.124C227.752 137.887 228.15 137.792 228.416 137.958Z" fill="#263238"/>
<path d="M252.031 117.516C252.031 117.516 253.49 125.214 253.649 128.862C253.649 129.194 252.668 129.383 251.288 129.502C251.288 129.502 251.288 129.502 251.129 129.502C247.646 130.169 244.025 129.969 240.661 128.925C237.297 127.881 234.318 126.032 232.051 123.58C231.759 123.224 232.263 122.845 232.634 123.059C237.955 126.083 244.229 127.488 250.518 127.062C250.757 126.043 247.493 113.962 248.13 113.915C251.31 114.064 254.452 114.598 257.47 115.502C254.817 99.418 249.51 83.8076 247.201 67.7472C247.201 67.1787 248.051 66.9655 248.236 67.4866C255.241 83.476 258.638 101.929 261.769 118.51C262.167 120.595 253.649 118.108 252.031 117.516Z" fill="#263238"/>
<path d="M250.093 127.725C248.104 130.722 245.291 133.217 241.921 134.973C240.037 135.875 237.886 136.231 235.765 135.992C231.148 135.423 230.458 131.775 230.909 128.554C231.121 126.846 231.566 125.167 232.236 123.556C237.54 126.607 243.795 128.067 250.093 127.725Z" fill="#263238"/>
<path d="M241.922 134.998C240.038 135.899 237.887 136.255 235.766 136.016C231.149 135.448 230.459 131.8 230.91 128.578C235.766 128.483 240.914 130.852 241.922 134.998Z" fill="#FF9ABB"/>
<path d="M151.201 116.047C167.122 116.923 168.82 84.4471 168.82 84.4471C168.82 84.4471 231.493 70.8502 233.722 21.6977C233.722 21.6977 254.074 55.1214 290.266 67.2022C290.266 67.2022 281.271 10.4933 232.979 2.7947C232.979 2.7947 172.614 -13.0288 142.445 30.628C112.276 74.2849 140.455 115.478 151.201 116.047Z" fill="#263238"/>
<path d="M232.873 20.7744C234.21 28.2634 233.73 35.9213 231.467 43.2306C229.34 50.6704 225.499 57.6328 220.19 63.6733C218.875 65.187 217.457 66.6268 215.944 67.9845L213.768 70.0927C212.972 70.7323 212.15 71.3245 211.327 71.9404C209.656 73.1485 208.037 74.3092 206.339 75.5409C204.641 76.7727 202.73 77.5781 201.032 78.5493C200.103 79.0468 199.228 79.5679 198.379 80.018L195.486 81.2024L189.729 83.5712C185.748 84.8029 181.768 85.94 177.656 86.8401C181.423 85.1346 185.297 83.7844 188.959 82.1025L194.266 79.3547L196.919 78.0045C197.768 77.5071 198.591 76.9385 199.414 76.3937C201.085 75.3041 202.73 74.2381 204.402 73.1959C206.074 72.1536 207.453 70.8271 208.992 69.5953L211.274 67.7713L213.317 65.7578C214.721 64.451 216.04 63.075 217.271 61.6361C222.261 55.9226 226.12 49.4894 228.681 42.6147C230.012 39.1426 231.015 35.5769 231.679 31.9551C232.459 28.2686 232.858 24.5261 232.873 20.7744Z" fill="#263238"/>
<path d="M160.249 113.465C160.249 113.465 140.295 90.6769 128.62 97.1437C116.945 103.611 132.919 137.295 147.327 141.322C149.135 141.952 151.068 142.248 153.008 142.193C154.948 142.139 156.855 141.734 158.616 141.004C160.376 140.273 161.952 139.232 163.25 137.944C164.548 136.655 165.54 135.145 166.166 133.505L160.249 113.465Z" fill="#F7A9A0"/>
<path d="M133.45 106.691C133.238 106.691 133.211 106.975 133.45 107.046C143.586 110.149 149.371 118.108 153.457 126.446C150.299 123.296 146.186 121.709 141.463 125.073C141.225 125.238 141.463 125.594 141.755 125.523C143.477 124.954 145.353 124.876 147.126 125.301C148.899 125.725 150.481 126.63 151.653 127.891C153.607 129.991 155.305 132.27 156.721 134.69C157.225 135.472 158.817 134.974 158.419 134.074V133.861C157.862 122.514 147.089 107.188 133.45 106.691Z" fill="#263238"/>
<path d="M210.718 211.889C210.718 211.889 206.976 217.005 206.207 212.741C204.748 204.782 203.713 191.588 202.386 190.19C200.343 188.011 154.068 168.137 151.281 168.137C148.495 168.137 147.699 189.243 147.699 189.243C147.699 189.243 177.842 234.771 215.122 229.512C218.651 229.015 221.968 191.612 221.437 190.498C220.907 189.385 211.991 190.854 210.824 191.612C208.966 193.151 210.718 211.889 210.718 211.889Z" fill="#455A64"/>
<path d="M220.985 200.02V198.599L212.813 198.575V199.997L220.985 200.02Z" fill="#FFCE43"/>
<path d="M211.355 197.676C211.296 198.01 211.377 198.352 211.582 198.636C211.788 198.92 212.104 199.126 212.469 199.216H214.963L220.881 199.405C220.881 199.405 220.881 199.287 220.881 199.239V199.073C220.881 197.818 221.093 196.705 221.172 195.639C221.081 195.343 221.01 195.042 220.96 194.739C220.615 193.033 219.899 192.488 219.766 193.53C219.395 191.73 218.864 190.593 218.227 190.996C217.59 191.399 217.803 192.251 218.227 193.53C217.829 193.104 217.405 193.53 217.458 194.194C217.549 195.329 218.095 196.397 218.997 197.202C219.368 197.439 219.341 198.126 218.997 197.723C218.012 196.903 217.304 195.852 216.953 194.691C216.29 193.341 215.945 193.317 215.68 193.483C215.414 193.649 215.255 194.052 215.468 194.739C215.149 194.265 214.327 193.791 214.167 194.952C214.152 195.611 214.327 196.262 214.676 196.843C215.024 197.423 215.535 197.914 216.157 198.268C215.547 198.623 214.645 198.529 213.504 197.131C212.735 196.42 212.151 196.041 212.071 196.539C212.05 196.912 212.152 197.282 212.363 197.605C211.965 197.415 211.408 197.06 211.355 197.676Z" fill="#FFCE43"/>
<path d="M211.859 200.897C212.071 201.513 212.549 201.158 212.681 200.897C212.548 201.242 212.548 201.618 212.681 201.963C212.92 202.46 213.398 201.963 213.955 201.371C214.804 199.997 215.653 199.926 216.396 200.281C215.335 200.684 214.99 202.65 215.441 203.574C215.892 204.498 216.688 204.284 216.847 203.787C216.829 204.028 216.875 204.269 216.981 204.491C217.087 204.714 217.25 204.91 217.457 205.066C217.802 205.232 218.147 205.208 218.386 203.858C218.678 201.489 219.129 201.252 219.447 200.85C219.766 200.447 220.005 201.134 219.713 201.371C219.393 201.811 219.179 202.305 219.083 202.823C218.987 203.341 219.012 203.87 219.155 204.379C219.341 205.066 219.925 205.469 220.19 205.042C220.19 205.398 220.19 205.729 220.19 206.014C220.429 203.645 220.641 201.489 220.827 199.476C220.827 199.476 220.827 199.357 220.827 199.31V199.144L214.884 199.286H212.389C211.965 199.523 211.487 199.902 211.859 200.897Z" fill="#FFCE43"/>
<path d="M196.574 198.386L197.078 197.818L197.423 197.178L193.575 195.544L190.259 194.17C184.58 191.801 178.769 189.432 173.038 187.063V186.827H172.428L172.03 186.661L170.915 186.211L166.856 184.552L164.68 183.676L148.759 177.28L148.123 178.583L164.043 184.979L166.192 185.855L170.252 187.513L171.366 187.964L171.95 188.2C177.814 190.569 183.758 192.938 189.595 195.52L192.939 196.918L196.574 198.386Z" fill="#FFCE43"/>
<path d="M164.336 184.268C164.22 184.15 164.135 184.011 164.086 183.86C164.036 183.71 164.023 183.552 164.049 183.397C164.074 183.241 164.136 183.093 164.232 182.961C164.327 182.83 164.453 182.718 164.601 182.634C164.773 182.534 164.965 182.465 165.167 182.432C165.369 182.4 165.576 182.403 165.776 182.443C165.976 182.483 166.166 182.558 166.333 182.664C166.5 182.77 166.642 182.904 166.75 183.06C166.909 182.61 167.52 182.492 167.944 182.515C168.369 182.539 169.032 182.681 169.112 183.629C169.049 184.162 169.191 184.698 169.514 185.149C169.837 185.601 170.322 185.942 170.89 186.116C170.696 186.58 170.465 187.031 170.2 187.466C169.682 187.198 169.077 187.094 168.485 187.171C167.892 187.249 167.346 187.503 166.936 187.892C166.087 188.461 165.609 188.2 165.211 187.892C165.028 187.754 164.899 187.567 164.841 187.358C164.784 187.15 164.802 186.93 164.893 186.732C164.485 186.786 164.07 186.695 163.737 186.478C163.404 186.26 163.18 185.934 163.115 185.571C162.956 184.931 163.46 184.363 164.336 184.268Z" fill="#FFCE43"/>
<path d="M197.716 198.173C198.171 198.39 198.527 198.742 198.724 199.168C198.724 199.476 198.3 199.713 197.955 199.95C197.61 200.186 197.504 200.21 197.477 200.139C197.45 200.068 197.477 200.021 197.265 199.902C197.157 199.805 197.067 199.693 196.999 199.571C197.087 199.749 197.106 199.948 197.053 200.136C197.001 200.325 196.879 200.493 196.708 200.613C196.124 200.921 195.381 200.139 194.372 198.931C193.902 198.115 193.235 197.402 192.418 196.845C191.601 196.288 190.655 195.9 189.649 195.709C191.746 197.036 192.117 199.357 191.056 199.926C190.808 200.03 190.539 200.087 190.265 200.095C189.992 200.102 189.719 200.058 189.465 199.967C189.211 199.876 188.981 199.739 188.789 199.565C188.597 199.391 188.447 199.183 188.349 198.955C188.315 199.089 188.251 199.215 188.162 199.327C188.072 199.439 187.959 199.534 187.828 199.607C187.698 199.679 187.552 199.728 187.4 199.75C187.248 199.773 187.093 199.768 186.943 199.736C186.253 199.736 185.537 199.334 185.271 197.723C185.303 196.988 185.169 196.255 184.877 195.568C184.585 194.88 184.142 194.252 183.573 193.72C182.989 193.009 182.406 193.53 182.963 194.004C184.528 196.017 184.104 197.036 183.653 197.604C183.514 197.74 183.344 197.845 183.153 197.912C182.962 197.98 182.757 198.008 182.553 197.994C182.348 197.98 182.15 197.925 181.973 197.833C181.796 197.741 181.644 197.614 181.53 197.462C181.265 198.741 180.628 199.428 179.354 199.334C178.081 199.239 177.55 197.794 178.24 196.112C177.152 196.799 176.091 195.757 176.807 194.217C177.842 191.848 177.417 191.611 177.178 190.711C176.94 189.811 176.223 189.622 176.462 190.332C176.993 192.038 176.197 193.364 175.321 193.341C174.445 193.317 173.915 192.914 173.676 191.872C172.827 192.701 171.368 192.038 172.217 190.522C173.305 187.892 172.084 186.969 171.633 186.826L197.716 198.173Z" fill="#FFCE43"/>
<path d="M197.795 198.031C198.374 198.202 198.969 198.329 199.573 198.41C200.13 198.41 200.554 198.694 200.793 198.007C201.032 197.32 200.422 197.226 199.838 196.918C199.622 196.795 199.376 196.722 199.121 196.704C198.962 196.692 198.803 196.692 198.644 196.704C198.962 196.704 199.519 196.325 199.44 195.899C199.36 195.473 198.06 195.117 196.388 195.188C195.378 195.372 194.334 195.356 193.331 195.144C192.328 194.931 191.388 194.526 190.577 193.957C193.072 194.549 195.327 193.364 195.115 192.227C194.902 191.09 193.204 190.664 192.461 190.901C192.563 190.792 192.637 190.664 192.68 190.528C192.724 190.391 192.734 190.248 192.712 190.108C192.689 189.967 192.634 189.832 192.55 189.712C192.466 189.592 192.354 189.488 192.223 189.409C191.692 189.006 190.975 188.722 189.437 189.551C188.189 190.552 186.548 191.072 184.873 190.996C183.891 190.996 183.944 190.309 184.74 190.38C187.393 190.167 188.057 189.195 188.269 188.532C188.296 188.347 188.274 188.159 188.206 187.983C188.138 187.806 188.025 187.646 187.875 187.515C187.726 187.385 187.545 187.286 187.347 187.229C187.148 187.171 186.937 187.155 186.73 187.182C187.659 186.163 187.844 185.287 186.916 184.481C185.987 183.676 184.422 184.245 183.44 185.808C183.307 184.624 181.742 184.576 180.786 186.069C179.513 188.248 178.956 188.2 178.133 188.603C177.31 189.006 176.567 188.603 177.337 188.366C179.141 187.608 179.752 186.211 179.141 185.618C178.531 185.026 177.868 184.955 176.833 185.476C176.965 184.363 175.426 183.818 174.737 185.476C173.198 187.845 171.606 187.703 171.208 187.49L197.795 198.031Z" fill="#FFCE43"/>
<path d="M294.141 354.68C294.141 354.68 247.176 355.272 222.499 362.402C189.623 371.877 165.61 392.296 156.164 401.369C136.396 420.319 103.096 478.26 120.237 489.701C135.653 500.053 166.22 439.27 166.22 439.27C166.22 439.27 123.607 496.642 144.728 506.07C165.849 515.497 196.841 443.154 196.841 443.154C196.841 443.154 154.545 502.99 178.054 509.623C195.912 514.645 228.151 450.521 228.151 450.521C228.151 450.521 192.197 502.185 210.214 508.036C230.141 514.526 264.025 456.988 264.025 456.988C312.609 465.018 339.594 450.048 357.345 438.204C361.644 435.314 294.141 354.68 294.141 354.68Z" fill="#F7A9A0"/>
<path d="M179.619 418.589C174.312 425.175 169.006 431.784 164.336 438.772C159.666 445.76 155.394 452.866 151.52 460.091C146.274 469.585 142.259 479.583 139.553 489.89C145.868 471.911 161.921 446.707 166.511 439.743C171.102 432.779 175.321 425.53 179.911 418.637C180.044 418.566 179.725 418.424 179.619 418.589Z" fill="#263238"/>
<path d="M208.118 432.991C201.803 441.638 195.143 450.023 189.252 459.048C183.362 468.073 178.639 476.791 173.464 485.981C173.066 486.692 173.624 486.645 174.075 485.981C179.647 476.956 185.59 469.021 191.295 460.067C197 451.113 202.333 441.946 208.357 433.228C208.463 432.968 208.224 432.849 208.118 432.991Z" fill="#263238"/>
<path d="M235.076 441.401C224.648 454.192 216.847 468.689 209.603 483.068C209.258 483.802 209.948 483.66 210.373 482.949C218.545 468.95 224.86 457.935 235.58 441.732C235.739 441.472 235.315 441.14 235.076 441.401Z" fill="#263238"/>
<path d="M210.717 211.888C210.717 211.888 269.755 268.171 270.949 271.724C272.143 275.277 245.503 284.065 237.994 278.83C230.485 273.595 206.153 212.765 206.153 212.765L210.717 211.888Z" fill="#F7A9A0"/>
<path d="M316.456 341.082C319.11 345.109 377.113 401.297 378.918 421.053C380.722 440.809 303.455 392.627 303.455 392.627L316.456 341.082Z" fill="#455A64"/>
<path d="M172.19 230.27C251.607 279.067 378.811 396.749 380.403 427.164C381.571 449.147 380.085 470.679 369.63 481.386C348.403 503.25 306.585 498.513 292.39 489.559C230.247 450.379 165.636 367.708 125.915 282.929C91.0757 208.572 146.32 214.376 172.19 230.27Z" fill="#455A64"/>
<path d="M346.333 376.946C329.059 356.077 308.707 337.435 288.541 318.793C268.2 300.268 246.68 282.805 224.09 266.49L232.05 273.075C271.533 306.404 310.405 340.514 346.279 376.946H346.333Z" fill="#263238"/>
<path d="M137.643 306.545C165.158 362.591 205.013 413.709 251.368 458.645C270.101 476.032 291.301 495.764 320.144 496.712C334.047 497.287 347.86 494.444 360.078 488.492C347.568 493.405 333.911 495.535 320.277 494.698C292.177 493.182 271.48 474.35 253.013 457.224C206.499 412.572 166.299 362.022 137.616 306.545H137.643Z" fill="#263238"/>
<path d="M151.201 331.892C146.69 326.751 139.897 319.669 135.28 314.576C139.195 321.265 144.615 327.16 151.201 331.892Z" fill="#263238"/>
<path opacity="0.1" d="M203.448 251.282C186.413 236.761 134.114 199.5 117.769 230.507C109.942 251.021 123.076 279.115 133.106 297.757C125.517 280.513 106.572 237.803 126.34 224.088C147.196 211.557 186.864 239.627 203.448 251.282Z" fill="black"/>
<path d="M133.874 40.6244C133.874 43.8149 134.934 46.9338 136.92 49.5866C138.905 52.2394 141.727 54.307 145.029 55.528C148.331 56.7489 151.964 57.0684 155.469 56.4459C158.974 55.8235 162.194 54.2871 164.721 52.0311C167.248 49.7751 168.969 46.9007 169.666 43.7715C170.364 40.6423 170.006 37.3988 168.638 34.4512C167.271 31.5035 164.955 28.9841 161.983 27.2116C159.011 25.439 155.518 24.4929 151.944 24.4929C149.57 24.4898 147.219 24.9049 145.025 25.7145C142.831 26.5241 140.838 27.7122 139.159 29.2108C137.48 30.7093 136.149 32.4889 135.243 34.4475C134.336 36.406 133.871 38.5051 133.874 40.6244Z" fill="#160039"/>
<path d="M150.698 36.4078C134.194 30.5806 88.2898 35.1997 69.9282 53.4631C51.5667 71.7265 46.8967 104.842 54.0078 109.153C61.1189 113.465 93.9946 115.62 118.3 107.803C142.605 99.9863 158.817 39.2504 150.698 36.4078Z" fill="#263238"/>
<path d="M150.724 36.503C151.308 36.503 151.52 35.6265 150.883 35.5081C135.971 33.1393 119.043 35.2712 104.237 36.9057C92.1901 38.2085 79.7457 40.0325 69.2116 45.6939C64.1396 48.3517 59.774 51.9604 56.4161 56.2709C53.0582 60.5814 50.7879 65.4911 49.7621 70.661C47.1087 82.3628 46.4985 96.8599 51.1154 108.23C51.2481 108.562 51.9114 108.562 51.8584 108.23C48.9661 84.9922 47.7987 56.9457 75.288 45.3149C98.6114 35.5081 125.782 37.7348 150.724 36.503Z" fill="#263238"/>
<path d="M52.5215 102.475C65.7886 109.131 91.6062 146.084 87.0158 172.141C82.4254 198.198 44.8532 225.628 36.8134 225.723C28.7736 225.818 7.91783 191.849 5.45016 171.383C3.72545 157.739 14.9758 146.581 23.8913 134.666C37.1052 117.09 50.3723 101.432 52.5215 102.475Z" fill="#263238"/>
<path d="M-1.63482 165.365C5.13137 139.569 31.4001 121.045 50.5577 102.426C50.7434 102.237 51.1414 102.426 50.9557 102.71C36.3354 121.921 13.6223 135.731 3.1944 157.619C-2.93496 170.6 -3.59833 185.263 4.8395 197.604C12.1629 208.311 23.8644 216.199 34.2658 224.372C34.9556 224.917 33.9473 225.793 33.2575 225.272C12.4017 209.543 -8.61327 191.99 -1.63482 165.365Z" fill="#263238"/>
<path d="M54.5374 105.814C53.9802 105.245 54.9089 104.416 55.4661 104.961C71.6519 120.571 90.1462 141.535 92.6138 163.423C95.3999 187.111 74.5441 203.479 56.2887 217.431C56.0764 217.597 55.7314 217.313 55.9702 217.123C74.1991 202.911 94.9488 184.458 90.4645 160.675C86.5109 140.209 69.6619 120.785 54.5374 105.814Z" fill="#263238"/>
<path d="M35.4873 219.16C59.023 225.911 89.6697 237.731 92.7212 257.795C95.7726 277.859 82.1075 313.272 79.7195 314.006C77.3314 314.741 31.799 305.787 15.3214 285.865C-1.1563 265.944 32.4358 218.283 35.4873 219.16Z" fill="#263238"/>
<path d="M78.5512 316.02C89.5629 298.965 101.556 276.604 94.737 256.445C88.1831 237.068 58.7303 226.125 39.0155 220.392C38.9834 220.403 38.9489 220.406 38.9149 220.402C38.881 220.399 38.8486 220.387 38.8204 220.37C38.7923 220.353 38.7693 220.329 38.7535 220.302C38.7376 220.275 38.7293 220.245 38.7293 220.214C38.7293 220.184 38.7376 220.154 38.7535 220.127C38.7693 220.1 38.7923 220.076 38.8204 220.059C38.8486 220.041 38.881 220.03 38.9149 220.026C38.9489 220.023 38.9834 220.026 39.0155 220.037C59.659 224.419 88.2893 235.292 95.8515 254.74C103.414 274.187 92.4816 301.121 78.9758 316.447C78.8962 316.778 78.3124 316.376 78.5512 316.02Z" fill="#263238"/>
<path d="M79.2673 312.017C89.881 315.546 106.704 329.262 112.514 346.886C122.518 377.04 134.67 369.531 173.543 373.582C206.339 376.993 217.483 408.048 202.73 425.695C202.73 425.695 209.868 405.016 187.102 397.767C159.878 389.121 104.607 419.607 70.909 390.495C27.1544 352.736 79.2673 312.017 79.2673 312.017Z" fill="#263238"/>
<path d="M94.7629 324.762C94.2853 324.383 95.0017 323.648 95.5058 324.004C100.363 327.401 104.497 331.549 107.711 336.25C111.824 342.409 113.018 349.445 116.574 355.769C125.755 371.901 148.415 368.798 165.184 368.04C187.579 366.997 207.082 377.136 211.354 397.839C211.354 398.147 210.876 398.242 210.823 397.839C209.423 391.465 206.094 385.556 201.196 380.753C196.298 375.95 190.019 372.438 183.042 370.598C169.403 367.139 155.128 371.332 141.251 369.935C131.778 368.963 122.119 366.476 116.733 358.92C114.184 354.572 112.148 349.999 110.657 345.275C107.417 337.334 101.944 330.269 94.7629 324.762Z" fill="#263238"/>
<path d="M73.961 316.4C74.1468 316.234 74.4916 316.4 74.3059 316.66C63.2677 329.12 51.5132 341.722 50.1334 358.304C48.6475 376.164 61.1185 392.533 77.9146 401.368C96.7272 411.27 114.372 403.595 133.105 398.147C146.664 394.191 160.621 391.183 174.817 393.907C175.268 393.907 175.109 394.641 174.817 394.594C152.236 392.462 132.946 400.516 111.825 405.988C94.5514 410.465 79.9842 406.532 66.9294 395.565C38.0869 371.379 49.1517 338.951 73.961 316.4Z" fill="#263238"/>
</svg>
