<svg width="555" height="743" viewBox="0 0 555 743" fill="none" xmlns="http://www.w3.org/2000/svg">
<path d="M554.5 743H479.309H124.959C118.474 738.395 112.282 733.434 106.414 728.142C73.931 698.885 53.2791 659.84 48.0208 617.742C44.2743 589.53 46.6912 560.892 55.1224 533.597C55.109 533.558 55.109 533.517 55.1224 533.478C55.1158 533.423 55.1158 533.368 55.1224 533.313L91.6339 531.346L128.923 529.332H129.802L216.275 524.592L219.261 524.45L227.492 524V524.166V524.355C228.546 526.607 234.443 539.284 240.942 552.791C241.268 553.454 241.595 554.118 241.896 554.805C248.997 569.544 256.526 584.733 258.985 587.98C261.444 591.226 267.968 595.491 277.88 600.847C286.814 605.586 298.457 611.344 312.083 617.647C327.667 624.756 345.834 632.979 365.508 641.746C391.806 653.428 420.714 666.272 449.773 679.66C459.66 684.494 544.738 738.308 554.5 743Z" fill="#D3766A"/>
<path d="M451.309 679.311L449.406 681.394L392.57 743H113.251C91.7441 725.597 73.9925 707.893 64.2529 690.883C52.0598 669.176 45.0499 645.303 43.6971 620.876C41.9696 592.925 46.0142 564.926 55.6149 538.373C55.6016 538.335 55.6016 538.295 55.6149 538.257C55.6083 538.203 55.6083 538.149 55.6149 538.095L92.0446 536.174L129.25 534.207H130.127L216.406 529.579L219.386 529.44L227.598 529V529.162V529.347C228.7 531.222 234.233 541.127 240.793 552.49C241.719 554.11 242.671 555.753 243.647 557.396C250.808 569.824 258.67 583.038 263.201 589.472C265.104 592.179 273.216 597.155 284.984 603.357C291.168 606.62 298.379 610.3 306.266 614.096C323.066 622.265 342.921 631.406 362.475 640.224C407.768 660.797 451.309 679.311 451.309 679.311Z" fill="#263238"/>
<path d="M230 743H197.121L191.746 739.997C186.27 736.855 180.77 733.713 175.319 730.502L173.938 729.693C161.373 722.391 149.288 714.414 137.743 705.805C133.523 702.525 129.329 699.152 125.335 695.432C123.326 693.584 121.417 691.551 119.658 689.587C117.787 687.684 116.042 685.678 114.434 683.581C107.711 675.436 101.897 666.69 97.0777 657.475C90.7059 645.064 85.8292 632.05 82.5346 618.663C80.9606 612.349 79.6712 605.996 78.6665 599.604C75.5636 579.86 75.167 559.835 77.486 540C77.2962 549.884 77.7996 559.769 78.993 569.594C80.0711 579.384 81.7483 589.11 84.0165 598.726C85.6241 605.287 87.4576 611.802 89.5926 618.201C93.5665 630.418 98.9558 642.206 105.668 653.363C110.676 661.779 116.564 669.725 123.25 677.089C124.883 678.96 126.641 680.739 128.424 682.426C130.114 684.18 131.908 685.846 133.8 687.416C137.624 690.626 141.623 693.656 145.781 696.495C158.302 704.901 171.288 712.705 184.688 719.875C185.743 720.452 186.798 721.03 187.878 721.584C191.746 723.694 195.631 725.758 199.532 727.776L207.972 732.049L208.474 732.304L210.031 733.089L212.317 734.267C218.195 737.271 224.072 740.112 230 743Z" fill="#455A64"/>
<path d="M219.788 691.299V691.415C219.562 691.764 219.337 692.112 219.111 692.414C219.018 692.577 218.909 692.732 218.786 692.878C218.285 693.602 217.742 694.299 217.158 694.967V695.199L215.956 700.284L215.805 700.934C214.854 704.973 213.426 710.963 211.623 718.577C211.623 718.856 211.623 719.111 211.447 719.39L208.467 731.996C207.64 735.455 206.764 739.146 205.962 743H0.308594V540.77L55.9861 537.775L92.4783 535.802L129.672 533.806H130.548L216.857 529.163L219.838 529C219.838 529 223.52 548.385 226.525 574.177C227.752 584.671 228.879 596.232 229.581 607.979C231.434 640.527 230.282 674.607 219.788 691.299Z" fill="#D3766A"/>
<path d="M241.499 606.926C238.139 658.221 225.627 682.649 220.036 691.194V691.31C219.81 691.659 219.584 692.007 219.358 692.309C219.265 692.472 219.156 692.628 219.033 692.773C218.531 693.497 217.987 694.195 217.403 694.863V695.095L216.876 698.207L216.475 700.529L210.758 733.038L209.028 743H0.308594V539.818L92.457 534.872L129.893 532.852H130.695L217.077 528.207L239.644 527C240.479 535.777 241.115 544.137 241.549 552.078C241.549 553.634 241.7 555.19 241.775 556.723C241.775 557.651 241.775 558.58 241.775 559.509C242.628 577.366 242.402 593.226 241.499 606.926Z" fill="#263238"/>
<path d="M41.3086 737.441L40.7646 739.747C40.5174 740.832 40.2949 741.916 40.0476 743H25.2126L26.3499 738.71C23.3299 731.268 20.9084 723.627 19.1055 715.85L17.6714 709.552L16.5341 703.186C15.7429 698.965 15.3226 694.697 14.8281 690.407C13.0038 673.425 12.8218 656.325 14.2841 639.313C14.8775 633.915 15.4215 628.517 16.1632 623.166C16.5835 620.121 17.0533 617.099 17.6467 614.077C18.8335 605.681 20.9599 597.422 22.9379 589.211C23.828 585.058 25.0889 580.999 26.3499 576.962L30.034 564.782C32.8773 556.801 36.0421 548.889 38.9597 541C36.8828 549.166 34.6081 557.262 32.6301 565.428C31.0971 573.709 28.8966 581.783 27.6851 590.087C26.4736 598.391 25.2126 606.557 24.4955 614.884C24.1741 617.468 23.9516 620.075 23.7785 622.681C23.3829 628.356 23.2346 634.03 23.012 639.728C22.7676 656.221 23.9416 672.705 26.523 689.023C27.2153 693.082 27.8582 697.142 28.9955 701.087L30.3554 707.107L32.0367 712.989C34.1009 720.694 36.8721 728.219 40.3196 735.48L41.3086 737.441Z" fill="#455A64"/>
<path d="M223.374 293.959C276.581 359.149 374.829 426.067 408.421 414.66C453.512 399.239 472.526 341.315 505.717 277.471C513.759 261.999 397.55 209.257 390.611 226.66C380.59 251.837 365.761 297.566 363.531 297.795C360.415 296.929 357.496 295.453 354.939 293.451C348.952 288.929 334.247 276.074 313.13 267.232C292.012 258.391 272.373 258.671 247.472 249.601C197.422 231.233 190.608 253.818 223.374 293.959Z" fill="#D3766A"/>
<path d="M541.264 187.002C539.36 214.948 513.333 270.992 501.935 282.044C490.537 293.095 395.32 251.354 391.312 235.45C387.304 219.547 400.906 125.496 420.095 104.333C439.283 83.1705 543.218 157.888 541.264 187.002Z" fill="#D3766A"/>
<path d="M397.048 142.873C403.787 156.134 415.335 140.51 415.335 140.51C415.335 140.51 404.037 167.084 416.212 178.034C427.96 188.552 441.262 169.167 442.239 167.872C441.638 169.269 431.893 193.963 445.245 203.693C459.098 213.855 469.168 192.007 469.82 190.584C469.669 192.108 468.166 212.077 479.84 217.133C500.105 225.821 505.366 174.833 519.67 164.061C519.67 164.061 540.412 186.545 541.163 187.078C541.163 187.078 547.15 138.681 531.744 119.932C529.544 117.169 526.481 115.251 523.06 114.493C519.64 113.736 516.066 114.184 512.931 115.765C512.931 115.765 516.564 100.395 506.318 92.3923C501.032 88.3021 489.885 93.2307 489.885 93.2307C489.885 93.2307 492.39 80.7821 482.721 74.2529C475.205 69.0194 465.185 74.761 465.185 74.761C465.185 74.761 462.029 61.728 452.535 58.9334C433.421 53.1918 382.644 114.368 397.048 142.873Z" fill="#D3766A"/>
<path d="M463.482 75.3456C463.526 75.312 463.554 75.2622 463.561 75.2074C463.568 75.1527 463.553 75.0973 463.52 75.0535C463.487 75.0097 463.438 74.9811 463.384 74.9739C463.33 74.9668 463.275 74.9817 463.232 75.0154C441.689 91.0462 422.851 115.334 414.634 141.273C414.359 142.136 415.586 142.949 416.062 142.06C429.589 116.909 443.567 95.797 463.482 75.3456Z" fill="#263238"/>
<path d="M490.111 92.7481C490.336 92.5194 489.986 92.1637 489.71 92.3416C467.59 108.982 447.124 136.928 441.112 167.973C440.912 169.04 441.763 170.209 442.114 168.99C447.65 148.665 472.1 111.04 490.111 92.7481Z" fill="#263238"/>
<path d="M470.121 192.82C477.035 163.299 492.666 138.986 512.08 116.324C512.331 116.045 511.905 115.689 511.629 115.893C499.104 124.327 488.157 140.078 480.667 153.061C473.466 164.983 469.484 178.615 469.119 192.591C469.094 193.125 469.97 193.455 470.121 192.82Z" fill="#263238"/>
<path d="M415.334 140.51C413.631 145.804 412.415 151.247 411.702 156.769C410.779 162.099 411.281 167.581 413.155 172.648C414.147 174.912 415.932 176.722 418.165 177.729C420.431 178.739 422.916 179.142 425.38 178.897C427.81 178.445 430.12 177.481 432.161 176.068C434.202 174.654 435.928 172.823 437.228 170.691L443.967 160.529L441.111 172.419C439.794 177.694 439.329 183.151 439.733 188.577C439.776 191.1 440.347 193.586 441.41 195.868C442.472 198.15 444.001 200.176 445.896 201.813C447.664 203.33 449.895 204.179 452.21 204.216C454.526 204.253 456.782 203.476 458.596 202.016C462.606 198.704 465.718 194.411 467.64 189.542L473.276 176.357L472.124 190.762C471.806 194.758 471.991 198.779 472.675 202.728C473.179 206.495 474.764 210.029 477.234 212.89C478.393 214.146 479.874 215.049 481.512 215.497C483.149 215.946 484.878 215.923 486.503 215.43C489.942 213.748 492.837 211.103 494.844 207.809C499.296 200.742 503.199 193.336 506.518 185.655C508.321 181.819 510.125 178.034 512.129 174.223C513.889 170.329 516.452 166.864 519.644 164.061C516.796 167.148 514.575 170.774 513.106 174.731C511.403 178.567 509.9 182.53 508.372 186.468C505.526 194.562 501.928 202.362 497.625 209.765C495.365 213.81 491.986 217.096 487.905 219.216C485.565 220.137 483.01 220.341 480.557 219.804C478.103 219.267 475.859 218.011 474.103 216.192C470.922 212.732 468.829 208.389 468.09 203.718C467.256 199.318 466.995 194.825 467.314 190.355L471.898 191.473C469.731 197.281 466.094 202.407 461.352 206.335C458.669 208.44 455.349 209.535 451.958 209.435C448.629 209.22 445.441 207.989 442.815 205.903C440.417 203.834 438.48 201.271 437.132 198.384C435.785 195.498 435.058 192.354 434.999 189.161C434.632 183.174 435.232 177.167 436.777 171.377L440.66 173.156C438.974 175.711 436.761 177.865 434.175 179.47C431.589 181.075 428.691 182.093 425.68 182.454C422.62 182.595 419.576 181.939 416.837 180.549C414.064 179.095 411.908 176.665 410.775 173.715C409.045 168.146 408.88 162.199 410.299 156.541C411.374 151.021 413.063 145.643 415.334 140.51Z" fill="#263238"/>
<path d="M390.86 219.012C390.86 219.012 352.007 106.238 402.91 112.437C417.94 114.266 478.061 140.154 473.051 152.45C466.738 168.354 439.709 162.308 423.351 155.753C423.351 155.753 441.888 192.235 420.72 212.89C407.469 225.872 390.86 219.012 390.86 219.012Z" fill="#D3766A"/>
<path d="M398.651 112.183C404.66 112.204 410.635 113.111 416.387 114.876C422.193 116.478 427.885 118.481 433.421 120.872C444.594 125.484 455.348 131.077 465.561 137.588C468.278 139.331 470.74 141.452 472.875 143.889C474.042 145.317 474.895 146.979 475.38 148.767C475.675 149.745 475.794 150.769 475.731 151.79C475.66 152.811 475.432 153.814 475.055 154.763C473.623 158.094 471.064 160.797 467.84 162.384C464.863 163.837 461.658 164.748 458.371 165.077C452.148 165.585 445.886 165 439.859 163.35C433.958 161.87 428.172 159.95 422.549 157.608L425.054 154.636C427.028 158.868 428.597 163.284 429.738 167.821C430.91 172.316 431.624 176.922 431.868 181.565C432.077 186.207 431.613 190.855 430.49 195.36C429.389 199.827 427.45 204.036 424.778 207.758C426.893 203.795 428.341 199.502 429.062 195.055C429.721 190.656 429.78 186.185 429.237 181.768C428.752 177.356 427.821 173.005 426.457 168.786C425.168 164.587 423.491 160.521 421.447 156.643L418.942 151.892L424.102 153.67C429.599 155.731 435.222 157.428 440.936 158.751C446.479 160.134 452.206 160.597 457.895 160.123C463.231 159.513 468.792 157.227 470.42 152.857C472.199 149.173 467.339 144.727 462.78 141.476C457.928 138.113 452.911 135.001 447.75 132.152C442.589 129.205 437.379 126.334 432.043 123.717C421.422 118.788 410.65 113.631 398.651 112.183Z" fill="#263238"/>
<path d="M292.915 609.189C290.375 609.875 287.773 610.301 285.149 610.459L278.035 611.221C268.966 612.161 256.166 613.304 240.885 614.6L229.111 615.591C216.135 616.632 201.806 617.776 186.701 618.944L173.875 619.935L146.796 621.993L138.754 622.603C122.396 623.822 105.913 625.143 89.931 626.185L82.8668 626.693L48.5477 629.233L43.713 629.589L24.1486 630.936L16.3579 631.469L0 632.562V499.412C22.5454 435.899 54.6099 361.105 95.1916 300.183C104.333 286.359 114.236 273.068 124.851 260.373C127.156 257.604 129.486 254.885 131.865 252.243C143.94 238.702 156.615 231.284 168.94 228.108C179.016 225.567 189.551 225.567 199.627 228.108C211.789 231.128 223.124 236.885 232.794 244.952C233.921 245.892 234.998 246.832 236 247.772C238.668 250.225 241.108 252.92 243.29 255.825C244.061 256.854 244.78 257.923 245.444 259.026C250.937 268.644 255.46 278.798 258.946 289.335C258.999 289.458 259.041 289.585 259.072 289.716C265.077 307.769 269.873 326.213 273.425 344.922C277.96 367.66 281.617 392.278 284.523 417.022C286.677 435.594 288.431 454.216 289.833 472.203C290.109 475.81 290.36 479.367 290.61 482.898C291.061 488.945 291.437 494.915 291.787 500.682L292.013 504.823C292.013 505.128 292.013 505.433 292.013 505.713C292.138 507.643 292.238 509.549 292.339 511.429C295.42 566.127 294.718 607.41 292.915 609.189Z" fill="#160039"/>
<path d="M217.962 292.561C203.408 291.443 176.579 260.246 167.611 235.653C167.01 233.976 171.769 217.869 176.629 198.053C179.535 186.011 182.491 172.521 184.32 159.945L258.82 190.584C258.82 190.584 247.422 215.634 244.366 237.457C244.139 239.183 244.072 240.926 244.165 242.665C244.165 242.894 244.165 243.198 244.165 243.529C244.29 253.589 240.758 294.339 217.962 292.561Z" fill="#D3766A"/>
<path d="M177.431 194.598C189.606 220.588 210.197 247.289 244.04 248.61C244.04 246.502 244.216 244.825 244.04 243.529C244.015 243.242 244.015 242.953 244.04 242.665C243.943 240.926 244.019 239.181 244.266 237.457C247.322 215.634 258.695 190.584 258.695 190.584L184.295 160.098C182.692 171.327 180.187 183.496 177.431 194.598Z" fill="#263238"/>
<path d="M167.661 68.8418C156.614 95.9747 163.553 178.085 181.464 198.13C207.441 226.99 253.759 234.002 278.91 201.458C303.284 169.93 292.387 62.9477 272.021 44.4526C241.986 17.1926 183.969 28.7267 167.661 68.8418Z" fill="#D3766A"/>
<path d="M228.935 125.877C228.935 125.648 228.534 126.156 228.559 126.385C229.261 131.923 229.111 138.351 224.351 140.663C224.201 140.663 224.351 140.993 224.351 140.967C230.288 139.519 230.463 130.983 228.935 125.877Z" fill="#263238"/>
<path d="M223.525 120.541C214.707 120.694 215.659 138.63 223.851 138.478C232.042 138.325 230.94 120.414 223.525 120.541Z" fill="#263238"/>
<path d="M263.205 123.311C263.205 123.082 263.656 123.539 263.656 123.768C263.781 129.332 264.859 135.683 269.894 137.258C270.044 137.258 270.044 137.588 269.894 137.563C263.781 137.03 262.454 128.595 263.205 123.311Z" fill="#263238"/>
<path d="M267.863 117.239C276.631 116.07 278.284 133.956 270.168 135.023C262.052 136.09 260.348 118.23 267.863 117.239Z" fill="#263238"/>
<path d="M216.384 113.708C218.637 114.612 220.937 115.392 223.273 116.045C225.592 117.236 228.236 117.611 230.788 117.112C231.555 116.8 232.199 116.239 232.62 115.518C233.041 114.797 233.216 113.956 233.118 113.123C232.67 111.506 231.804 110.039 230.611 108.873C229.418 107.708 227.94 106.886 226.329 106.493C223.202 105.196 219.711 105.123 216.535 106.289C215.822 106.595 215.213 107.103 214.779 107.753C214.345 108.402 214.106 109.165 214.09 109.949C214.074 110.733 214.282 111.506 214.689 112.172C215.096 112.839 215.685 113.373 216.384 113.708Z" fill="#263238"/>
<path d="M274.227 101.132C271.854 101.653 269.454 102.035 267.038 102.275C264.577 103.047 261.933 102.967 259.523 102.046C258.821 101.602 258.284 100.936 257.994 100.15C257.704 99.3648 257.678 98.5043 257.919 97.7022C258.628 96.1896 259.72 94.8958 261.085 93.9536C262.45 93.0115 264.038 92.4551 265.685 92.3416C268.985 91.5938 272.441 92.1191 275.38 93.8151C276.024 94.2455 276.532 94.8551 276.843 95.5709C277.154 96.2868 277.254 97.0784 277.133 97.8508C277.011 98.6232 276.672 99.3437 276.157 99.9256C275.642 100.508 274.972 100.926 274.227 101.132Z" fill="#263238"/>
<path d="M230.463 178.06C231.841 179.279 233.244 181.007 235.248 181.057C237.275 180.901 239.247 180.313 241.035 179.33C241.072 179.316 241.113 179.313 241.152 179.323C241.191 179.332 241.226 179.353 241.253 179.383C241.28 179.413 241.298 179.451 241.303 179.491C241.309 179.532 241.303 179.573 241.285 179.609C240.566 180.743 239.557 181.658 238.366 182.257C237.175 182.857 235.847 183.118 234.521 183.014C233.388 182.78 232.348 182.212 231.532 181.38C230.716 180.548 230.161 179.49 229.937 178.339C229.837 178.009 230.288 177.882 230.463 178.06Z" fill="#263238"/>
<path d="M235.298 161.114C236.81 163.216 238.735 164.978 240.95 166.289C243.166 167.601 245.625 168.434 248.174 168.735C250.4 169.066 252.661 169.066 254.887 168.735C255.321 168.716 255.75 168.639 256.165 168.507C256.571 168.454 256.973 168.369 257.367 168.253C257.655 168.181 257.911 168.015 258.096 167.781C258.282 167.547 258.386 167.257 258.394 166.957C258.418 166.763 258.418 166.567 258.394 166.373V165.89C258.269 161.596 257.517 155.118 257.517 155.118C259.096 155.829 267.137 158.98 266.911 156.744C264.807 138.325 262.502 117.848 256.616 99.9631C256.592 99.8283 256.517 99.7084 256.407 99.6298C256.296 99.5512 256.16 99.5203 256.027 99.5439C255.894 99.5674 255.776 99.6436 255.698 99.7556C255.621 99.8675 255.59 100.006 255.614 100.141C256.916 117.925 261.3 135.378 262.903 153.213C260.041 152.044 257.03 151.292 253.96 150.977C253.359 151.18 255.639 163.476 255.538 165.407C255.544 165.475 255.544 165.543 255.538 165.611C248.499 166.906 243.013 165.052 235.924 160.529C235.298 160.301 234.972 160.707 235.298 161.114Z" fill="#263238"/>
<path d="M252.333 166.754C250.172 169.927 247.249 172.489 243.841 174.198C241.957 175.058 239.857 175.306 237.829 174.909C233.395 173.994 233.069 169.828 233.67 166.398C234.016 164.533 234.579 162.716 235.349 160.987C240.261 164.694 246.211 166.714 252.333 166.754Z" fill="#263238"/>
<path d="M243.841 174.198C241.957 175.058 239.857 175.306 237.829 174.909C233.395 173.995 233.069 169.828 233.67 166.398C238.38 166.627 243.19 169.6 243.841 174.198Z" fill="#FF9ABB"/>
<path d="M162.777 151.587C162.777 151.587 133.818 99.455 134.62 82.6113C134.795 78.6226 155.587 61.3215 155.587 61.3215L148.072 49.7875L160.597 52.5567L169.741 19.3265L167.762 50.067C167.762 50.067 183.193 18.5643 198.073 12.5178C212.953 6.47135 235.498 3.06703 235.498 3.06703L211.75 23.9503C211.75 23.9503 255.664 0.475669 265.083 0.018372C274.501 -0.438925 319.592 7.79243 319.592 7.79243L259.722 28.7264C259.722 28.7264 283.595 28.7264 292.488 33.8075C301.381 38.8886 319.216 61.4994 319.216 61.4994L266.11 51.947C266.11 51.947 281.14 57.028 284.146 60.7626C287.152 64.4972 291.661 79.0037 291.661 79.0037C291.661 79.0037 253.058 60.1021 241.56 59.594C226.53 58.908 183.143 79.2069 183.143 79.2069C183.143 79.2069 189.23 105.095 189.455 109.693C190.207 127.071 162.777 151.587 162.777 151.587Z" fill="#455A64"/>
<path d="M178.459 136.344C178.459 136.344 162.351 108.779 150.127 114.368C137.902 119.958 148.699 158.98 162.051 165.179C163.708 166.1 165.532 166.672 167.413 166.859C169.293 167.046 171.192 166.845 172.994 166.268C174.797 165.691 176.465 164.751 177.899 163.502C179.333 162.254 180.504 160.725 181.339 159.006L178.459 136.344Z" fill="#D3766A"/>
<path d="M153.508 125.495C153.307 125.495 153.232 125.775 153.508 125.876C162.852 130.576 167.26 140.027 170.116 149.707C167.611 145.87 163.753 143.584 158.718 146.683C158.468 146.836 158.718 147.242 158.944 147.217C160.679 146.8 162.498 146.938 164.153 147.611C165.808 148.284 167.217 149.46 168.187 150.977C169.799 153.53 171.126 156.257 172.145 159.107C172.521 159.996 174.124 159.666 173.874 158.624V158.395C174.876 145.947 166.609 127.782 153.508 125.495Z" fill="#263238"/>
<path d="M167.662 235.654C164.981 239.058 167.236 255.165 167.236 255.165L173.173 258.391L173.048 263.599L175.102 265.048C175.102 265.048 183.519 279.046 185.272 281.485C187.026 283.924 191.184 290.072 191.184 290.072L190.257 295.153H192.888L190.758 309.177L197.021 300.971L206.891 314.918L211.901 319.39L214.406 320.431L215.107 329.603L218.664 329.12L225.127 332.804H226.906L233.319 326.046L238.329 338.291L238.605 326.325L238.755 319.847L246.07 319.059L241.936 313.978L241.686 309.786L250.303 300.234C250.303 300.234 248.725 295.966 247.548 293.044C246.37 290.123 243.565 285.016 243.565 285.016L244.917 280.824L245.168 268.858L243.94 262.075L243.264 255.597L167.662 235.654Z" fill="#D3766A"/>
<path d="M146.895 249.245C165.908 252.319 178.935 275.819 175.077 315.503C171.219 355.186 136.249 424.492 99.0236 416.692C66.4581 409.934 71.9441 364.027 81.4883 332.397C93.1117 292.993 128.608 246.324 146.895 249.245Z" fill="#D3766A"/>
<path d="M121.017 278.411C84.719 400.103 74.323 537.546 111.573 592.904C153.282 654.766 182.816 624.076 187.225 618.157C221.745 571.792 221.344 514.528 208.994 429.344C207.466 418.902 210.472 393.345 204.46 365.831C200.502 347.64 185.722 316.087 184.194 309.202C165.707 224.704 130.085 248.305 121.017 278.411Z" fill="#D3766A"/>
<path d="M95.341 366.492C95.341 368.245 95.4913 370.023 95.5665 371.801C97.0445 363.392 98.8731 355.11 101.002 346.828C101.002 346.65 101.328 346.828 101.328 346.828C100.251 356.456 95.1406 391.948 90.7568 413.06C90.7568 413.181 90.7093 413.297 90.6247 413.383C90.5402 413.469 90.4255 413.517 90.3059 413.517C90.1863 413.517 90.0716 413.469 89.987 413.383C89.9025 413.297 89.855 413.181 89.855 413.06C89.855 403.609 93.9382 381.1 94.6396 376.882C94.4893 375.587 94.3139 374.342 94.2638 372.97C94.2638 370.836 94.2638 368.702 94.2638 366.568C94.2638 362.3 94.6897 358.032 94.9402 353.865C95.0154 358.032 95.0154 362.249 95.341 366.492Z" fill="#263238"/>
<path d="M154.385 625.372C188.478 622.069 223.549 586.197 311.827 481.603C324.051 467.122 246.52 352.213 232.692 366.999C215.157 385.596 151.654 461.66 147.696 467.808C114.304 519.736 131.263 627.557 154.385 625.372Z" fill="#D3766A"/>
<path d="M315.008 262.888C328.735 267.156 328.861 282.247 328.861 282.247C335.781 280.372 343.13 281.019 349.627 284.076C360.8 289.995 356.566 310.371 356.566 310.371C364.137 309.951 371.656 311.864 378.135 315.858C388.155 322.616 386.902 343.804 386.902 343.804C394.074 347.332 399.75 353.368 402.885 360.8C410.4 380.921 390.986 407.267 378.736 424.11C366.486 440.954 316.11 477.182 307.267 485.083L199.876 406.327C199.876 406.327 233.569 314.867 250.753 297.084C265.358 282.044 299.577 258.112 315.008 262.888Z" fill="#D3766A"/>
<path d="M328.359 282.297C309.196 294.441 294.641 311.692 279.16 328.027C279.126 328.064 279.098 328.107 279.08 328.154C279.062 328.202 279.054 328.252 279.055 328.303C279.056 328.354 279.067 328.404 279.087 328.45C279.107 328.496 279.136 328.538 279.173 328.573C279.209 328.608 279.251 328.636 279.298 328.654C279.345 328.672 279.394 328.681 279.444 328.68C279.494 328.679 279.544 328.668 279.59 328.647C279.635 328.627 279.677 328.597 279.711 328.561C294.942 312.098 313.179 298.938 329.035 283.11C329.097 283.01 329.126 282.893 329.118 282.775C329.109 282.657 329.064 282.545 328.989 282.454C328.914 282.364 328.812 282.3 328.699 282.272C328.586 282.244 328.467 282.253 328.359 282.297Z" fill="#263238"/>
<path d="M355.865 309.71C351.786 312.912 348.131 316.635 344.993 320.787C341.411 324.953 337.929 329.196 334.472 333.489C327.592 342.093 320.912 350.867 314.432 359.809C314.131 360.216 314.657 360.749 314.983 360.343C321.872 351.807 328.886 343.347 336.1 335.09C339.724 330.957 343.382 326.85 347.073 322.768C350.79 319.145 354.1 315.114 356.942 310.752C357.018 310.601 357.044 310.429 357.016 310.262C356.988 310.094 356.908 309.941 356.787 309.824C356.666 309.707 356.51 309.632 356.344 309.612C356.178 309.591 356.01 309.626 355.865 309.71Z" fill="#263238"/>
<path d="M386.603 344.16C382.796 346.522 380.015 351.121 377.335 354.652C374.278 358.632 371.197 362.595 368.091 366.542C361.878 374.443 355.566 382.344 349.203 390.016C348.877 390.397 349.453 390.956 349.779 390.55C356.392 382.928 363.106 375.129 369.644 367.304C372.851 363.442 376.057 359.682 379.238 355.719C381.919 352.416 385.676 348.606 387.004 344.465C387.015 344.412 387.011 344.358 386.993 344.308C386.975 344.257 386.942 344.214 386.9 344.182C386.858 344.149 386.808 344.13 386.755 344.126C386.702 344.123 386.65 344.134 386.603 344.16Z" fill="#263238"/>
<path d="M129.561 558.962C128.511 544.128 129.286 529.219 131.865 514.579C134.496 499.895 137.502 485.287 143.764 471.568C157.893 445.324 178.659 423.577 199.251 402.44C203.234 389.737 212.928 367.939 219.291 352.391C227.232 334.607 234.322 316.214 245.093 299.751C250.103 293.095 256.892 288.522 263.23 283.339C270.473 277.644 278.154 272.546 286.201 268.096C296.396 262.888 309.323 256.842 320.52 263.015C323.708 265.138 326.329 268.029 328.147 271.429C329.966 274.829 330.925 278.633 330.941 282.501L328.236 280.138C351.758 274.879 362.354 287.455 358.296 310.803L356.392 308.567C380.34 307.983 389.434 321.041 387.856 344.363L387.004 342.94C396.698 347.183 404.539 356.278 405.366 367.177C405.616 384.707 395.671 400.433 385.877 414.101C395.446 399.264 409.95 375.561 400.581 358.006C397.01 352.065 391.576 347.511 385.15 345.074C386.453 321.829 378.086 310.701 354.313 312.403C358.096 291.825 351.808 279.376 329.263 284.457L326.407 285.092C326.996 280.045 325.591 274.967 322.499 270.967C309.673 254.022 278.46 278.106 266.161 287.226C260.299 292.079 253.635 296.703 249.101 302.724C238.555 318.577 231.391 336.843 223.5 354.246C215.985 371.191 209.046 388.518 202.082 405.565C181.666 426.194 160.423 447.23 146.094 472.813C134.458 499.959 128.774 529.344 129.435 558.937L129.561 558.962Z" fill="#263238"/>
<path d="M292.438 500.275L286.075 505.356C295.223 513.05 302.004 523.242 305.615 534.725C312.178 554.567 294.968 573.519 296.02 599.153C297.072 624.787 338.781 647.22 347.824 679.612L373.351 669.704C368.467 658.552 361.683 648.361 353.311 639.598C339.157 624.584 318.415 614.193 312.779 598.95C307.143 583.707 325.53 555.761 319.993 537.825C314.182 518.974 292.438 500.275 292.438 500.275Z" fill="#455A64"/>
<path opacity="0.1" d="M286.075 505.408L292.438 500.327C292.438 500.327 294.617 502.181 297.774 505.408L294.843 514.63C292.325 511.185 289.378 508.085 286.075 505.408Z" fill="black"/>
<path opacity="0.1" d="M305.865 535.666L316.236 529.086C317.786 531.879 319.053 534.824 320.019 537.876C321.897 543.974 321.021 551.265 319.267 558.81L305.063 557.565C307.399 550.495 307.677 542.892 305.865 535.666Z" fill="black"/>
<path d="M447.224 584.011L437.705 608.07C437.705 608.07 433.422 593.005 415.16 583.452C396.898 573.9 380.615 584.875 355.991 578.981C326.281 571.918 326.306 515.772 292.062 500.529L294.943 493.873C329.713 511.403 338.055 557.386 355.214 565.135C369.944 571.715 398.877 558.555 418.341 564.906C429.478 568.546 439.451 575.142 447.224 584.011Z" fill="#455A64"/>
<path opacity="0.1" d="M294.943 493.848C296.145 494.458 297.297 495.119 298.45 495.779L297.097 503.223C295.494 502.203 293.82 501.302 292.087 500.53L294.943 493.848Z" fill="black"/>
<path opacity="0.1" d="M398.401 563.433C403.743 562.873 409.134 563.035 414.434 563.916L417.089 584.57C416.438 584.164 415.761 583.808 415.06 583.427C408.285 580.067 400.721 578.686 393.216 579.438L398.401 563.433Z" fill="black"/>
<path d="M301.906 492.985L284.721 515.418L179.209 419.08L198.222 400.814L301.906 492.985Z" fill="#455A64"/>
</svg>
