<svg width="29" height="29" viewBox="0 0 29 29" fill="none" xmlns="http://www.w3.org/2000/svg">
<path d="M28.5 14.5C28.5 22.228 22.235 28.5 14.5 28.5C6.765 28.5 0.5 22.228 0.5 14.5C0.5 6.765 6.765 0.5 14.5 0.5C22.235 0.5 28.5 6.765 28.5 14.5Z" fill="#160039"/>
<path d="M21.0621 10.9574C20.9857 11.002 19.1671 11.9425 19.1671 14.0279C19.2528 16.4061 21.4621 17.2401 21.5 17.2401C21.4621 17.2847 21.1665 18.3763 20.2907 19.5205C19.5956 20.5062 18.8242 21.5 17.6528 21.5C16.5385 21.5 16.1385 20.8431 14.8528 20.8431C13.472 20.8431 13.0813 21.5 12.0242 21.5C10.8528 21.5 10.0242 20.453 9.29127 19.4766C8.3391 18.1986 7.52978 16.1931 7.50121 14.2675C7.48195 13.2471 7.69189 12.244 8.22481 11.3921C8.97699 10.2026 10.3198 9.39524 11.7863 9.36862C12.9099 9.33331 13.9099 10.0875 14.5956 10.0875C15.2528 10.0875 16.4814 9.36862 17.8714 9.36862C18.4714 9.36919 20.0714 9.53762 21.0621 10.9574ZM14.5006 9.16488C14.3006 8.23303 14.8528 7.30119 15.3671 6.70677C16.0242 5.98792 17.0621 5.5 17.9571 5.5C18.0143 6.43185 17.6522 7.34575 17.005 8.01136C16.4242 8.73021 15.4242 9.27138 14.5006 9.16488Z" fill="white"/>
</svg>
