<svg width="30" height="31" viewBox="0 0 30 31" fill="none" xmlns="http://www.w3.org/2000/svg">
<g clip-path="url(#clip0_21_439)">
<path d="M10.4773 1.56819C7.49727 2.60199 4.92729 4.56418 3.14486 7.16654C1.36243 9.7689 0.461497 12.8743 0.574393 16.0265C0.68729 19.1787 1.80807 22.2117 3.7721 24.6799C5.73613 27.1481 8.43989 28.9214 11.4862 29.7393C13.956 30.3766 16.5436 30.4046 19.0265 29.8209C21.2758 29.3156 23.3554 28.2349 25.0615 26.6846C26.8373 25.0217 28.1262 22.9062 28.7897 20.5657C29.5109 18.0204 29.6393 15.3437 29.1649 12.7411H15.296V18.4942H23.3279C23.1674 19.4118 22.8234 20.2875 22.3165 21.069C21.8097 21.8506 21.1503 22.5218 20.378 23.0426C19.3972 23.6913 18.2916 24.1279 17.1321 24.3241C15.9693 24.5404 14.7765 24.5404 13.6136 24.3241C12.435 24.0805 11.3201 23.594 10.3398 22.8958C8.76501 21.781 7.58254 20.1973 6.96115 18.3707C6.32926 16.5098 6.32926 14.4924 6.96115 12.6316C7.40347 11.3272 8.13468 10.1396 9.1002 9.15739C10.2051 8.01271 11.604 7.19449 13.1433 6.7925C14.6827 6.3905 16.303 6.42027 17.8265 6.87853C19.0167 7.24388 20.105 7.8822 21.0048 8.74263C21.9104 7.84165 22.8145 6.93834 23.717 6.0327C24.1831 5.54571 24.691 5.08201 25.1501 4.58337C23.7766 3.30524 22.1644 2.3107 20.4059 1.65674C17.2037 0.493982 13.6998 0.462734 10.4773 1.56819Z" fill="white"/>
<path d="M10.4772 1.56822C13.6995 0.462017 17.2033 0.492442 20.4059 1.65444C22.1647 2.31285 23.7761 3.31218 25.1477 4.59505C24.6816 5.0937 24.19 5.55972 23.7146 6.04438C22.8106 6.94692 21.9072 7.84634 21.0047 8.74266C20.1049 7.88224 19.0166 7.24391 17.8264 6.87857C16.3034 6.4187 14.6831 6.38721 13.1434 6.78756C11.6037 7.18791 10.2039 8.00462 9.09781 9.1481C8.13228 10.1303 7.40107 11.3179 6.95876 12.6223L2.12842 8.88247C3.85739 5.45384 6.85099 2.83121 10.4772 1.56822Z" fill="#E33629"/>
<path d="M0.846912 12.5873C1.10654 11.3006 1.53757 10.0546 2.12848 8.88245L6.95882 12.6316C6.32692 14.4925 6.32692 16.5098 6.95882 18.3707C5.34948 19.6134 3.73937 20.8624 2.12848 22.1175C0.649202 19.173 0.198049 15.8181 0.846912 12.5873Z" fill="#F8BD00"/>
<path d="M15.296 12.7388H29.1648C29.6392 15.3414 29.5109 18.018 28.7897 20.5633C28.1261 22.9039 26.8372 25.0193 25.0615 26.6822C23.5026 25.4659 21.9368 24.2589 20.3779 23.0426C21.1508 22.5213 21.8104 21.8493 22.3173 21.0669C22.8242 20.2846 23.1679 19.4079 23.3279 18.4895H15.296C15.2936 16.5741 15.296 14.6565 15.296 12.7388Z" fill="#587DBD"/>
<path d="M2.1261 22.1176C3.73699 20.8748 5.3471 19.6259 6.95644 18.3707C7.57906 20.198 8.76322 21.7818 10.3398 22.8958C11.3231 23.5908 12.4404 24.0733 13.6206 24.3125C14.7834 24.5288 15.9762 24.5288 17.1391 24.3125C18.2985 24.1163 19.4041 23.6797 20.3849 23.031C21.9438 24.2473 23.5096 25.4543 25.0685 26.6706C23.3626 28.2218 21.283 29.3034 19.0334 29.8093C16.5505 30.393 13.9629 30.365 11.4932 29.7277C9.53984 29.2062 7.7153 28.2868 6.1339 27.0271C4.46009 25.6982 3.09299 24.0235 2.1261 22.1176Z" fill="#319F43"/>
</g>
<defs>
<clipPath id="clip0_21_439">
<rect width="29.8255" height="29.8255" fill="white" transform="translate(0.0872803 0.587219)"/>
</clipPath>
</defs>
</svg>
