<svg width="506" height="559" viewBox="0 0 506 559" fill="none" xmlns="http://www.w3.org/2000/svg">
<path fill-rule="evenodd" clip-rule="evenodd" d="M43 3C20.9086 3 3 20.9086 3 43V443C3 465.091 20.9086 483 43 483H133L244.5 556L370 483H463C485.091 483 503 465.091 503 443V43C503 20.9086 485.091 3 463 3H43Z" fill="#160039"/>
<path d="M133 483L134.369 480.908L133.746 480.5H133V483ZM244.5 556L243.131 558.092L244.422 558.937L245.757 558.161L244.5 556ZM370 483V480.5H369.326L368.743 480.839L370 483ZM5.5 43C5.5 22.2893 22.2893 5.5 43 5.5V0.5C19.5279 0.5 0.5 19.5279 0.5 43H5.5ZM5.5 443V43H0.5V443H5.5ZM43 480.5C22.2893 480.5 5.5 463.711 5.5 443H0.5C0.5 466.472 19.5279 485.5 43 485.5V480.5ZM133 480.5H43V485.5H133V480.5ZM245.869 553.908L134.369 480.908L131.631 485.092L243.131 558.092L245.869 553.908ZM368.743 480.839L243.243 553.839L245.757 558.161L371.257 485.161L368.743 480.839ZM463 480.5H370V485.5H463V480.5ZM500.5 443C500.5 463.711 483.711 480.5 463 480.5V485.5C486.472 485.5 505.5 466.472 505.5 443H500.5ZM500.5 43V443H505.5V43H500.5ZM463 5.5C483.711 5.5 500.5 22.2893 500.5 43H505.5C505.5 19.5279 486.472 0.5 463 0.5V5.5ZM43 5.5H463V0.5H43V5.5Z" fill="white"/>
<path d="M394.43 136.689L385.704 128.786L386.95 192.01L391.314 193.986L394.43 190.034V136.689Z" stroke="white" stroke-width="3"/>
<path d="M153.203 205.182V190.693H160.059V174.887L90.87 145.909L89 139.982V134.055L93.9866 128.127L251.065 57L373.237 112.98L376.354 110.345L383.21 112.98L413.13 128.786L415 136.689L413.13 142.616L406.897 149.202H403.78V191.352L409.39 197.279V207.158V238.77L406.897 242.063L403.78 246.673L397.547 249.307H383.21C383.21 249.307 380.045 247.934 378.224 246.673C376.06 245.174 373.237 242.063 373.237 242.063V199.255L376.354 193.327V159.081M376.354 134.713V126.81L251.065 70.8303L107.076 136.03V139.982H114.556L251.065 78.7333L376.354 134.713ZM376.354 134.713V159.081M376.354 159.081L341.447 174.228V190.034L348.304 191.352V199.255V207.158" stroke="white" stroke-width="3"/>
<path d="M363 219.312V343.584C363 347.172 362.035 350.693 360.206 353.78L356.532 359.979C355.853 361.126 355.018 362.172 354.05 363.088V363.088C351.379 365.62 347.838 367.03 344.158 367.03H308.061H296.525C294.243 367.03 291.979 367.421 289.829 368.184L270.602 375.015L257.931 380.243C253.613 382.025 248.807 382.238 244.348 380.847L225.652 375.015L207.126 368.245C204.926 367.442 202.603 367.03 200.261 367.03H154.249C151.151 367.03 148.129 366.066 145.604 364.272V364.272C143.248 362.598 141.429 360.277 140.368 357.589L138.399 352.606C137.475 350.266 137 347.773 137 345.257V223.231C137 220.663 137.676 218.141 138.96 215.918V215.918C140.902 212.553 144.105 210.099 147.859 209.099L149.588 208.638C151.178 208.215 152.817 208 154.463 208H155.105" stroke="white" stroke-width="7"/>
<path d="M161.512 205.017L178.5 203.5H196H213.5L231.988 205.017V231.52H161.512V205.017Z" fill="white"/>
<path d="M267 206L321.5 204.5L337 206V232H267V206Z" fill="white"/>
<path d="M161.5 217.637H248.711V356L230.5 345.5L161.5 340V217.637Z" fill="white"/>
<path d="M253.5 217.637L287 204.5H320L339.494 217.637V341H296.5L253.5 342V217.637Z" fill="white"/>
<path d="M267.824 237.2L276.185 234.675L284.547 232.151L294.7 230.889H306.048L312.021 232.151L321.577 234.675" stroke="#160039" stroke-width="5"/>
<path d="M234.377 236.569L226.016 234.045L217.654 231.52L207.501 230.258H196.153L190.18 231.52L180.624 234.045" stroke="#160039" stroke-width="5"/>
<path d="M234.377 252.976L226.016 250.451L217.654 247.927L207.501 246.665H196.153L190.18 247.927L180.624 250.451" stroke="#160039" stroke-width="5"/>
<path d="M234.377 270.645L226.016 268.12L217.654 265.596L207.501 264.334H196.153L190.18 265.596L180.624 268.12" stroke="#160039" stroke-width="5"/>
<path d="M233.183 288.314L224.821 285.79L216.459 283.266L206.306 282.004H194.958L188.986 283.266L179.43 285.79" stroke="#160039" stroke-width="5"/>
<path d="M234.377 307.245L225.83 303.711L217.283 300.177L206.904 298.411H195.304L189.198 300.177L179.43 303.711" stroke="#160039" stroke-width="5"/>
<path d="M233.183 323.652L224.821 320.623L216.459 317.594L206.306 316.079H194.958L188.986 317.594L179.43 320.623" stroke="#160039" stroke-width="5"/>
<path d="M269.019 255.5L277.566 252.471L286.113 249.442L296.492 247.927H308.092L314.198 249.442L323.966 252.471" stroke="#160039" stroke-width="5"/>
<path d="M269.019 271.907L277.566 268.878L286.113 265.849L296.492 264.334H308.092L314.198 265.849L323.966 268.878" stroke="#160039" stroke-width="5"/>
<path d="M267.824 289.576L276.371 286.547L284.919 283.518L295.298 282.004H306.898L313.003 283.518L322.771 286.547" stroke="#160039" stroke-width="5"/>
<path d="M269.019 307.245L277.194 303.711L285.37 300.177L295.298 298.411H306.394L312.233 300.177L321.577 303.711" stroke="#160039" stroke-width="5"/>
<path d="M269.019 323.652L277.194 320.118L285.37 316.585L295.298 314.818H306.394L312.233 316.585L321.577 320.118" stroke="#160039" stroke-width="5"/>
<path d="M159.123 223.317L151.956 227.734V347.001L154.345 350.787H157.929L204.515 349.525L215.862 352.049L224.224 354.573L233.183 358.359L240.35 362.146L246.323 366.563" stroke="white" stroke-width="5"/>
<path d="M340.5 224L349.05 228.365V347.632L346.661 351.418H343.078L296.492 350.156L285.144 352.68L276.782 355.204L267.823 358.99L260.656 362.777L254.684 367.194" stroke="white" stroke-width="5"/>
<path d="M251.1 210.696V356.466V359.621L264.837 352.049L277.977 346.369L289.922 343.214L295.894 341.952H309.034H321.576L332.327 342.583H339.494M339.494 342.583L342.5 342.5M339.494 342.583V207.54L327.549 203.123L317.993 201.861H305.45H288.13L276.185 205.016L267.823 208.172L252.892 215.113" stroke="white" stroke-width="6"/>
<path d="M251.1 210.065V355.835V358.99L237.006 351.418L223.525 345.738L211.27 342.583L205.142 341.321H191.661H178.793L167.763 341.952H160.41M160.41 341.952H157.5M160.41 341.952V274.431V206.91L172.666 202.492L182.47 201.23H195.338H213.108L225.364 204.385L233.943 207.541L249.262 214.482" stroke="white" stroke-width="6"/>
<path d="M254.684 338.797V343.845V350.787V352.049V352.68V353.311L263.642 347.632L266.629 346.37L274.393 343.214L282.157 341.321L292.311 338.797L274.393 340.059L261.851 340.69H255.281" stroke="white" stroke-width="3"/>
<path d="M255 341H276V350L256 351L255 341Z" fill="white"/>
<rect x="211.682" y="335.011" width="39.4189" height="10.0966" fill="white"/>
<rect x="232" y="343" width="16" height="8" fill="white"/>
<rect x="255.879" y="211.327" width="20.3067" height="8.83457" fill="white"/>
<path d="M228 212L231 209.5L234.5 210L248.307 212V220.835H228V212Z" fill="white"/>
<line x1="250.712" y1="213.851" x2="250.712" y2="358.991" stroke="#160039" stroke-width="4"/>
<path d="M363 221V217.723C363 215.071 361.917 212.534 360.002 210.7V210.7C358.192 208.967 355.783 208 353.277 208H347" stroke="white" stroke-width="7"/>
<rect x="383.833" y="199.913" width="14.9598" height="32.9293" rx="2" fill="white"/>
<path d="M186.862 191.839L195.724 189.274C197.531 188.751 199.403 188.485 201.285 188.485H211.689L222.442 189.575C224.095 189.742 225.72 190.115 227.28 190.684L234.337 193.258C235.42 193.653 236.467 194.141 237.465 194.716L246.377 199.848C246.424 199.875 246.468 199.906 246.51 199.939V199.939C247.163 200.469 248.139 200.022 248.165 199.181L249.75 147.792C249.755 147.643 249.78 147.495 249.823 147.353V147.353C250.306 145.789 252.522 145.797 253.004 147.361V147.361C253.046 147.498 253.071 147.64 253.076 147.784L255.192 199.224C255.226 200.052 256.19 200.488 256.835 199.966V199.966C256.898 199.914 256.967 199.871 257.04 199.837L271.851 192.866C273.3 192.184 274.826 191.678 276.396 191.36L283.963 189.827L295.188 188.69C296.529 188.554 297.88 188.554 299.22 188.69L310.057 189.788C310.315 189.814 310.57 189.868 310.816 189.95V189.95C313.378 190.799 315.913 188.59 315.422 185.936L311.856 166.669C311.652 165.565 311.326 164.487 310.883 163.456L306.813 153.973C305.574 151.085 303.672 148.53 301.261 146.514L296.101 142.201L287.825 136.835L278.446 132.14L272.333 129.954C270.172 129.181 267.894 128.786 265.599 128.786H242.629C241.133 128.786 239.642 128.954 238.184 129.286L231.551 130.798L220.517 134.823L210.353 139.878C209.041 140.531 207.805 141.325 206.666 142.248L202.96 145.252C201.071 146.783 199.478 148.645 198.257 150.748L194.902 156.527C193.96 158.148 193.252 159.894 192.797 161.712L189.621 174.399L187.966 189.827" stroke="white" stroke-width="3"/>
<path d="M113.911 439V411.6H120.261V423.35H119.811C119.811 420.55 120.161 418.217 120.861 416.35C121.594 414.483 122.694 413.083 124.161 412.15C125.627 411.217 127.411 410.75 129.511 410.75H129.861C133.061 410.75 135.494 411.8 137.161 413.9C138.861 415.967 139.711 419.117 139.711 423.35V439H131.711V422.9C131.711 421.433 131.277 420.233 130.411 419.3C129.544 418.367 128.377 417.9 126.911 417.9C125.411 417.9 124.194 418.383 123.261 419.35C122.361 420.283 121.911 421.517 121.911 423.05V439H113.911ZM167.826 449.9C166.493 449.9 165.126 449.85 163.726 449.75C162.326 449.65 161.043 449.517 159.876 449.35V442.6C161.043 442.767 162.326 442.9 163.726 443C165.159 443.133 166.459 443.2 167.626 443.2C169.793 443.2 171.543 442.95 172.876 442.45C174.243 441.95 175.243 441.183 175.876 440.15C176.509 439.15 176.826 437.85 176.826 436.25V430.8L178.276 427.6C178.209 430.033 177.726 432.117 176.826 433.85C175.959 435.583 174.743 436.917 173.176 437.85C171.609 438.75 169.743 439.2 167.576 439.2C165.709 439.2 164.009 438.867 162.476 438.2C160.976 437.5 159.693 436.533 158.626 435.3C157.559 434.067 156.743 432.633 156.176 431C155.609 429.333 155.326 427.533 155.326 425.6V424.45C155.326 422.517 155.626 420.717 156.226 419.05C156.826 417.383 157.693 415.933 158.826 414.7C159.959 413.467 161.309 412.517 162.876 411.85C164.443 411.15 166.176 410.8 168.076 410.8C170.276 410.8 172.176 411.283 173.776 412.25C175.409 413.217 176.693 414.633 177.626 416.5C178.559 418.367 179.059 420.617 179.126 423.25L178.026 423.55V411.6H184.376V435.75C184.376 439.117 183.776 441.833 182.576 443.9C181.376 445.967 179.543 447.483 177.076 448.45C174.643 449.417 171.559 449.9 167.826 449.9ZM170.076 432.45C171.309 432.45 172.426 432.183 173.426 431.65C174.426 431.083 175.209 430.283 175.776 429.25C176.376 428.217 176.676 426.967 176.676 425.5V424.05C176.676 422.617 176.359 421.417 175.726 420.45C175.126 419.45 174.326 418.7 173.326 418.2C172.326 417.667 171.259 417.4 170.126 417.4C168.793 417.4 167.609 417.717 166.576 418.35C165.543 418.983 164.743 419.867 164.176 421C163.609 422.133 163.326 423.467 163.326 425C163.326 426.567 163.609 427.917 164.176 429.05C164.776 430.15 165.576 431 166.576 431.6C167.609 432.167 168.776 432.45 170.076 432.45ZM203.101 439V411.6H211.101V439H203.101ZM199.451 417.5V411.6H211.101V417.5H199.451ZM206.201 408.9C204.701 408.9 203.585 408.517 202.851 407.75C202.151 406.95 201.801 405.95 201.801 404.75C201.801 403.517 202.151 402.517 202.851 401.75C203.585 400.95 204.701 400.55 206.201 400.55C207.701 400.55 208.801 400.95 209.501 401.75C210.235 402.517 210.601 403.517 210.601 404.75C210.601 405.95 210.235 406.95 209.501 407.75C208.801 408.517 207.701 408.9 206.201 408.9ZM229.349 439V402.5H237.399V439H229.349ZM226.099 408.4V402.5H237.399V408.4H226.099ZM256.568 439V411.6H264.568V439H256.568ZM252.918 417.5V411.6H264.568V417.5H252.918ZM259.668 408.9C258.168 408.9 257.051 408.517 256.318 407.75C255.618 406.95 255.268 405.95 255.268 404.75C255.268 403.517 255.618 402.517 256.318 401.75C257.051 400.95 258.168 400.55 259.668 400.55C261.168 400.55 262.268 400.95 262.968 401.75C263.701 402.517 264.068 403.517 264.068 404.75C264.068 405.95 263.701 406.95 262.968 407.75C262.268 408.517 261.168 408.9 259.668 408.9ZM282.465 439V411.6H288.815V423.35H288.365C288.365 420.55 288.715 418.217 289.415 416.35C290.149 414.483 291.249 413.083 292.715 412.15C294.182 411.217 295.965 410.75 298.065 410.75H298.415C301.615 410.75 304.049 411.8 305.715 413.9C307.415 415.967 308.265 419.117 308.265 423.35V439H300.265V422.9C300.265 421.433 299.832 420.233 298.965 419.3C298.099 418.367 296.932 417.9 295.465 417.9C293.965 417.9 292.749 418.383 291.815 419.35C290.915 420.283 290.465 421.517 290.465 423.05V439H282.465ZM336.381 449.9C335.047 449.9 333.681 449.85 332.281 449.75C330.881 449.65 329.597 449.517 328.431 449.35V442.6C329.597 442.767 330.881 442.9 332.281 443C333.714 443.133 335.014 443.2 336.181 443.2C338.347 443.2 340.097 442.95 341.431 442.45C342.797 441.95 343.797 441.183 344.431 440.15C345.064 439.15 345.381 437.85 345.381 436.25V430.8L346.831 427.6C346.764 430.033 346.281 432.117 345.381 433.85C344.514 435.583 343.297 436.917 341.731 437.85C340.164 438.75 338.297 439.2 336.131 439.2C334.264 439.2 332.564 438.867 331.031 438.2C329.531 437.5 328.247 436.533 327.181 435.3C326.114 434.067 325.297 432.633 324.731 431C324.164 429.333 323.881 427.533 323.881 425.6V424.45C323.881 422.517 324.181 420.717 324.781 419.05C325.381 417.383 326.247 415.933 327.381 414.7C328.514 413.467 329.864 412.517 331.431 411.85C332.997 411.15 334.731 410.8 336.631 410.8C338.831 410.8 340.731 411.283 342.331 412.25C343.964 413.217 345.247 414.633 346.181 416.5C347.114 418.367 347.614 420.617 347.681 423.25L346.581 423.55V411.6H352.931V435.75C352.931 439.117 352.331 441.833 351.131 443.9C349.931 445.967 348.097 447.483 345.631 448.45C343.197 449.417 340.114 449.9 336.381 449.9ZM338.631 432.45C339.864 432.45 340.981 432.183 341.981 431.65C342.981 431.083 343.764 430.283 344.331 429.25C344.931 428.217 345.231 426.967 345.231 425.5V424.05C345.231 422.617 344.914 421.417 344.281 420.45C343.681 419.45 342.881 418.7 341.881 418.2C340.881 417.667 339.814 417.4 338.681 417.4C337.347 417.4 336.164 417.717 335.131 418.35C334.097 418.983 333.297 419.867 332.731 421C332.164 422.133 331.881 423.467 331.881 425C331.881 426.567 332.164 427.917 332.731 429.05C333.331 430.15 334.131 431 335.131 431.6C336.164 432.167 337.331 432.45 338.631 432.45ZM383.706 439.95C381.306 439.95 379.173 439.583 377.306 438.85C375.439 438.083 373.856 437.05 372.556 435.75C371.289 434.45 370.323 432.967 369.656 431.3C368.989 429.6 368.656 427.817 368.656 425.95V424.8C368.656 422.9 368.989 421.1 369.656 419.4C370.356 417.667 371.356 416.15 372.656 414.85C373.989 413.55 375.589 412.533 377.456 411.8C379.323 411.033 381.406 410.65 383.706 410.65C386.073 410.65 388.173 411.033 390.006 411.8C391.873 412.533 393.456 413.55 394.756 414.85C396.056 416.15 397.056 417.667 397.756 419.4C398.456 421.1 398.806 422.9 398.806 424.8V425.95C398.806 427.817 398.473 429.6 397.806 431.3C397.139 432.967 396.156 434.45 394.856 435.75C393.589 437.05 392.023 438.083 390.156 438.85C388.289 439.583 386.139 439.95 383.706 439.95ZM383.706 433.2C385.273 433.2 386.573 432.867 387.606 432.2C388.639 431.533 389.423 430.6 389.956 429.4C390.523 428.2 390.806 426.867 390.806 425.4C390.806 423.833 390.523 422.467 389.956 421.3C389.389 420.1 388.573 419.15 387.506 418.45C386.473 417.75 385.206 417.4 383.706 417.4C382.239 417.4 380.973 417.75 379.906 418.45C378.839 419.15 378.023 420.1 377.456 421.3C376.923 422.467 376.656 423.833 376.656 425.4C376.656 426.867 376.923 428.2 377.456 429.4C377.989 430.6 378.789 431.533 379.856 432.2C380.923 432.867 382.206 433.2 383.706 433.2Z" fill="white"/>
</svg>
