<svg width="404" height="284" viewBox="0 0 404 284" fill="none" xmlns="http://www.w3.org/2000/svg">
<path d="M403 236.141L403 31C403 14.4315 389.569 1 373 1.00003L31 1.0005C14.4315 1.00052 1.00002 14.432 1.00002 31.0005L1.00001 201.593C1.00001 218.161 14.4315 231.593 31 231.593L287.888 231.593C292.417 231.593 296.887 232.618 300.963 234.591L359.926 263.142C379.848 272.789 403 258.277 403 236.141Z" fill="white" stroke="black"/>
<path d="M51.5 127V121.588L46.308 111.6H49.674L53.304 119.212H52.71L56.318 111.6H59.662L54.47 121.588V127H51.5ZM64.6763 127.264C63.6203 127.264 62.6669 127.022 61.8163 126.538C60.9803 126.039 60.3129 125.357 59.8143 124.492C59.3303 123.612 59.0883 122.607 59.0883 121.478C59.0883 120.319 59.3303 119.307 59.8143 118.442C60.3129 117.562 60.9876 116.88 61.8383 116.396C62.6889 115.897 63.6423 115.648 64.6983 115.648C65.7689 115.648 66.7223 115.897 67.5583 116.396C68.4089 116.88 69.0763 117.562 69.5603 118.442C70.0589 119.307 70.3083 120.312 70.3083 121.456C70.3083 122.6 70.0589 123.612 69.5603 124.492C69.0763 125.357 68.4089 126.039 67.5583 126.538C66.7076 127.022 65.7469 127.264 64.6763 127.264ZM64.6763 124.69C65.1749 124.69 65.6149 124.573 65.9963 124.338C66.3923 124.103 66.7003 123.744 66.9203 123.26C67.1549 122.776 67.2723 122.175 67.2723 121.456C67.2723 120.737 67.1549 120.143 66.9203 119.674C66.7003 119.19 66.3923 118.831 65.9963 118.596C65.6149 118.347 65.1823 118.222 64.6983 118.222C64.2289 118.222 63.7963 118.347 63.4003 118.596C63.0043 118.831 62.6889 119.19 62.4543 119.674C62.2343 120.143 62.1243 120.737 62.1243 121.456C62.1243 122.175 62.2343 122.776 62.4543 123.26C62.6889 123.744 62.9969 124.103 63.3783 124.338C63.7743 124.573 64.2069 124.69 64.6763 124.69ZM77.004 127.264C76.1093 127.264 75.3393 127.081 74.694 126.714C74.0633 126.333 73.5793 125.783 73.242 125.064C72.9047 124.331 72.736 123.429 72.736 122.358V115.912H75.706V122.05C75.706 122.945 75.8893 123.619 76.256 124.074C76.6373 124.529 77.2167 124.756 77.994 124.756C78.4927 124.756 78.9327 124.646 79.314 124.426C79.6953 124.191 79.996 123.861 80.216 123.436C80.4507 122.996 80.568 122.461 80.568 121.83V115.912H83.516V127H80.92L80.678 125.196C80.3553 125.827 79.8787 126.333 79.248 126.714C78.6173 127.081 77.8693 127.264 77.004 127.264ZM95.3424 127.264C94.4184 127.264 93.6557 127.117 93.0544 126.824C92.4531 126.516 92.0057 126.113 91.7124 125.614C91.4337 125.101 91.2944 124.536 91.2944 123.92C91.2944 123.245 91.4631 122.651 91.8004 122.138C92.1524 121.625 92.6731 121.221 93.3624 120.928C94.0664 120.635 94.9464 120.488 96.0024 120.488H98.7524C98.7524 119.945 98.6791 119.498 98.5324 119.146C98.3857 118.779 98.1584 118.508 97.8504 118.332C97.5424 118.156 97.1317 118.068 96.6184 118.068C96.0611 118.068 95.5844 118.193 95.1884 118.442C94.8071 118.677 94.5724 119.043 94.4844 119.542H91.6024C91.6757 118.75 91.9324 118.068 92.3724 117.496C92.8271 116.909 93.4211 116.455 94.1544 116.132C94.9024 115.809 95.7311 115.648 96.6404 115.648C97.6817 115.648 98.5837 115.824 99.3464 116.176C100.109 116.528 100.696 117.034 101.106 117.694C101.517 118.354 101.722 119.168 101.722 120.136V127H99.2144L98.8844 125.306C98.7231 125.599 98.5324 125.863 98.3124 126.098C98.0924 126.333 97.8357 126.538 97.5424 126.714C97.2491 126.89 96.9191 127.022 96.5524 127.11C96.1857 127.213 95.7824 127.264 95.3424 127.264ZM96.0464 124.976C96.4277 124.976 96.7651 124.91 97.0584 124.778C97.3664 124.631 97.6304 124.441 97.8504 124.206C98.0704 123.957 98.2391 123.678 98.3564 123.37C98.4884 123.047 98.5764 122.703 98.6204 122.336V122.314H96.3544C95.8997 122.314 95.5257 122.373 95.2324 122.49C94.9537 122.593 94.7484 122.747 94.6164 122.952C94.4844 123.157 94.4184 123.392 94.4184 123.656C94.4184 123.949 94.4844 124.191 94.6164 124.382C94.7484 124.573 94.9391 124.719 95.1884 124.822C95.4377 124.925 95.7237 124.976 96.0464 124.976ZM104.493 127V115.912H107.133L107.419 117.958C107.683 117.474 108.013 117.063 108.409 116.726C108.82 116.389 109.282 116.125 109.795 115.934C110.323 115.743 110.902 115.648 111.533 115.648V118.794H110.521C110.081 118.794 109.67 118.845 109.289 118.948C108.922 119.051 108.6 119.219 108.321 119.454C108.042 119.674 107.83 119.982 107.683 120.378C107.536 120.774 107.463 121.273 107.463 121.874V127H104.493ZM118.647 127.264C117.532 127.264 116.542 127.029 115.677 126.56C114.826 126.076 114.159 125.409 113.675 124.558C113.206 123.693 112.971 122.695 112.971 121.566C112.971 120.407 113.206 119.388 113.675 118.508C114.159 117.613 114.826 116.917 115.677 116.418C116.528 115.905 117.518 115.648 118.647 115.648C119.747 115.648 120.708 115.89 121.529 116.374C122.35 116.858 122.988 117.511 123.443 118.332C123.898 119.153 124.125 120.085 124.125 121.126C124.125 121.273 124.125 121.441 124.125 121.632C124.125 121.808 124.11 121.991 124.081 122.182H115.083V120.378H121.133C121.089 119.659 120.832 119.095 120.363 118.684C119.908 118.273 119.336 118.068 118.647 118.068C118.148 118.068 117.686 118.185 117.261 118.42C116.836 118.64 116.498 118.985 116.249 119.454C116.014 119.923 115.897 120.517 115.897 121.236V121.874C115.897 122.475 116.007 123.003 116.227 123.458C116.462 123.898 116.784 124.243 117.195 124.492C117.606 124.727 118.082 124.844 118.625 124.844C119.168 124.844 119.615 124.727 119.967 124.492C120.334 124.257 120.605 123.957 120.781 123.59H123.817C123.612 124.279 123.267 124.903 122.783 125.46C122.299 126.017 121.705 126.457 121.001 126.78C120.297 127.103 119.512 127.264 118.647 127.264ZM136.267 127.264C135.255 127.264 134.375 127.103 133.627 126.78C132.879 126.457 132.293 126.01 131.867 125.438C131.442 124.866 131.2 124.221 131.141 123.502H134.089C134.163 123.781 134.287 124.037 134.463 124.272C134.639 124.492 134.874 124.668 135.167 124.8C135.461 124.932 135.813 124.998 136.223 124.998C136.619 124.998 136.942 124.947 137.191 124.844C137.441 124.727 137.624 124.573 137.741 124.382C137.873 124.191 137.939 123.993 137.939 123.788C137.939 123.48 137.851 123.245 137.675 123.084C137.499 122.908 137.243 122.769 136.905 122.666C136.568 122.563 136.157 122.461 135.673 122.358C135.145 122.255 134.625 122.131 134.111 121.984C133.613 121.823 133.165 121.625 132.769 121.39C132.373 121.155 132.058 120.855 131.823 120.488C131.589 120.121 131.471 119.667 131.471 119.124C131.471 118.464 131.647 117.877 131.999 117.364C132.351 116.836 132.865 116.418 133.539 116.11C134.214 115.802 135.028 115.648 135.981 115.648C137.316 115.648 138.372 115.949 139.149 116.55C139.927 117.151 140.389 117.98 140.535 119.036H137.741C137.653 118.699 137.455 118.435 137.147 118.244C136.854 118.039 136.458 117.936 135.959 117.936C135.431 117.936 135.028 118.031 134.749 118.222C134.471 118.413 134.331 118.662 134.331 118.97C134.331 119.175 134.419 119.359 134.595 119.52C134.786 119.681 135.05 119.821 135.387 119.938C135.725 120.041 136.135 120.143 136.619 120.246C137.47 120.422 138.218 120.627 138.863 120.862C139.509 121.082 140.015 121.405 140.381 121.83C140.748 122.241 140.931 122.842 140.931 123.634C140.931 124.338 140.741 124.969 140.359 125.526C139.978 126.069 139.435 126.494 138.731 126.802C138.042 127.11 137.221 127.264 136.267 127.264ZM148.768 127.264C147.654 127.264 146.664 127.029 145.798 126.56C144.948 126.076 144.28 125.409 143.796 124.558C143.327 123.693 143.092 122.695 143.092 121.566C143.092 120.407 143.327 119.388 143.796 118.508C144.28 117.613 144.948 116.917 145.798 116.418C146.649 115.905 147.639 115.648 148.768 115.648C149.868 115.648 150.829 115.89 151.65 116.374C152.472 116.858 153.11 117.511 153.564 118.332C154.019 119.153 154.246 120.085 154.246 121.126C154.246 121.273 154.246 121.441 154.246 121.632C154.246 121.808 154.232 121.991 154.202 122.182H145.204V120.378H151.254C151.21 119.659 150.954 119.095 150.484 118.684C150.03 118.273 149.458 118.068 148.768 118.068C148.27 118.068 147.808 118.185 147.382 118.42C146.957 118.64 146.62 118.985 146.37 119.454C146.136 119.923 146.018 120.517 146.018 121.236V121.874C146.018 122.475 146.128 123.003 146.348 123.458C146.583 123.898 146.906 124.243 147.316 124.492C147.727 124.727 148.204 124.844 148.746 124.844C149.289 124.844 149.736 124.727 150.088 124.492C150.455 124.257 150.726 123.957 150.902 123.59H153.938C153.733 124.279 153.388 124.903 152.904 125.46C152.42 126.017 151.826 126.457 151.122 126.78C150.418 127.103 149.634 127.264 148.768 127.264ZM160.419 127.264C159.495 127.264 158.732 127.117 158.131 126.824C157.529 126.516 157.082 126.113 156.789 125.614C156.51 125.101 156.371 124.536 156.371 123.92C156.371 123.245 156.539 122.651 156.877 122.138C157.229 121.625 157.749 121.221 158.439 120.928C159.143 120.635 160.023 120.488 161.079 120.488H163.829C163.829 119.945 163.755 119.498 163.609 119.146C163.462 118.779 163.235 118.508 162.927 118.332C162.619 118.156 162.208 118.068 161.695 118.068C161.137 118.068 160.661 118.193 160.265 118.442C159.883 118.677 159.649 119.043 159.561 119.542H156.679C156.752 118.75 157.009 118.068 157.449 117.496C157.903 116.909 158.497 116.455 159.231 116.132C159.979 115.809 160.807 115.648 161.717 115.648C162.758 115.648 163.66 115.824 164.423 116.176C165.185 116.528 165.772 117.034 166.183 117.694C166.593 118.354 166.799 119.168 166.799 120.136V127H164.291L163.961 125.306C163.799 125.599 163.609 125.863 163.389 126.098C163.169 126.333 162.912 126.538 162.619 126.714C162.325 126.89 161.995 127.022 161.629 127.11C161.262 127.213 160.859 127.264 160.419 127.264ZM161.123 124.976C161.504 124.976 161.841 124.91 162.135 124.778C162.443 124.631 162.707 124.441 162.927 124.206C163.147 123.957 163.315 123.678 163.433 123.37C163.565 123.047 163.653 122.703 163.697 122.336V122.314H161.431C160.976 122.314 160.602 122.373 160.309 122.49C160.03 122.593 159.825 122.747 159.693 122.952C159.561 123.157 159.495 123.392 159.495 123.656C159.495 123.949 159.561 124.191 159.693 124.382C159.825 124.573 160.015 124.719 160.265 124.822C160.514 124.925 160.8 124.976 161.123 124.976ZM169.569 127V115.912H172.209L172.495 117.958C172.759 117.474 173.089 117.063 173.485 116.726C173.896 116.389 174.358 116.125 174.871 115.934C175.399 115.743 175.979 115.648 176.609 115.648V118.794H175.597C175.157 118.794 174.747 118.845 174.365 118.948C173.999 119.051 173.676 119.219 173.397 119.454C173.119 119.674 172.906 119.982 172.759 120.378C172.613 120.774 172.539 121.273 172.539 121.874V127H169.569ZM183.767 127.264C182.653 127.264 181.663 127.015 180.797 126.516C179.932 126.017 179.257 125.335 178.773 124.47C178.289 123.605 178.047 122.615 178.047 121.5C178.047 120.356 178.289 119.351 178.773 118.486C179.257 117.606 179.932 116.917 180.797 116.418C181.663 115.905 182.653 115.648 183.767 115.648C185.19 115.648 186.385 116.022 187.353 116.77C188.321 117.518 188.937 118.545 189.201 119.85H186.055C185.923 119.337 185.645 118.933 185.219 118.64C184.809 118.347 184.317 118.2 183.745 118.2C183.232 118.2 182.77 118.332 182.359 118.596C181.963 118.845 181.648 119.219 181.413 119.718C181.193 120.202 181.083 120.781 181.083 121.456C181.083 121.969 181.149 122.431 181.281 122.842C181.413 123.238 181.597 123.583 181.831 123.876C182.066 124.155 182.345 124.367 182.667 124.514C183.005 124.661 183.364 124.734 183.745 124.734C184.127 124.734 184.471 124.668 184.779 124.536C185.102 124.404 185.373 124.221 185.593 123.986C185.813 123.737 185.967 123.436 186.055 123.084H189.201C188.937 124.36 188.314 125.379 187.331 126.142C186.363 126.89 185.175 127.264 183.767 127.264ZM191.763 127V111.16H194.733V117.562C195.099 116.975 195.583 116.513 196.185 116.176C196.801 115.824 197.512 115.648 198.319 115.648C199.243 115.648 200.02 115.846 200.651 116.242C201.281 116.623 201.758 117.181 202.081 117.914C202.403 118.647 202.565 119.557 202.565 120.642V127H199.617V120.906C199.617 120.026 199.433 119.351 199.067 118.882C198.7 118.398 198.121 118.156 197.329 118.156C196.845 118.156 196.405 118.273 196.009 118.508C195.613 118.743 195.297 119.087 195.063 119.542C194.843 119.982 194.733 120.51 194.733 121.126V127H191.763ZM215.864 127.264C214.749 127.264 213.759 127.029 212.894 126.56C212.043 126.076 211.376 125.409 210.892 124.558C210.423 123.693 210.188 122.695 210.188 121.566C210.188 120.407 210.423 119.388 210.892 118.508C211.376 117.613 212.043 116.917 212.894 116.418C213.745 115.905 214.735 115.648 215.864 115.648C216.964 115.648 217.925 115.89 218.746 116.374C219.567 116.858 220.205 117.511 220.66 118.332C221.115 119.153 221.342 120.085 221.342 121.126C221.342 121.273 221.342 121.441 221.342 121.632C221.342 121.808 221.327 121.991 221.298 122.182H212.3V120.378H218.35C218.306 119.659 218.049 119.095 217.58 118.684C217.125 118.273 216.553 118.068 215.864 118.068C215.365 118.068 214.903 118.185 214.478 118.42C214.053 118.64 213.715 118.985 213.466 119.454C213.231 119.923 213.114 120.517 213.114 121.236V121.874C213.114 122.475 213.224 123.003 213.444 123.458C213.679 123.898 214.001 124.243 214.412 124.492C214.823 124.727 215.299 124.844 215.842 124.844C216.385 124.844 216.832 124.727 217.184 124.492C217.551 124.257 217.822 123.957 217.998 123.59H221.034C220.829 124.279 220.484 124.903 220 125.46C219.516 126.017 218.922 126.457 218.218 126.78C217.514 127.103 216.729 127.264 215.864 127.264ZM227.514 127.264C226.59 127.264 225.828 127.117 225.226 126.824C224.625 126.516 224.178 126.113 223.884 125.614C223.606 125.101 223.466 124.536 223.466 123.92C223.466 123.245 223.635 122.651 223.972 122.138C224.324 121.625 224.845 121.221 225.534 120.928C226.238 120.635 227.118 120.488 228.174 120.488H230.924C230.924 119.945 230.851 119.498 230.704 119.146C230.558 118.779 230.33 118.508 230.022 118.332C229.714 118.156 229.304 118.068 228.79 118.068C228.233 118.068 227.756 118.193 227.36 118.442C226.979 118.677 226.744 119.043 226.656 119.542H223.774C223.848 118.75 224.104 118.068 224.544 117.496C224.999 116.909 225.593 116.455 226.326 116.132C227.074 115.809 227.903 115.648 228.812 115.648C229.854 115.648 230.756 115.824 231.518 116.176C232.281 116.528 232.868 117.034 233.278 117.694C233.689 118.354 233.894 119.168 233.894 120.136V127H231.386L231.056 125.306C230.895 125.599 230.704 125.863 230.484 126.098C230.264 126.333 230.008 126.538 229.714 126.714C229.421 126.89 229.091 127.022 228.724 127.11C228.358 127.213 227.954 127.264 227.514 127.264ZM228.218 124.976C228.6 124.976 228.937 124.91 229.23 124.778C229.538 124.631 229.802 124.441 230.022 124.206C230.242 123.957 230.411 123.678 230.528 123.37C230.66 123.047 230.748 122.703 230.792 122.336V122.314H228.526C228.072 122.314 227.698 122.373 227.404 122.49C227.126 122.593 226.92 122.747 226.788 122.952C226.656 123.157 226.59 123.392 226.59 123.656C226.59 123.949 226.656 124.191 226.788 124.382C226.92 124.573 227.111 124.719 227.36 124.822C227.61 124.925 227.896 124.976 228.218 124.976ZM241.439 132.104C240.383 132.104 239.459 131.972 238.667 131.708C237.875 131.459 237.259 131.07 236.819 130.542C236.394 130.029 236.181 129.391 236.181 128.628C236.181 128.115 236.313 127.631 236.577 127.176C236.841 126.721 237.222 126.311 237.721 125.944C238.234 125.563 238.872 125.24 239.635 124.976L240.757 126.428C240.082 126.648 239.591 126.919 239.283 127.242C238.99 127.579 238.843 127.939 238.843 128.32C238.843 128.657 238.953 128.943 239.173 129.178C239.408 129.413 239.716 129.581 240.097 129.684C240.493 129.801 240.933 129.86 241.417 129.86C241.886 129.86 242.29 129.801 242.627 129.684C242.979 129.567 243.25 129.391 243.441 129.156C243.646 128.936 243.749 128.672 243.749 128.364C243.749 127.968 243.61 127.645 243.331 127.396C243.052 127.147 242.495 126.993 241.659 126.934C240.911 126.875 240.244 126.795 239.657 126.692C239.085 126.575 238.579 126.443 238.139 126.296C237.699 126.135 237.325 125.959 237.017 125.768C236.724 125.577 236.482 125.387 236.291 125.196V124.69L238.645 122.16L240.779 122.842L238.007 125.57L238.843 124.118C239.004 124.206 239.158 124.294 239.305 124.382C239.466 124.455 239.664 124.529 239.899 124.602C240.134 124.661 240.442 124.719 240.823 124.778C241.204 124.837 241.688 124.888 242.275 124.932C243.243 125.02 244.035 125.203 244.651 125.482C245.282 125.761 245.744 126.135 246.037 126.604C246.33 127.059 246.477 127.623 246.477 128.298C246.477 128.958 246.294 129.574 245.927 130.146C245.575 130.733 245.025 131.202 244.277 131.554C243.529 131.921 242.583 132.104 241.439 132.104ZM241.439 123.722C240.515 123.722 239.716 123.546 239.041 123.194C238.381 122.827 237.868 122.343 237.501 121.742C237.149 121.126 236.973 120.444 236.973 119.696C236.973 118.948 237.149 118.273 237.501 117.672C237.868 117.056 238.381 116.565 239.041 116.198C239.716 115.831 240.515 115.648 241.439 115.648C242.378 115.648 243.177 115.831 243.837 116.198C244.512 116.565 245.025 117.056 245.377 117.672C245.729 118.273 245.905 118.948 245.905 119.696C245.905 120.444 245.729 121.126 245.377 121.742C245.025 122.343 244.512 122.827 243.837 123.194C243.177 123.546 242.378 123.722 241.439 123.722ZM241.439 121.456C242.011 121.456 242.473 121.309 242.825 121.016C243.177 120.723 243.353 120.29 243.353 119.718C243.353 119.146 243.177 118.713 242.825 118.42C242.473 118.112 242.011 117.958 241.439 117.958C240.882 117.958 240.42 118.112 240.053 118.42C239.701 118.713 239.525 119.146 239.525 119.718C239.525 120.29 239.701 120.723 240.053 121.016C240.42 121.309 240.882 121.456 241.439 121.456ZM243.287 118.024L242.803 115.912H247.357V117.672L243.287 118.024ZM254.665 127.264C253.55 127.264 252.56 127.029 251.695 126.56C250.844 126.076 250.177 125.409 249.693 124.558C249.223 123.693 248.989 122.695 248.989 121.566C248.989 120.407 249.223 119.388 249.693 118.508C250.177 117.613 250.844 116.917 251.695 116.418C252.545 115.905 253.535 115.648 254.665 115.648C255.765 115.648 256.725 115.89 257.547 116.374C258.368 116.858 259.006 117.511 259.461 118.332C259.915 119.153 260.143 120.085 260.143 121.126C260.143 121.273 260.143 121.441 260.143 121.632C260.143 121.808 260.128 121.991 260.099 122.182H251.101V120.378H257.151C257.107 119.659 256.85 119.095 256.381 118.684C255.926 118.273 255.354 118.068 254.665 118.068C254.166 118.068 253.704 118.185 253.279 118.42C252.853 118.64 252.516 118.985 252.267 119.454C252.032 119.923 251.915 120.517 251.915 121.236V121.874C251.915 122.475 252.025 123.003 252.245 123.458C252.479 123.898 252.802 124.243 253.213 124.492C253.623 124.727 254.1 124.844 254.643 124.844C255.185 124.844 255.633 124.727 255.985 124.492C256.351 124.257 256.623 123.957 256.799 123.59H259.835C259.629 124.279 259.285 124.903 258.801 125.46C258.317 126.017 257.723 126.457 257.019 126.78C256.315 127.103 255.53 127.264 254.665 127.264ZM262.575 127V115.912H265.215L265.501 117.958C265.765 117.474 266.095 117.063 266.491 116.726C266.902 116.389 267.364 116.125 267.877 115.934C268.405 115.743 268.984 115.648 269.615 115.648V118.794H268.603C268.163 118.794 267.752 118.845 267.371 118.948C267.004 119.051 266.682 119.219 266.403 119.454C266.124 119.674 265.912 119.982 265.765 120.378C265.618 120.774 265.545 121.273 265.545 121.874V127H262.575ZM283.311 127.264C282.739 127.264 282.225 127.191 281.771 127.044C281.331 126.897 280.935 126.699 280.583 126.45C280.245 126.186 279.959 125.893 279.725 125.57L279.395 127H276.755V111.16H279.725V117.452C280.077 116.939 280.539 116.513 281.111 116.176C281.697 115.824 282.423 115.648 283.289 115.648C284.315 115.648 285.225 115.905 286.017 116.418C286.823 116.917 287.454 117.606 287.909 118.486C288.378 119.351 288.613 120.349 288.613 121.478C288.613 122.578 288.378 123.568 287.909 124.448C287.454 125.328 286.831 126.017 286.039 126.516C285.247 127.015 284.337 127.264 283.311 127.264ZM282.607 124.668C283.193 124.668 283.707 124.536 284.147 124.272C284.601 123.993 284.953 123.619 285.203 123.15C285.452 122.666 285.577 122.109 285.577 121.478C285.577 120.847 285.452 120.29 285.203 119.806C284.953 119.307 284.601 118.926 284.147 118.662C283.707 118.383 283.193 118.244 282.607 118.244C282.035 118.244 281.521 118.383 281.067 118.662C280.627 118.926 280.275 119.3 280.011 119.784C279.761 120.268 279.637 120.825 279.637 121.456C279.637 122.087 279.761 122.651 280.011 123.15C280.275 123.634 280.627 124.008 281.067 124.272C281.521 124.536 282.035 124.668 282.607 124.668ZM296.495 127.264C295.38 127.264 294.39 127.029 293.525 126.56C292.674 126.076 292.007 125.409 291.523 124.558C291.053 123.693 290.819 122.695 290.819 121.566C290.819 120.407 291.053 119.388 291.523 118.508C292.007 117.613 292.674 116.917 293.525 116.418C294.375 115.905 295.365 115.648 296.495 115.648C297.595 115.648 298.555 115.89 299.377 116.374C300.198 116.858 300.836 117.511 301.291 118.332C301.745 119.153 301.973 120.085 301.973 121.126C301.973 121.273 301.973 121.441 301.973 121.632C301.973 121.808 301.958 121.991 301.929 122.182H292.931V120.378H298.981C298.937 119.659 298.68 119.095 298.211 118.684C297.756 118.273 297.184 118.068 296.495 118.068C295.996 118.068 295.534 118.185 295.109 118.42C294.683 118.64 294.346 118.985 294.097 119.454C293.862 119.923 293.745 120.517 293.745 121.236V121.874C293.745 122.475 293.855 123.003 294.075 123.458C294.309 123.898 294.632 124.243 295.043 124.492C295.453 124.727 295.93 124.844 296.473 124.844C297.015 124.844 297.463 124.727 297.815 124.492C298.181 124.257 298.453 123.957 298.629 123.59H301.665C301.459 124.279 301.115 124.903 300.631 125.46C300.147 126.017 299.553 126.457 298.849 126.78C298.145 127.103 297.36 127.264 296.495 127.264ZM308.145 127.264C307.221 127.264 306.458 127.117 305.857 126.824C305.256 126.516 304.808 126.113 304.515 125.614C304.236 125.101 304.097 124.536 304.097 123.92C304.097 123.245 304.266 122.651 304.603 122.138C304.955 121.625 305.476 121.221 306.165 120.928C306.869 120.635 307.749 120.488 308.805 120.488H311.555C311.555 119.945 311.482 119.498 311.335 119.146C311.188 118.779 310.961 118.508 310.653 118.332C310.345 118.156 309.934 118.068 309.421 118.068C308.864 118.068 308.387 118.193 307.991 118.442C307.61 118.677 307.375 119.043 307.287 119.542H304.405C304.478 118.75 304.735 118.068 305.175 117.496C305.63 116.909 306.224 116.455 306.957 116.132C307.705 115.809 308.534 115.648 309.443 115.648C310.484 115.648 311.386 115.824 312.149 116.176C312.912 116.528 313.498 117.034 313.909 117.694C314.32 118.354 314.525 119.168 314.525 120.136V127H312.017L311.687 125.306C311.526 125.599 311.335 125.863 311.115 126.098C310.895 126.333 310.638 126.538 310.345 126.714C310.052 126.89 309.722 127.022 309.355 127.11C308.988 127.213 308.585 127.264 308.145 127.264ZM308.849 124.976C309.23 124.976 309.568 124.91 309.861 124.778C310.169 124.631 310.433 124.441 310.653 124.206C310.873 123.957 311.042 123.678 311.159 123.37C311.291 123.047 311.379 122.703 311.423 122.336V122.314H309.157C308.702 122.314 308.328 122.373 308.035 122.49C307.756 122.593 307.551 122.747 307.419 122.952C307.287 123.157 307.221 123.392 307.221 123.656C307.221 123.949 307.287 124.191 307.419 124.382C307.551 124.573 307.742 124.719 307.991 124.822C308.24 124.925 308.526 124.976 308.849 124.976ZM319.943 127L315.873 115.912H318.997L321.747 124.206L324.497 115.912H327.599L323.551 127H319.943ZM334.221 127.264C333.107 127.264 332.117 127.029 331.251 126.56C330.401 126.076 329.733 125.409 329.249 124.558C328.78 123.693 328.545 122.695 328.545 121.566C328.545 120.407 328.78 119.388 329.249 118.508C329.733 117.613 330.401 116.917 331.251 116.418C332.102 115.905 333.092 115.648 334.221 115.648C335.321 115.648 336.282 115.89 337.103 116.374C337.925 116.858 338.563 117.511 339.017 118.332C339.472 119.153 339.699 120.085 339.699 121.126C339.699 121.273 339.699 121.441 339.699 121.632C339.699 121.808 339.685 121.991 339.655 122.182H330.657V120.378H336.707C336.663 119.659 336.407 119.095 335.937 118.684C335.483 118.273 334.911 118.068 334.221 118.068C333.723 118.068 333.261 118.185 332.835 118.42C332.41 118.64 332.073 118.985 331.823 119.454C331.589 119.923 331.471 120.517 331.471 121.236V121.874C331.471 122.475 331.581 123.003 331.801 123.458C332.036 123.898 332.359 124.243 332.769 124.492C333.18 124.727 333.657 124.844 334.199 124.844C334.742 124.844 335.189 124.727 335.541 124.492C335.908 124.257 336.179 123.957 336.355 123.59H339.391C339.186 124.279 338.841 124.903 338.357 125.46C337.873 126.017 337.279 126.457 336.575 126.78C335.871 127.103 335.087 127.264 334.221 127.264ZM342.132 127V115.912H344.772L345.058 117.958C345.322 117.474 345.652 117.063 346.048 116.726C346.458 116.389 346.92 116.125 347.434 115.934C347.962 115.743 348.541 115.648 349.172 115.648V118.794H348.16C347.72 118.794 347.309 118.845 346.928 118.948C346.561 119.051 346.238 119.219 345.96 119.454C345.681 119.674 345.468 119.982 345.322 120.378C345.175 120.774 345.102 121.273 345.102 121.874V127H342.132ZM351.816 121.984L351.486 111.6H354.676L354.346 121.984H351.816ZM353.092 127.11C352.549 127.11 352.102 126.949 351.75 126.626C351.412 126.289 351.244 125.878 351.244 125.394C351.244 124.91 351.412 124.507 351.75 124.184C352.102 123.847 352.549 123.678 353.092 123.678C353.634 123.678 354.074 123.847 354.412 124.184C354.749 124.507 354.918 124.91 354.918 125.394C354.918 125.878 354.749 126.289 354.412 126.626C354.074 126.949 353.634 127.11 353.092 127.11Z" fill="black"/>
</svg>
