<svg width="400" height="720" viewBox="0 0 400 720" fill="none" xmlns="http://www.w3.org/2000/svg">
<path d="M400 693H229.981C226.085 684.714 221.778 675.592 217.232 665.994C215.761 662.919 214.31 659.797 212.903 656.641C212.709 656.269 212.536 655.875 212.341 655.48C211.446 653.623 210.559 651.755 209.678 649.875C208.791 647.995 207.904 646.091 206.994 644.188C206.085 642.285 205.176 640.358 204.267 638.443C203.358 636.529 202.492 634.672 201.583 632.78L191.778 612.076C190.804 609.999 189.809 607.91 188.813 605.833C186.374 600.68 183.943 595.554 181.519 590.456C180.913 589.191 180.328 587.914 179.701 586.649C177.897 582.842 176.115 579.075 174.354 575.345C173.748 574.115 173.185 572.873 172.601 571.643C171.67 569.67 170.718 567.721 169.809 565.783C168.51 563.013 167.212 560.274 165.913 557.566C165.48 556.661 165.047 555.767 164.636 554.874C163.878 553.295 163.164 551.729 162.471 550.232C162.471 550.034 162.277 549.825 162.19 549.628C161.735 548.688 161.303 547.748 160.848 546.82C159.658 544.313 158.467 541.841 157.342 539.415L156.173 536.943C153.792 532.011 151.562 527.299 149.463 522.866C149.138 522.181 148.835 521.497 148.511 520.824C148.381 520.568 148.251 520.301 148.143 520.046C147.234 518.178 146.368 516.344 145.545 514.58C145.221 513.907 144.896 513.269 144.615 512.619C144.615 512.514 144.615 512.433 144.463 512.34C144.073 511.493 143.684 510.657 143.294 509.845C142.905 509.033 142.602 508.406 142.277 507.71C141.454 506.027 140.719 504.414 139.983 502.882C139.658 502.186 139.333 501.524 139.03 500.863C138.835 500.526 138.684 500.166 138.511 499.83C138.208 499.168 137.905 498.518 137.602 497.892C137.299 497.265 137.017 496.661 136.736 496.058C135.762 494.004 134.874 492.182 134.139 490.603L133.251 488.747C132.775 487.725 132.342 486.855 132.017 486.147C132.017 485.95 131.844 485.752 131.758 485.578C131.671 485.404 131.52 485.103 131.433 484.905C131.346 484.708 131.281 484.615 131.216 484.487C131.065 484.174 131 484 131 484H290.175C290.175 484 363.291 618.97 400 693Z" fill="#263238"/>
<path d="M256 693H251.393C249.046 688.486 246.706 683.976 244.373 679.469C238.491 668.124 232.609 656.776 226.727 645.425L215.47 623.716C212.312 617.606 209.161 611.496 206.017 605.387C193.173 580.35 180.33 555.271 168.725 530.077C168.008 528.555 167.291 527.022 166.552 525.5C166.008 524.387 165.509 523.264 165.009 522.151C164.991 522.121 165 522.088 165.033 522.06C165.065 522.033 165.119 522.013 165.183 522.004C165.246 521.996 165.314 522 165.371 522.016C165.428 522.032 165.47 522.058 165.487 522.088C166.008 523.002 166.552 523.904 167.073 524.818C167.877 526.193 168.681 527.578 169.442 528.964C182.242 551.198 194.086 573.59 205.712 595.97C209.146 602.577 212.58 609.187 216.013 615.8C220.244 623.968 224.474 632.145 228.705 640.333C233.862 650.25 239.006 660.146 244.134 670.021C248.061 677.642 252.016 685.302 256 693Z" fill="#37474F"/>
<path d="M131 484C131 484 181.779 616.042 217.274 709L285 484H131Z" fill="#37474F"/>
<path d="M285 484.035C285 484.603 284.848 489.047 284.327 495.636C284.241 496.796 284.132 498.026 284.002 499.325C282.332 517.366 277.928 546.393 266.647 557.971C266.191 558.446 265.714 558.887 265.215 559.305C265.119 559.402 265.011 559.495 264.89 559.583C264.89 559.583 263.501 559.85 260.898 560.419H260.746C259.466 560.697 257.926 561.045 256.104 561.474C249.791 562.936 240.267 565.338 228.422 568.865C225.269 569.793 221.979 570.81 218.551 571.916C218.551 571.916 217.51 586.754 216.057 607.718C215.84 610.525 215.644 613.449 215.428 616.465C214.56 628.844 213.605 642.731 212.651 656.653C211.805 669.078 210.959 681.549 210.199 693H45C49.3388 660.644 55.4131 617.521 61.162 577.832C61.162 577.832 46.1498 555.36 47.8203 544.014C51.8336 516.519 74.8942 484 74.8942 484L285 484.035Z" fill="#263238"/>
<path d="M233.219 591.396C233.847 587.174 234.496 582.952 235.124 578.73C236.315 571.001 237.896 563.336 239.238 555.628C242.313 538.177 245.517 520.639 249.393 503.34C249.422 503.254 249.481 503.181 249.558 503.134C249.635 503.087 249.727 503.068 249.816 503.081C249.906 503.094 249.988 503.137 250.049 503.204C250.11 503.271 250.146 503.358 250.15 503.448C249.458 510.441 248.657 517.435 247.682 524.385C246.708 531.335 245.993 538.35 245.019 545.3C243.07 559.092 241.143 572.906 238.805 586.655C237.896 591.938 234.475 601.421 242.204 603.067C248.245 604.366 252.662 598.433 254.437 593.475C256.305 587.244 257.666 580.872 258.508 574.422C259.742 567.45 260.825 560.456 261.821 553.463C263.986 538.307 266.346 522.999 268.814 507.8C268.814 507.367 269.593 507.497 269.572 507.93C269.237 523.552 268.109 539.146 266.194 554.654C265.227 562.087 264.116 569.492 262.86 576.868C261.669 583.775 260.803 591.18 257.75 597.567C255.347 602.569 250.887 607.072 245.149 607.678H244.781C244.853 607.725 244.913 607.789 244.955 607.865C244.996 607.94 245.018 608.025 245.019 608.111C245.019 610.58 245.019 613.091 244.716 615.538C244.413 617.984 243.958 620.431 243.503 622.834C243.049 625.294 242.42 627.718 241.62 630.088C241.208 631.214 240.797 632.253 240.277 633.422C239.682 634.485 239.024 635.511 238.307 636.496C238.047 636.929 237.528 636.648 237.506 636.237C237.528 635.833 237.528 635.428 237.506 635.024C237.517 634.952 237.517 634.879 237.506 634.808C237.514 634.084 237.565 633.361 237.658 632.642C237.831 631.452 238.091 630.282 238.35 629.113C238.87 626.753 239.52 624.415 240.147 622.098C240.775 619.782 241.273 617.421 241.88 615.083C242.486 612.745 243.287 610.341 243.85 607.916C243.874 607.829 243.927 607.752 244.001 607.7C241.761 607.802 239.544 607.218 237.644 606.027C235.745 604.835 234.254 603.092 233.371 601.031C232.501 597.885 232.449 594.569 233.219 591.396Z" fill="#37474F"/>
<path d="M205.05 651.934C210.066 648.076 215.355 644.589 220.877 641.498C226.68 637.98 232.713 634.855 238.934 632.144C251.124 626.84 263.682 623.224 276.261 619.154C276.629 619.045 276.889 619.673 276.521 619.803C264.331 624.653 252.705 631.084 240.904 636.843C235.102 639.679 229.256 642.364 223.345 644.984C217.434 647.604 211.567 650.635 205.504 652.843C205.384 652.904 205.244 652.914 205.116 652.871C204.988 652.828 204.883 652.737 204.822 652.616C204.762 652.495 204.752 652.356 204.795 652.228C204.837 652.1 204.929 651.994 205.05 651.934Z" fill="#37474F"/>
<path d="M109.956 557.836C118.617 557.836 148.171 555.671 156.94 545.842C161.817 540.006 165.542 533.298 167.917 526.074C170.653 518.194 172.873 510.144 174.564 501.976C174.564 501.564 175.235 501.694 175.257 501.976C175.45 511.183 174.282 520.368 171.793 529.235C169.736 536.748 166.943 545.149 160.967 550.432C154.991 555.715 145.811 557.923 137.713 558.919C128.513 559.999 119.211 559.875 110.043 558.551C109.983 558.515 109.932 558.467 109.894 558.408C109.856 558.35 109.832 558.284 109.824 558.215C109.815 558.146 109.823 558.076 109.846 558.01C109.869 557.945 109.906 557.885 109.956 557.836Z" fill="#37474F"/>
<path d="M304.04 558.269C301.398 558.269 293.625 552.813 292.694 551.406C286.199 541.641 284.662 510.636 284.034 502.495C284.034 502.084 283.839 502.214 283.839 502.603C283.839 511.74 284.142 521.05 284.9 529.863C285.528 537.376 286.394 545.776 288.278 551.059C290.161 556.342 301.139 560.435 303.975 559.179C304.235 559.092 304.235 558.269 304.04 558.269Z" fill="#37474F"/>
<path d="M98 497.036C97.77 497.453 77.6377 538.324 78.5993 548.249C79.561 558.174 90.2648 578.103 90.3066 578.272C90.3484 578.441 84.7666 629.913 77.9512 693H74L86.3554 578.542C85.8955 577.055 75.547 558.084 74.6481 548.395C73.6655 538.144 93.3171 498.219 94.1533 496.518C94.3926 496.317 94.7439 496.162 95.1567 496.076C95.5695 495.99 96.0223 495.977 96.45 496.038C96.8778 496.099 97.2583 496.232 97.5369 496.418C97.8154 496.603 97.9776 496.831 98 497.07V497.036Z" fill="#37474F"/>
<path d="M65.3772 503.989H298.542L277.389 433.514C277.389 433.514 289.102 410.801 287.868 393.935C285.27 358.751 224.58 276.476 219.752 272.167C200.266 254.846 174.89 254.499 160.232 267.837C114.959 308.974 92.2034 438.883 92.2034 438.883C76.0081 460.6 65.3772 503.989 65.3772 503.989Z" fill="#EBEBEB"/>
<path d="M207.973 420.782C218.211 420.209 228.481 420.651 238.632 422.103C243.741 422.904 248.808 424.03 253.917 425.307C256.451 425.935 258.984 426.455 261.517 426.953C264.117 427.576 266.8 427.773 269.463 427.538C269.701 427.538 269.766 427.971 269.463 428.036C267.055 428.626 264.598 429.003 262.123 429.161C259.68 429.185 257.24 429.004 254.827 428.62C249.652 427.841 244.477 426.78 239.281 425.935C228.845 424.268 218.409 422.579 207.973 421.908C207.583 421.865 207.497 420.804 207.973 420.782Z" fill="#263238"/>
<path d="M185.693 437.151C193.623 434.521 201.745 432.509 209.986 431.132C214.117 430.488 218.281 430.083 222.457 429.92C224.449 429.92 226.463 429.79 228.455 429.768C230.447 429.747 232.915 430.158 235.124 430.093C235.362 430.093 235.448 430.569 235.124 430.569C232.958 430.721 231.031 431.305 228.975 431.609L222.804 432.496C218.69 433.103 214.576 433.752 210.441 434.293C202.17 435.398 193.964 436.588 185.758 438.082C185.39 438.169 185.282 437.281 185.693 437.151Z" fill="#263238"/>
<path d="M169.715 269.179C170.884 273.639 192.99 302.241 213.472 300.768C220.141 300.292 219.102 263.809 219.102 263.809L219.643 261.081L227.156 223.104L182.1 195.715L175.604 192.121C175.604 192.121 174.218 202.644 172.638 215.765C172.638 216.371 172.486 216.977 172.421 217.627C172.356 218.276 172.205 219.077 172.14 219.792C171.88 221.74 171.62 223.732 171.404 225.746C171.23 227.261 171.057 228.734 170.927 230.336C170.797 231.938 170.646 233.497 170.494 235.099C169.457 246.428 169.196 257.814 169.715 269.179Z" fill="#D3766A"/>
<path d="M172.638 215.744C176.714 226.256 183.03 235.756 191.147 243.581C199.264 251.407 208.988 257.371 219.643 261.06L227.156 223.083L182.1 195.694L175.604 192.1C175.604 192.1 174.218 202.623 172.638 215.744Z" fill="#263238"/>
<path d="M276.695 162.784C286.503 229.903 247.336 243.479 232.829 245.579C219.665 247.484 174.608 252.291 157.915 186.427C141.222 120.563 169.39 94.7549 199.269 88.8007C229.148 82.8465 266.909 95.5343 276.695 162.784Z" fill="#D3766A"/>
<path d="M261.95 145.592C260.304 145.592 258.789 145.202 257.187 144.986C255.481 145.005 253.815 144.465 252.445 143.449C252.078 143.044 251.855 142.529 251.812 141.984C251.769 141.44 251.908 140.896 252.207 140.439C252.932 139.622 253.862 139.012 254.901 138.673C255.94 138.335 257.05 138.279 258.118 138.512C260.349 138.666 262.446 139.637 264.007 141.24C264.336 141.627 264.546 142.101 264.613 142.605C264.68 143.108 264.6 143.62 264.382 144.08C264.165 144.539 263.82 144.926 263.389 145.194C262.958 145.462 262.458 145.601 261.95 145.592Z" fill="#263238"/>
<path d="M216.309 158.388C217.911 158.063 219.34 157.501 220.899 157.024C222.591 156.772 224.153 155.964 225.337 154.729C225.637 154.271 225.774 153.725 225.727 153.179C225.68 152.634 225.451 152.12 225.077 151.72C224.235 151.025 223.221 150.572 222.142 150.408C221.063 150.244 219.96 150.376 218.95 150.789C216.771 151.281 214.856 152.571 213.581 154.404C213.312 154.839 213.176 155.343 213.188 155.854C213.201 156.365 213.361 156.861 213.65 157.283C213.938 157.705 214.343 158.034 214.815 158.23C215.287 158.426 215.806 158.481 216.309 158.388Z" fill="#263238"/>
<path d="M233.867 210.135C235.037 211.218 236.228 212.69 237.938 212.777C239.696 212.662 241.413 212.19 242.983 211.391C243.015 211.379 243.051 211.377 243.084 211.385C243.118 211.393 243.148 211.411 243.172 211.437C243.195 211.462 243.21 211.494 243.215 211.529C243.22 211.563 243.214 211.598 243.199 211.629C242.549 212.576 241.659 213.333 240.621 213.823C239.582 214.314 238.433 214.521 237.288 214.422C236.313 214.209 235.424 213.71 234.733 212.988C234.043 212.267 233.583 211.357 233.413 210.373C233.326 210.113 233.694 209.984 233.867 210.135Z" fill="#263238"/>
<path d="M251.86 189.544C251.86 189.544 253.679 197.577 254.026 200.89C254.026 201.193 242.572 202.86 235.968 196.105C235.708 195.823 236.098 195.412 236.423 195.585C240.873 198.186 246.047 199.272 251.168 198.681C251.319 197.75 248.006 186.556 248.526 186.47C251.127 186.455 253.719 186.782 256.234 187.444C253.224 172.894 247.92 158.929 245.148 144.401C245.148 143.881 245.798 143.643 245.993 144.098C252.597 158.345 256.407 175.016 259.915 189.956C260.24 191.818 253.246 189.977 251.86 189.544Z" fill="#263238"/>
<path d="M254.762 166.205C254.762 166.032 255.152 166.4 255.152 166.595C255.498 171.315 256.689 176.662 261.106 177.767C261.236 177.767 261.258 178.048 261.106 178.048C255.91 177.853 254.329 170.708 254.762 166.205Z" fill="#263238"/>
<path d="M258.442 160.857C265.955 159.493 268.12 174.606 261.17 175.861C254.22 177.117 252.142 162.048 258.442 160.857Z" fill="#263238"/>
<path d="M261.517 161.225C262.968 161.896 264.484 163.217 266.086 163.152C267.688 163.087 269.117 161.269 270.113 159.58C270.221 159.407 270.351 159.58 270.394 159.71C270.849 162.611 270.156 165.75 267.125 166.616C264.094 167.483 261.95 165.144 260.803 162.286C260.586 161.831 260.954 160.965 261.517 161.225Z" fill="#263238"/>
<path d="M228.303 170.968C228.303 170.795 227.978 171.249 228 171.444C228.866 176.099 229.061 181.577 225.077 183.764C224.947 183.764 225.077 184.067 225.077 184.024C230.209 182.508 229.927 175.255 228.303 170.968Z" fill="#263238"/>
<path d="M223.433 166.724C215.811 167.287 217.522 182.465 224.58 181.88C231.639 181.295 229.755 166.248 223.433 166.724Z" fill="#263238"/>
<path d="M220.336 168.066C219.232 169.019 218.171 170.6 216.785 170.859C215.4 171.119 213.711 169.647 212.455 168.196C212.325 168.045 212.217 168.196 212.239 168.391C212.498 171.292 213.798 174.215 216.569 174.454C219.34 174.692 220.769 171.985 221.116 169.019C221.267 168.543 220.769 167.698 220.336 168.066Z" fill="#263238"/>
<path d="M163.869 201.908C167.767 198.884 170.814 194.9 172.711 190.346C174.609 185.792 175.292 180.824 174.695 175.926C185.421 168.177 193.894 157.716 199.248 145.614C199.096 147.108 197.97 157.869 197.234 163.347C238.372 146.134 244.694 110.431 244.694 110.431C261.604 121.256 267.06 130.393 270.026 134.377C270.026 134.377 263.921 107.248 246.6 92.5031C225.403 74.4458 203.665 83.3878 203.665 83.3878C192.485 83.0867 181.431 85.8106 171.671 91.2718C161.911 96.733 153.807 104.729 148.215 114.414C126.845 150.681 163.869 201.908 163.869 201.908Z" fill="#263238"/>
<path d="M228.261 149.251C222.169 154.498 215.332 158.81 207.973 162.047C207.973 162.047 207.865 162.047 207.973 162.047C219.345 156.108 228.832 147.109 235.362 136.066C238.137 131.381 240.319 126.37 241.858 121.148C243.738 115.482 244.474 109.498 244.023 103.545C244.023 103.453 244.059 103.365 244.124 103.3C244.189 103.235 244.278 103.199 244.369 103.199C244.461 103.199 244.549 103.235 244.614 103.3C244.679 103.365 244.716 103.453 244.716 103.545C245.761 109.375 245.835 115.337 244.932 121.191C243.773 126.961 241.571 132.471 238.437 137.451C235.606 141.842 232.173 145.814 228.239 149.251" fill="#263238"/>
<path d="M179.826 186.232C179.826 186.232 163.782 165.923 154.494 171.748C145.205 177.572 158.11 207.646 169.65 211.175C171.096 211.732 172.639 211.99 174.188 211.935C175.736 211.879 177.258 211.51 178.66 210.85C180.062 210.191 181.316 209.254 182.346 208.097C183.376 206.94 184.161 205.586 184.654 204.117L179.826 186.232Z" fill="#D3766A"/>
<path d="M158.477 180.278C158.437 180.278 158.398 180.294 158.37 180.322C158.342 180.351 158.326 180.389 158.326 180.429C158.326 180.47 158.342 180.508 158.37 180.537C158.398 180.565 158.437 180.581 158.477 180.581C166.575 183.331 171.165 190.411 174.521 197.902C171.988 195.131 168.697 193.702 164.929 196.733C164.735 196.885 164.929 197.209 165.189 197.144C166.553 196.621 168.045 196.534 169.461 196.894C170.876 197.255 172.145 198.046 173.092 199.158C174.662 201.027 176.027 203.06 177.162 205.22C177.574 205.892 178.83 205.458 178.527 204.657V204.463C177.964 194.308 169.303 180.668 158.477 180.278Z" fill="#263238"/>
<path d="M171.901 98.5652C164.128 109.889 105.669 136.997 75.5955 87.0466C45.9763 37.8544 108.917 -25.0215 157.871 10.3137C190.587 34.0437 188.4 74.5537 171.901 98.5652Z" fill="#263238"/>
<path d="M169.468 261.273C159.995 279.125 156.664 334.668 160.99 379.309C165.315 423.95 184.479 560.433 184.998 588.686C185.518 616.939 51.2405 715.602 23.2517 708.65C-4.73715 701.698 -16.2225 630.787 39.8633 471.558C54.6147 429.697 99.6477 325.454 137.024 283.538C160.816 256.86 169.468 261.273 169.468 261.273Z" fill="#FFC727"/>
<path opacity="0.6" d="M169.468 261.273C159.995 279.125 156.664 334.668 160.99 379.309C165.315 423.95 184.479 560.433 184.998 588.686C185.518 616.939 51.2405 715.602 23.2517 708.65C-4.73715 701.698 -16.2225 630.787 39.8633 471.558C54.6147 429.697 99.6477 325.454 137.024 283.538C160.816 256.86 169.468 261.273 169.468 261.273Z" fill="white"/>
<g opacity="0.1">
<path d="M158.347 533.306C151.397 537.982 144.447 542.832 137.865 548.007C131.716 552.814 125.589 557.642 119.201 562.146C112.999 566.601 106.487 570.61 99.715 574.14C92.783 577.65 85.4561 580.318 77.8903 582.087C77.6305 582.087 77.5872 582.585 77.8903 582.606C102.486 582.953 124.289 566.021 141.892 550.692C147.846 545.517 153.627 540.039 159.213 534.475C159.368 534.36 159.471 534.188 159.5 533.998C159.528 533.807 159.48 533.612 159.365 533.457C159.25 533.302 159.078 533.199 158.887 533.171C158.697 533.142 158.502 533.191 158.347 533.306Z" fill="black"/>
<path d="M157.72 543.633C149.729 552.547 140.881 560.655 131.305 567.84C121.749 574.705 111.414 580.418 100.517 584.858C94.1833 587.442 87.7229 589.704 81.1606 591.635C81.0744 591.635 80.9918 591.669 80.9309 591.73C80.87 591.791 80.8358 591.873 80.8358 591.96C80.8358 592.046 80.87 592.128 80.9309 592.189C80.9918 592.25 81.0744 592.284 81.1606 592.284C105.41 590.357 128.794 577.864 145.4 560.392C150.273 555.445 154.519 549.918 158.045 543.937C158.326 543.633 157.958 543.395 157.72 543.633Z" fill="black"/>
<path d="M156.962 556.797C156.282 574.163 154.619 591.475 151.983 608.653C151.008 614.424 148.895 619.943 145.769 624.891C139.425 633.898 128.339 640.199 118.076 643.685C108.463 646.932 96.4248 648.015 87.7642 641.368C82.6328 637.362 81.9183 630.542 81.0306 624.566C79.8911 617.123 79.3337 609.601 79.3634 602.071C79.3634 601.746 78.8654 601.681 78.8438 602.071C78.4757 608.891 78.2592 615.733 78.4974 622.575C78.7139 628.702 78.6489 635.565 82.0266 640.935C88.0673 650.548 100.777 652.475 111.169 650.851C117.605 649.735 123.805 647.539 129.508 644.356C134.963 641.527 139.98 637.924 144.404 633.66C148.447 629.245 151.614 624.102 153.736 618.504C157.417 609.995 159.561 572.841 157.33 556.949C157.33 556.581 156.984 556.537 156.962 556.797Z" fill="black"/>
</g>
<path d="M143.321 269.352C122.038 290.549 75.1842 335.908 55.3514 469.736L67.6928 474.305C67.6928 474.305 86.3997 351.238 158.997 263.094C158.91 263.094 146.201 266.407 143.321 269.352Z" fill="#FFC727"/>
<g opacity="0.5">
<path d="M143.322 269.352C122.039 290.549 75.1852 335.908 55.3524 469.736L67.6938 474.305C67.6938 474.305 86.4006 351.238 158.998 263.094C158.911 263.094 146.202 266.407 143.322 269.352Z" fill="black"/>
</g>
<path d="M172.789 264.957C172.789 264.957 213.061 346.323 212.953 481.602L199.962 484.308C199.962 484.308 190.674 331.643 158.824 263.095C160.622 262.338 162.484 261.744 164.389 261.319C171.62 260.627 172.789 264.957 172.789 264.957Z" fill="#FFC727"/>
<g opacity="0.5">
<path d="M172.789 264.957C172.789 264.957 213.061 346.323 212.953 481.602L199.962 484.308C199.962 484.308 190.674 331.643 158.824 263.095C160.622 262.338 162.484 261.744 164.389 261.319C171.62 260.627 172.789 264.957 172.789 264.957Z" fill="black"/>
</g>
<path d="M214.327 476.464C226.621 474.601 255.611 678.516 236.845 701.913C222.221 720.181 82.0181 735.585 12.5205 690.595C-13.4925 673.749 46.2987 475.603 52.6618 468.131C59.0248 460.66 104.472 493.27 214.327 476.464Z" fill="#FFC727"/>
<path opacity="0.5" d="M214.327 476.464C226.621 474.601 255.611 678.516 236.845 701.913C222.221 720.181 82.0181 735.585 12.5205 690.595C-13.4925 673.749 46.2987 475.603 52.6618 468.131C59.0248 460.66 104.472 493.27 214.327 476.464Z" fill="black"/>
<g opacity="0.1">
<path d="M168.351 678.825C178.845 676.918 189.237 674.482 199.486 671.529C200.194 662.495 200.295 653.425 199.789 644.378C199.789 644.248 200.005 644.226 200.005 644.378C200.914 653.225 201.326 662.116 201.239 671.009C204.812 669.927 208.363 668.844 211.914 667.437C212.764 654.218 212.533 640.952 211.221 627.771C211.221 627.403 211.762 627.273 211.805 627.641C213.368 640.549 214.271 653.528 214.512 666.527C218.842 664.882 222.978 663.085 227.221 661.049C227.248 661.031 227.279 661.019 227.311 661.013C227.343 661.007 227.376 661.008 227.408 661.015C227.439 661.023 227.469 661.037 227.495 661.056C227.521 661.075 227.543 661.1 227.56 661.128C227.576 661.156 227.586 661.188 227.59 661.22C227.594 661.252 227.591 661.285 227.582 661.316C227.572 661.347 227.557 661.376 227.536 661.401C227.514 661.426 227.489 661.446 227.459 661.461C223.272 664.139 218.935 666.576 214.468 668.757C214.468 674.365 214.209 679.973 213.711 685.559C218.279 683.805 222.826 681.835 227.373 679.605C227.456 679.562 227.553 679.553 227.642 679.582C227.732 679.61 227.806 679.673 227.849 679.756C227.892 679.84 227.9 679.936 227.872 680.026C227.844 680.115 227.781 680.19 227.698 680.233C223.125 682.934 218.388 685.35 213.516 687.464C212.984 693.001 212.131 698.503 210.961 703.941C210.744 704.959 209.099 704.634 209.164 703.616L210.398 688.763C206.876 690.207 203.268 691.463 199.572 692.531C198.454 701.665 196.46 710.67 193.618 719.422C193.272 720.504 191.756 719.941 191.994 718.88C193.856 710.35 195.48 701.841 196.801 693.332C189.145 695.427 181.281 696.669 173.352 697.034C172.681 697.034 172.595 695.952 173.352 695.843C181.378 694.641 189.33 692.986 197.169 690.885C197.948 685.602 198.641 680.298 199.118 674.993C189.205 678.343 178.814 680.061 168.351 680.081C168.184 680.081 168.025 680.015 167.907 679.897C167.789 679.779 167.723 679.62 167.723 679.453C167.723 679.287 167.789 679.127 167.907 679.009C168.025 678.891 168.184 678.825 168.351 678.825ZM210.593 686.62C211.026 681.034 211.459 675.469 211.784 669.905C208.319 671.493 204.783 672.936 201.175 674.235C201.023 679.561 200.568 684.844 199.962 690.127C203.535 689.045 207.064 687.876 210.593 686.62Z" fill="black"/>
<path d="M30.2363 569.095C33.0077 569.896 35.7574 570.654 38.5072 571.26C39.3155 567.291 40.1527 563.329 41.0188 559.374C38.479 558.712 36.0071 557.813 33.6356 556.689C33.0727 556.408 33.6356 555.542 34.0903 555.715C36.5369 556.516 38.9619 557.165 41.3869 557.728C43.1623 549.717 45.0459 541.706 46.8213 533.738C46.8213 533.37 47.4709 533.544 47.3843 533.933C45.6089 541.923 44.1799 549.999 42.9024 558.075C45.0676 558.551 47.2327 558.919 49.3979 559.222C51.7795 546.773 54.7891 534.388 57.7337 522.22C57.7337 521.765 58.4915 522.003 58.4049 522.436C55.9366 534.756 54.0746 547.184 52.1693 559.59C58.9445 560.285 65.7552 560.574 72.565 560.456C72.7598 560.456 72.7382 560.738 72.565 560.759C65.7047 561.37 58.811 561.515 51.9311 561.193C51.296 565.321 50.6392 569.456 49.9608 573.599C55.0877 574.399 60.2758 574.74 65.4633 574.616C65.7015 574.616 65.6582 574.963 65.4633 574.985C60.2442 575.396 54.9992 575.352 49.7876 574.855C48.8782 580.354 47.9256 585.832 46.8213 591.288C46.6265 592.219 45.1326 591.894 45.1759 590.985C45.5223 585.507 46.1285 580.008 46.8863 574.551C44.7211 574.248 42.6859 573.859 40.6074 573.361C38.9619 584.771 37.3596 596.181 35.2378 607.527C35.0646 608.479 33.5057 608.155 33.5706 607.202C34.3722 595.644 35.9345 584.151 38.2474 572.798C35.4183 572.023 32.6531 571.031 29.9765 569.831C29.9189 569.774 29.8788 569.701 29.8609 569.621C29.8429 569.542 29.8477 569.459 29.8749 569.382C29.902 569.305 29.9503 569.237 30.0143 569.186C30.0782 569.136 30.1552 569.104 30.2363 569.095ZM47.0811 573.209C47.6874 569.139 48.337 565.068 49.0948 560.998C46.9096 560.77 44.7404 560.408 42.5993 559.915C41.9714 563.899 41.3868 567.905 40.8022 571.888C42.9024 572.343 45.0026 572.776 47.0811 573.166V573.209Z" fill="black"/>
</g>
<path d="M129.854 288.6C72.1527 357.885 4.05875 498.793 21.1201 524.818C40.1301 553.788 120.435 456.876 119.656 451.679C119.071 447.76 143.126 363.536 161.595 302.284C180.064 241.032 144.122 271.496 129.854 288.6Z" fill="#D3766A"/>
<path d="M120.24 451.723C122.211 442.781 155.229 331.6 164.409 296.568C172.637 265.109 165.925 253.027 142.108 274.094C98.2423 312.872 14.5593 427.495 2.02312 484.113C-10.0584 538.762 34.5004 539.433 68.5798 511.871C96.5319 489.375 120.24 451.723 120.24 451.723Z" fill="#FFC727"/>
<g opacity="0.6">
<path d="M120.24 451.723C122.211 442.781 155.229 331.6 164.409 296.568C172.637 265.109 165.925 253.027 142.108 274.094C98.2423 312.872 14.5593 427.495 2.02312 484.114C-10.0584 538.762 34.5004 539.433 68.5798 511.871C96.5319 489.375 120.24 451.723 120.24 451.723Z" fill="white"/>
</g>
<path d="M116.041 466.099C128.664 426.065 141.416 381.658 151.982 341.105C139.36 381.117 126.607 425.546 116.041 466.099Z" fill="#263238"/>
<path d="M145.487 365.398C149.301 361.032 152.057 355.846 153.541 350.242C150.054 354.825 147.334 359.943 145.487 365.398Z" fill="#263238"/>
<path d="M15.2103 518.106C26.9887 539.996 65.0087 548.418 158.846 578.384C171.837 582.541 225.814 498.814 212.174 493.661C195.004 487.166 126.932 465.709 121.757 464.778C78.1295 456.832 7.2209 503.275 15.2103 518.106Z" fill="#D3766A"/>
<path d="M196.563 492.969C196.563 492.969 235.189 492.081 255.628 497.884C282.996 505.678 303.413 523.671 311.511 531.725C328.442 548.548 357.715 600.901 344.096 611.965C331.69 621.968 304.561 566.93 304.561 566.93C304.561 566.93 341.563 618.439 324.523 627.771C307.484 637.103 279.51 571.477 279.51 571.477C279.51 571.477 316.317 625.259 297.242 632.101C282.801 637.276 254.134 579.228 254.134 579.228C254.134 579.228 285.486 625.671 270.871 631.625C254.697 638.12 224.883 586.287 224.883 586.287C185.174 595.164 162.635 583.147 147.609 572.711C143.972 570.156 196.563 492.969 196.563 492.969Z" fill="#D3766A"/>
<path d="M292.912 548.31C297.48 554.199 302.135 560.131 306.163 566.41C310.19 572.689 314 579.12 317.421 585.745C322.051 594.324 325.683 603.405 328.247 612.81C322.444 596.441 308.393 573.837 304.43 567.45C300.468 561.062 296.722 554.719 292.695 548.44C292.565 548.288 292.717 548.158 292.912 548.31Z" fill="#263238"/>
<path d="M269.961 562.426C275.461 570.199 281.22 577.734 286.373 585.745C291.526 593.756 295.683 601.767 300.273 610.081C300.62 610.731 300.165 610.709 299.775 610.081C294.882 601.94 289.707 594.817 284.728 586.741C279.748 578.665 275.028 570.394 269.766 562.535C269.68 562.426 269.875 562.318 269.961 562.426Z" fill="#263238"/>
<path d="M248.093 571.023C257.1 582.476 264.007 595.575 270.459 608.61C270.784 609.259 270.199 609.151 269.831 608.61C262.621 595.965 257.057 586.005 247.682 571.412C247.552 571.109 247.898 570.763 248.093 571.023Z" fill="#263238"/>
<path d="M198.164 477.964L98.1343 582.086C98.1343 582.086 9.51477 537.354 3.17088 514.967C-1.35428 498.923 71.5462 456.616 120.089 463.826L198.164 477.964Z" fill="#FFC727"/>
<path opacity="0.6" d="M198.164 477.964L98.1343 582.086C98.1343 582.086 9.51477 537.354 3.17088 514.967C-1.35428 498.923 71.5462 456.616 120.089 463.826L198.164 477.964Z" fill="white"/>
<path d="M59.855 475.669C67.7361 470.04 92.094 459.993 120.241 463.761C120.479 463.761 120.501 464.194 120.241 464.172C99.0008 463.414 68.1041 471.252 60.0281 476.016C59.8116 476.145 59.6384 475.799 59.855 475.669Z" fill="#263238"/>
<path d="M89.6693 555.628C98.5247 544.802 107.943 534.517 117.383 524.211C126.823 513.905 136.263 503.599 145.963 493.553C151.441 487.858 156.789 482.142 162.57 476.643C162.721 476.513 163.003 476.643 162.873 476.881C154.039 487.707 144.664 498.035 135.311 508.362C125.957 518.69 116.43 528.996 106.839 539.172C101.426 544.91 96.0132 550.561 90.2106 556.061C89.9291 556.342 89.4094 555.931 89.6693 555.628Z" fill="#263238"/>
<path d="M198.338 476.751C193.146 475.144 187.851 473.893 182.489 473.006C177.163 471.966 171.793 471.014 166.445 470.104C155.771 468.307 133.383 463.263 113.659 463.176C113.442 463.176 114.547 464.237 114.763 464.215C124.16 463.782 191.323 477.726 196.844 478.159C196.615 478.515 196.419 478.892 196.259 479.285C196.129 479.544 196.411 479.913 196.692 479.718C197.385 479.263 197.883 478.678 198.554 478.18C198.679 478.096 198.778 477.977 198.838 477.838C198.899 477.7 198.919 477.547 198.896 477.398C198.874 477.248 198.809 477.108 198.71 476.994C198.611 476.88 198.482 476.795 198.338 476.751Z" fill="#263238"/>
<path d="M115.478 564.765C109.502 570.395 103.591 576.089 97.7453 581.848L98.3948 581.74L78.2373 570.221C58.8809 558.768 37.2294 546.578 19.0205 533.587C37.1211 548.18 57.3653 559.937 77.4795 571.477C84.343 575.353 91.2282 579.207 98.2433 582.844C104.017 576.84 109.791 570.792 115.564 564.7L115.478 564.765Z" fill="#263238"/>
</svg>
