<svg width="500" height="690" viewBox="0 0 500 690" fill="none" xmlns="http://www.w3.org/2000/svg">
<path d="M272.746 689.768H447.662L448.505 640.779C454.121 618.484 456.629 569.644 454.401 552.909C448.987 514.048 438.743 476.016 423.907 439.693H419.564L283.828 438.289C283.828 438.289 277.763 562.849 272.746 689.768Z" fill="#37474F"/>
<path d="M289.611 689.769H293.037C293.199 679.872 293.393 669.97 293.617 660.061C293.842 649.915 294.067 639.787 294.347 629.66C294.347 629.342 294.347 629.005 294.347 628.687C295.62 580.54 297.324 532.43 299.177 484.283C299.177 483.647 298.222 483.666 298.185 484.283C294.048 552.722 291.315 621.274 289.611 689.769Z" fill="#37474F"/>
<path d="M116.192 689.769H316.492C328.379 657.534 337.533 633.03 340.079 626.253L340.416 625.336C340.659 624.681 340.79 624.362 340.79 624.362C344.647 622.153 349.158 619.795 353.576 617.548C363.741 612.457 373.101 608.17 373.101 608.17C416.867 537.709 419.619 439.693 419.619 439.693L283.883 438.289L209.809 437.541C195.489 493.119 168.196 547.518 147.885 602.985C136.99 632.505 126.301 661.745 116.192 689.769Z" fill="#37474F"/>
<path d="M195.265 689.768H200.057C210.727 664.796 221.191 639.749 230.682 614.272C249.196 564.609 264.134 511.726 262.805 458.019C262.818 457.959 262.818 457.897 262.803 457.837C262.789 457.777 262.762 457.721 262.723 457.673C262.685 457.626 262.636 457.587 262.58 457.56C262.525 457.534 262.464 457.52 262.403 457.52C262.341 457.52 262.28 457.534 262.225 457.56C262.169 457.587 262.121 457.626 262.082 457.673C262.043 457.721 262.016 457.777 262.002 457.837C261.988 457.897 261.987 457.959 262 458.019C261.626 464.646 261.083 471.254 260.503 477.862C255.879 532.055 238.207 584.564 218.196 634.527C210.839 653.096 203.108 671.404 195.265 689.768Z" fill="#263238"/>
<path d="M292.701 628.761C302.393 628.8 312.071 627.992 321.623 626.346C331.282 624.587 340.342 621.367 349.702 618.597C358.612 615.995 368.066 615.658 377.201 614.235C386.543 612.931 395.637 610.23 404.176 606.223C404.218 606.201 404.264 606.187 404.311 606.183C404.358 606.178 404.405 606.183 404.45 606.197C404.496 606.211 404.538 606.233 404.574 606.264C404.611 606.294 404.641 606.331 404.663 606.373C404.685 606.414 404.699 606.46 404.703 606.507C404.708 606.554 404.703 606.602 404.689 606.647C404.675 606.692 404.652 606.734 404.622 606.771C404.592 606.807 404.555 606.837 404.513 606.859C396.217 611.343 387.548 615.1 378.605 618.091C369.358 621.011 359.717 621.33 350.32 623.613C340.922 625.897 331.357 629.098 321.435 630.165C311.832 631.29 302.116 631.025 292.588 629.379C292.214 629.304 292.345 628.761 292.701 628.761Z" fill="#263238"/>
<path d="M313.909 689.768H319.3C322.389 680.933 325.44 672.078 328.361 663.224C332.423 650.907 336.878 638.701 340.266 626.234C340.367 625.94 340.449 625.64 340.51 625.336C340.678 624.699 340.865 624.1 341.015 623.464C341.165 622.827 340.51 622.921 340.341 623.276C339.836 624.381 339.312 625.485 338.825 626.608C332.779 639.918 327.911 653.621 322.576 667.136C319.619 674.68 316.736 682.206 313.909 689.768Z" fill="#263238"/>
<path d="M115.125 325.335C90.2843 298.491 57.7121 266.593 48.9139 226.289C47.8256 221.831 48.2673 217.137 50.1681 212.961C45.9 194.971 53.1071 187.558 53.1071 187.558C54.2677 169.569 62.6915 162.998 62.6915 162.998C62.6915 162.998 57.918 141.826 70.1794 136.791C83.9758 131.175 87.9818 161.987 100.561 177.599C129.39 213.41 180.382 256.222 189.723 265.713L115.125 325.335Z" fill="#F7A9A0"/>
<path d="M104.493 236.361C96.2187 225.672 87.8136 215.357 81.0184 203.601C73.5305 190.685 68.5885 177.019 63.1598 163.223C63.1237 163.145 63.0607 163.083 62.9822 163.048C62.9038 163.013 62.8153 163.007 62.7332 163.032C62.651 163.057 62.5807 163.111 62.5353 163.184C62.4898 163.257 62.4723 163.344 62.486 163.429C68.3452 189.955 84.65 217.716 104.006 236.754C104.474 237.203 104.905 236.904 104.493 236.361Z" fill="#263238"/>
<path d="M85.4183 256.896C77.9304 246.038 64.9203 226.944 53.5949 187.427C53.5949 187.296 53.3328 187.315 53.3515 187.427C57.3388 214.028 68.0465 236.604 84.9503 257.214C85.4183 257.906 85.905 257.626 85.4183 256.896Z" fill="#263238"/>
<path d="M74.9544 267.753C62.9551 248.79 57.7885 235.33 50.2819 213.017C50.2819 212.904 50.0012 213.017 50.0386 213.017C55.8978 239.224 61.0083 248.097 74.3741 268.183C74.8234 268.951 75.4598 268.483 74.9544 267.753Z" fill="#263238"/>
<path d="M0 113.915L98.9519 113.017L174.542 69.1379L250.993 177.038L173.737 212.212L175.122 215.188L158.836 220.449L157.207 217.903L69.1877 220.074L0 113.915Z" fill="#455A64"/>
<path d="M162.242 214.308C162.242 214.308 190.06 198.079 214.264 188.569C225.646 184.095 239.573 176.925 239.573 176.925L239.105 169.269C239.105 169.269 182.609 184.357 162.242 214.308Z" fill="#EBEBEB"/>
<path d="M97.248 110.227C97.248 110.227 106.495 95.0646 129.951 86.154C140.621 82.1106 157.656 80.2948 170.46 68.7822L239.105 169.194C239.105 169.194 188.562 185.162 162.243 214.234L97.248 110.227Z" fill="white"/>
<path d="M162.244 214.308L97.2494 110.227C97.2494 110.227 40.6599 97.7039 21.2102 102.739L2.67773 111.575L71.7157 216.311L162.244 214.308Z" fill="white"/>
<path d="M21.1722 102.74L84.819 206.521C84.819 206.521 137.234 207.813 162.318 214.309L71.7152 216.312L2.7334 111.613L21.1722 102.74Z" fill="#EBEBEB"/>
<path d="M97.248 110.228C102.876 118.764 108.442 127.344 113.946 135.967L130.326 161.875L146.443 187.97C151.772 196.706 157.038 205.442 162.243 214.178C156.614 205.641 151.054 197.068 145.563 188.457L129.184 162.643L113.066 136.566C107.737 127.855 102.465 119.076 97.248 110.228Z" fill="#EBEBEB"/>
<path d="M110.09 115.319C113.989 111.323 118.329 107.781 123.025 104.761C127.708 101.715 132.673 99.1256 137.851 97.0298C143.036 94.9706 148.334 93.2859 153.594 91.4139C156.234 90.5341 158.873 89.6543 161.494 88.6996C164.13 87.8197 166.707 86.7692 169.206 85.5547C164.23 88.0633 159.059 90.1667 153.744 91.8445C148.503 93.7164 143.242 95.5884 138.094 97.6288C132.922 99.6402 127.957 102.148 123.268 105.117C118.574 108.109 114.163 111.524 110.09 115.319Z" fill="#263238"/>
<path d="M157.039 95.2521C161.813 93.0807 166.755 91.5082 171.566 89.5239C169.357 90.9294 166.996 92.0788 164.527 92.9496C162.08 93.869 159.58 94.6379 157.039 95.2521Z" fill="#263238"/>
<path d="M112.449 119.232C115.012 116.487 117.819 113.98 120.836 111.744C123.823 109.496 126.949 107.439 130.195 105.585C136.834 102.133 143.793 99.337 150.974 97.2363C147.511 98.5841 144.011 99.9132 140.566 101.317C137.12 102.713 133.768 104.333 130.532 106.166C127.259 107.942 124.101 109.924 121.079 112.1C118.064 114.305 115.183 116.687 112.449 119.232Z" fill="#263238"/>
<path d="M114.77 123.144C118.664 119.148 123.004 115.612 127.705 112.604C132.383 109.545 137.348 106.949 142.531 104.855C147.716 102.814 153.014 101.111 158.274 99.2386C160.913 98.3401 163.553 97.4603 166.174 96.5056C168.827 95.6449 171.416 94.6003 173.924 93.3794C168.95 95.8959 163.779 97.9996 158.461 99.6692C153.22 101.541 147.959 103.413 142.812 105.454C137.636 107.458 132.67 109.966 127.986 112.941C123.27 115.92 118.845 119.336 114.77 123.144Z" fill="#263238"/>
<path d="M117.166 127.075C121.061 123.079 125.401 119.543 130.101 116.536C134.776 113.475 139.742 110.885 144.927 108.805C150.113 106.746 155.41 105.061 160.67 103.189C163.31 102.29 165.949 101.411 168.57 100.456C171.209 99.5842 173.786 98.5335 176.283 97.311C171.309 99.8276 166.138 101.931 160.82 103.601C155.579 105.473 150.318 107.345 145.171 109.385C139.995 111.389 135.029 113.897 130.345 116.873C125.646 119.86 121.235 123.275 117.166 127.075Z" fill="#263238"/>
<path d="M141.727 115.488C144.722 114.121 147.754 112.773 150.787 111.482C153.819 110.19 156.964 109.142 160.147 108.019L169.506 104.836C172.647 103.827 175.723 102.627 178.716 101.242C175.828 102.852 172.81 104.217 169.694 105.323C166.605 106.502 163.479 107.551 160.334 108.655C157.189 109.76 154.063 110.733 150.974 111.969C147.885 113.204 144.834 114.346 141.727 115.488Z" fill="#263238"/>
<path d="M119.524 130.969C122.127 128.082 125.033 125.483 128.192 123.219C129.783 122.096 131.393 120.991 133.059 119.999C134.727 119.006 136.445 118.1 138.207 117.285C131.625 121.342 125.378 125.918 119.524 130.969Z" fill="#263238"/>
<path d="M121.883 134.881C125.783 130.891 130.122 127.355 134.818 124.342C139.492 121.281 144.459 118.692 149.644 116.611C154.829 114.552 160.127 112.867 165.387 110.995C168.027 110.115 170.666 109.123 173.287 108.281C175.925 107.398 178.501 106.341 180.999 105.117C176.023 107.632 170.852 109.742 165.537 111.426C160.296 113.298 155.035 115.17 149.887 117.191C144.712 119.196 139.746 121.704 135.062 124.679C130.363 127.666 125.951 131.081 121.883 134.881Z" fill="#263238"/>
<path d="M126.601 142.725C130.495 138.724 134.835 135.181 139.536 132.167C144.21 129.106 149.176 126.517 154.362 124.436C159.547 122.377 164.845 120.692 170.105 118.82C172.744 117.94 175.384 117.061 178.005 116.106C180.642 115.229 183.219 114.179 185.717 112.961C180.737 115.462 175.567 117.565 170.255 119.251C165.013 121.123 159.753 122.995 154.605 125.016C149.433 127.029 144.468 129.536 139.779 132.504C135.076 135.491 130.664 138.913 126.601 142.725Z" fill="#263238"/>
<path d="M157.825 128.255C160.54 126.982 163.441 125.971 166.137 124.923C168.832 123.874 171.753 123.051 174.692 122.246C171.977 123.5 169.169 124.529 166.38 125.559C163.591 126.589 160.783 127.506 157.825 128.255Z" fill="#263238"/>
<path d="M128.96 146.637C132.04 143.291 135.488 140.302 139.237 137.727C141.109 136.454 142.981 135.218 145.04 134.114C147.024 133.01 149.068 132.016 151.161 131.137C147.2 133.319 143.352 135.7 139.63 138.27C137.758 139.543 135.886 140.909 134.164 142.294C132.442 143.68 130.626 145.102 128.96 146.637Z" fill="#263238"/>
<path d="M131.318 150.55C135.213 146.554 139.553 143.018 144.254 140.011C148.932 136.951 153.897 134.355 159.08 132.261C164.265 130.202 169.563 128.517 174.823 126.645C177.462 125.746 180.102 124.773 182.722 123.912C185.362 123.04 187.939 121.989 190.435 120.767C185.462 123.283 180.29 125.387 174.972 127.057C169.731 128.929 164.471 130.801 159.323 132.841C154.148 134.845 149.182 137.353 144.497 140.329C139.797 143.32 135.385 146.742 131.318 150.55Z" fill="#263238"/>
<path d="M136.035 158.375C139.93 154.379 144.27 150.843 148.97 147.835C153.645 144.775 158.611 142.185 163.796 140.104C168.982 138.045 174.279 136.36 179.54 134.488C182.179 133.59 184.819 132.71 187.439 131.755C190.08 130.887 192.657 129.836 195.152 128.61C190.179 131.127 185.007 133.231 179.689 134.9C174.448 136.772 169.188 138.644 164.04 140.685C158.864 142.689 153.899 145.197 149.214 148.172C144.515 151.159 140.104 154.574 136.035 158.375Z" fill="#263238"/>
<path d="M138.394 162.287C142.293 158.297 146.633 154.761 151.329 151.748C156.003 148.687 160.969 146.097 166.155 144.017C171.34 141.957 176.638 140.273 181.898 138.401C184.537 137.502 187.177 136.622 189.798 135.686C192.436 134.803 195.012 133.747 197.51 132.523C192.534 135.037 187.363 137.147 182.048 138.831C176.806 140.703 171.546 142.482 166.398 144.597C161.223 146.601 156.257 149.109 151.572 152.085C146.874 155.071 142.462 158.487 138.394 162.287Z" fill="#263238"/>
<path d="M181.824 148.153C185.175 146.693 188.619 145.514 192.045 144.26L197.174 142.388C198.878 141.751 200.563 141.115 202.229 140.366C199.073 142.203 195.736 143.709 192.27 144.859C188.825 146.075 185.362 147.217 181.824 148.153Z" fill="#263238"/>
<path d="M160.428 157.177C161.813 156.315 163.217 155.492 164.64 154.687C166.062 153.882 167.579 153.245 169.076 152.571C172.085 151.324 175.167 150.261 178.305 149.389C175.347 150.756 172.296 151.898 169.32 153.133C166.343 154.369 163.442 155.922 160.428 157.177Z" fill="#263238"/>
<path d="M143.113 170.13C144.787 168.121 146.67 166.295 148.729 164.683C149.759 163.896 150.788 163.092 151.893 162.361C152.997 161.631 154.102 160.976 155.244 160.34C151.181 163.616 147.119 166.779 143.113 170.13Z" fill="#263238"/>
<path d="M186.803 151.168C189.723 149.876 192.737 148.828 195.695 147.704L200.169 146.076C201.647 145.514 203.126 144.971 204.586 144.316C201.85 145.965 198.944 147.314 195.919 148.341C192.924 149.389 189.91 150.4 186.803 151.168Z" fill="#263238"/>
<path d="M145.47 174.043C147.922 171.437 150.596 169.051 153.463 166.91C156.315 164.74 159.297 162.746 162.392 160.939C168.68 157.534 175.305 154.793 182.16 152.758C178.847 154.069 175.515 155.36 172.239 156.746C168.955 158.125 165.766 159.72 162.692 161.519C159.582 163.249 156.581 165.168 153.706 167.266C150.833 169.365 148.083 171.627 145.47 174.043Z" fill="#263238"/>
<path d="M147.829 177.955C151.729 173.959 156.068 170.417 160.764 167.397C165.447 164.351 170.412 161.762 175.59 159.666C180.776 157.607 186.073 155.922 191.334 154.05C193.973 153.17 196.612 152.29 199.233 151.336C201.874 150.467 204.451 149.416 206.946 148.191C201.969 150.699 196.798 152.803 191.483 154.48C186.242 156.352 180.982 158.224 175.834 160.265C170.658 162.269 165.693 164.777 161.008 167.753C156.308 170.738 151.896 174.153 147.829 177.955Z" fill="#263238"/>
<path d="M172.389 166.387C178.316 163.454 184.447 160.951 190.734 158.899L200.094 155.716C203.23 154.696 206.305 153.496 209.304 152.122C203.405 155.132 197.261 157.637 190.94 159.61L181.58 162.849C178.51 163.916 175.421 165.057 172.389 166.387Z" fill="#263238"/>
<path d="M150.188 181.868C152.687 179.079 155.48 176.569 158.518 174.38C160.053 173.294 161.588 172.209 163.198 171.254C164.798 170.284 166.448 169.396 168.14 168.596C161.842 172.579 155.842 177.015 150.188 181.868Z" fill="#263238"/>
<path d="M152.547 185.78C156.442 181.784 160.782 178.248 165.482 175.241C170.15 172.181 175.11 169.592 180.289 167.51C185.475 165.451 190.772 163.766 196.033 161.894C198.672 160.995 201.312 160.022 203.932 159.161C206.572 158.289 209.148 157.238 211.645 156.016C206.672 158.533 201.5 160.636 196.182 162.306C190.941 164.178 185.681 166.05 180.533 168.09C175.357 170.094 170.392 172.602 165.707 175.578C161.011 178.56 156.605 181.975 152.547 185.78Z" fill="#263238"/>
<path d="M154.904 189.693C157.24 187.198 159.79 184.911 162.523 182.86C165.238 180.779 168.069 178.854 171.003 177.094C173.948 175.355 177.043 173.882 180.251 172.695C183.433 171.447 186.628 170.237 189.835 169.063C186.703 170.474 183.583 171.822 180.475 173.107C177.313 174.357 174.269 175.886 171.378 177.675C168.419 179.379 165.563 181.254 162.823 183.29C160.072 185.284 157.429 187.421 154.904 189.693Z" fill="#263238"/>
<path d="M37.7754 111.856C47.1352 111.856 56.495 112.474 65.8548 113.26C70.5347 113.734 75.1959 114.308 79.8384 114.982C84.4809 115.6 89.1046 116.443 93.6909 117.397C89.0485 116.705 84.4247 116.012 79.7635 115.432C75.1023 114.851 70.4037 114.327 65.7987 113.934C61.1937 113.541 56.4388 113.036 51.7964 112.699C47.1539 112.362 42.4553 112.1 37.7754 111.856Z" fill="#263238"/>
<path d="M71.4727 117.378C73.5131 117.472 75.5723 117.603 77.6127 117.884L83.734 118.707C87.7962 119.344 91.8583 119.961 95.8643 120.823C91.7647 120.504 87.7026 119.924 83.6217 119.362C79.5408 118.801 75.4599 118.033 71.4727 117.378Z" fill="#263238"/>
<path d="M39.8916 115.301C44.2346 115.113 48.5775 115.3 52.9953 115.525C57.4132 115.75 61.6438 116.162 65.9493 116.836C61.6064 116.723 57.2822 116.405 52.9579 116.18C48.6337 115.956 44.2533 115.675 39.8916 115.301Z" fill="#263238"/>
<path d="M42.082 118.745C49.1581 118.614 56.2153 119.101 63.2726 119.532C70.3299 119.962 77.3685 120.879 84.3322 122.096C77.2936 121.46 70.2738 120.636 63.2352 120.224C56.1966 119.812 49.1393 119.195 42.082 118.745Z" fill="#263238"/>
<path d="M44.2344 122.189C53.5942 122.189 62.954 122.807 72.3138 123.575C76.9937 124.061 81.6549 124.635 86.2974 125.297C90.9399 125.915 95.5636 126.776 100.15 127.712C95.5074 127.038 90.8837 126.326 86.2225 125.746C81.5613 125.166 76.8627 124.66 72.2577 124.249C67.6526 123.837 62.8978 123.35 58.2554 123.013C53.6129 122.676 48.9143 122.414 44.2344 122.189Z" fill="#263238"/>
<path d="M86.4648 128.704C89.1418 128.835 91.7999 129.228 94.4581 129.584C97.1163 129.94 99.7371 130.464 102.32 131.156C99.6247 131.007 96.9853 130.632 94.3458 130.258C91.7063 129.883 89.0669 129.378 86.4648 128.704Z" fill="#263238"/>
<path d="M46.3867 125.634C52.1898 125.465 57.9929 125.765 63.796 126.12C69.599 126.476 75.3647 127.113 81.0929 127.992C69.5242 127.206 57.9742 126.364 46.3867 125.634Z" fill="#263238"/>
<path d="M91.1084 135.611C93.7291 135.742 96.3312 136.135 98.9145 136.491C101.498 136.847 104.1 137.352 106.627 138.026C103.988 137.895 101.404 137.521 98.8209 137.165C96.2376 136.809 93.6543 136.304 91.1084 135.611Z" fill="#263238"/>
<path d="M75.665 133.945C77.7468 133.932 79.8278 134.032 81.8987 134.245C83.962 134.463 86.0118 134.794 88.0387 135.237C85.9626 135.253 83.8874 135.147 81.8238 134.919C79.7537 134.715 77.6972 134.39 75.665 133.945Z" fill="#263238"/>
<path d="M50.6934 132.504C53.7072 132.373 56.7211 132.504 59.7162 132.616C62.7114 132.728 65.7439 132.953 68.7204 133.384C65.7065 133.515 62.6926 133.384 59.6975 133.29C56.7024 133.196 53.6885 132.934 50.6934 132.504Z" fill="#263238"/>
<path d="M52.8447 135.948C62.2045 135.948 71.5644 136.566 80.9242 137.333C85.6041 137.82 90.2653 138.394 94.9077 139.055C99.5502 139.673 104.268 140.534 108.76 141.47C104.118 140.796 99.494 140.085 94.8328 139.505C90.1717 138.924 85.473 138.419 80.868 138.007C76.263 137.595 71.5082 137.109 66.8657 136.79C62.2232 136.472 57.5246 136.173 52.8447 135.948Z" fill="#263238"/>
<path d="M54.999 139.393C64.3588 139.393 73.7187 140.01 83.0785 140.778C87.7584 141.265 92.4196 141.839 97.062 142.5C101.705 143.118 106.328 143.96 110.915 144.915C106.272 144.222 101.648 143.53 96.9871 142.949C92.326 142.369 87.6273 141.864 83.0223 141.452C78.4173 141.04 73.6625 140.553 69.02 140.216C64.3775 139.879 59.6789 139.617 54.999 139.393Z" fill="#263238"/>
<path d="M57.1504 142.818C63.5899 142.687 70.0295 143.024 76.4503 143.455C82.8712 143.885 89.2733 144.634 95.6192 145.701C89.1984 145.196 82.815 144.578 76.3942 144.129C69.9733 143.68 63.5712 143.249 57.1504 142.818Z" fill="#263238"/>
<path d="M65.3506 150.737L89.5551 191.265C106.402 191.94 123.193 193.635 139.836 196.338L114.134 156.128C114.134 156.128 77.9489 149.913 65.3506 150.737Z" fill="#EBEBEB"/>
<path d="M138.113 218.558C143.729 221.74 145.413 218.82 141.07 208.225C136.727 197.63 110.576 159.404 124.691 151.411C138.805 143.417 174.916 197.892 180.85 216.068C186.784 234.245 189.854 265.732 189.854 265.732C180.625 256.54 156.289 236.36 138.113 218.558Z" fill="#F7A9A0"/>
<path d="M284.296 198.921C298.485 198.715 318.834 170.018 323.719 151.13C324.056 149.838 319.283 138.288 314.154 123.986C311.065 115.301 307.845 105.548 305.561 96.4312L251.93 124.735C251.93 124.735 262.356 142.407 266.269 158.318C266.572 159.577 266.753 160.862 266.812 162.156C266.812 162.343 266.812 162.549 266.812 162.792C267.523 170.13 270.574 199.127 284.296 198.921Z" fill="#F7A9A0"/>
<path d="M266.812 162.156C266.812 162.306 266.812 162.568 266.812 162.811C268.831 162.583 270.829 162.189 272.783 161.632C306.085 151.804 305.374 111.931 303.914 97.2925L251.836 124.754C251.836 124.754 262.282 142.444 266.213 158.318C266.515 159.579 266.715 160.863 266.812 162.156Z" fill="#263238"/>
<path d="M305.71 27.2621C315.295 46.899 313.928 108.243 301.386 123.874C283.191 146.544 248.653 153.957 228.211 130.988C208.368 108.749 211.569 28.8346 226.021 14.1397C247.305 -7.51895 291.521 -1.71586 305.71 27.2621Z" fill="#F7A9A0"/>
<path d="M253.295 72.7879C253.295 72.6381 253.632 72.9751 253.632 73.1436C253.632 77.2806 254.25 82.0354 258.012 83.3083C258.125 83.3083 258.125 83.5517 258.012 83.5517C253.388 83.0837 252.584 76.7752 253.295 72.7879Z" fill="#263238"/>
<path d="M256.872 68.4636C263.517 67.8084 264.36 81.1181 258.182 81.7358C252.005 82.3536 251.312 69.0439 256.872 68.4636Z" fill="#263238"/>
<path d="M230.364 74.3608C230.364 74.211 230.064 74.5854 230.083 74.7539C230.457 78.8722 230.214 83.6457 226.563 85.2556C226.534 85.2556 226.505 85.2674 226.484 85.2885C226.463 85.3096 226.451 85.3382 226.451 85.3679C226.451 85.3977 226.463 85.4263 226.484 85.4474C226.505 85.4684 226.534 85.4803 226.563 85.4803C231.131 84.563 231.393 78.1983 230.364 74.3608Z" fill="#263238"/>
<path d="M226.414 70.2803C219.75 70.2803 220.068 83.5338 226.227 83.6273C232.386 83.7209 232.011 70.3739 226.414 70.2803Z" fill="#263238"/>
<path d="M261.756 62.0617C259.884 61.7061 258.274 61.0883 256.477 60.5642C254.554 60.2929 252.776 59.3908 251.422 57.9996C251.075 57.4833 250.91 56.8656 250.954 56.2448C250.998 55.6241 251.249 55.0359 251.666 54.5739C252.621 53.7757 253.771 53.2473 254.999 53.0432C256.227 52.8392 257.486 52.9669 258.648 53.4133C261.145 53.9549 263.352 55.402 264.844 57.4754C265.152 57.9718 265.309 58.5464 265.298 59.1302C265.287 59.714 265.108 60.2822 264.782 60.7665C264.456 61.2508 263.996 61.6306 263.46 61.8604C262.923 62.0902 262.331 62.1601 261.756 62.0617Z" fill="#263238"/>
<path d="M222.389 64.0459C224.151 63.5719 225.888 63.0096 227.593 62.3611C229.509 62.0126 231.258 61.0461 232.573 59.6093C232.9 59.0779 233.041 58.4526 232.973 57.8323C232.905 57.2119 232.633 56.6318 232.198 56.1836C231.213 55.425 230.042 54.9435 228.808 54.7888C227.574 54.6341 226.321 54.8119 225.179 55.3038C222.702 55.9365 220.552 57.4722 219.151 59.6093C218.856 60.1127 218.715 60.6912 218.744 61.2738C218.773 61.8564 218.972 62.4177 219.316 62.8889C219.66 63.3601 220.134 63.7206 220.68 63.9261C221.226 64.1316 221.82 64.1733 222.389 64.0459Z" fill="#263238"/>
<path d="M258.05 110.34C257.095 111.332 256.178 112.699 254.662 112.886C253.126 112.902 251.603 112.602 250.188 112.006C250.174 111.995 250.159 111.987 250.142 111.982C250.125 111.977 250.108 111.975 250.09 111.977C250.073 111.978 250.056 111.984 250.041 111.992C250.025 112 250.012 112.011 250.001 112.025C249.99 112.038 249.981 112.054 249.976 112.071C249.971 112.087 249.97 112.105 249.971 112.122C249.973 112.14 249.978 112.157 249.986 112.172C249.995 112.187 250.006 112.201 250.019 112.212C250.641 112.999 251.462 113.604 252.397 113.966C253.332 114.329 254.347 114.434 255.336 114.271C256.167 114.023 256.906 113.536 257.462 112.87C258.018 112.204 258.366 111.389 258.462 110.527C258.518 110.228 258.2 110.228 258.05 110.34Z" fill="#263238"/>
<path d="M252.563 98.5839C251.512 100.206 250.139 101.595 248.529 102.664C246.919 103.733 245.106 104.46 243.203 104.799C241.532 105.118 239.823 105.193 238.13 105.023C237.81 105.007 237.491 104.969 237.176 104.911C236.867 104.878 236.561 104.828 236.258 104.761C236.039 104.721 235.84 104.609 235.691 104.443C235.542 104.277 235.452 104.066 235.435 103.844C235.416 103.701 235.416 103.557 235.435 103.414V103.039C235.435 99.8569 235.678 95.0272 235.678 95.0272C234.517 95.6075 228.583 98.247 228.677 96.5809C229.538 82.822 230.549 67.528 234.293 54.0125C234.321 53.9238 234.38 53.848 234.459 53.7987C234.538 53.7493 234.632 53.7297 234.724 53.7432C234.816 53.7566 234.901 53.8024 234.962 53.8723C235.024 53.9422 235.059 54.0317 235.06 54.1248C234.742 67.3783 232.103 80.5007 231.579 93.8104C233.688 92.8332 235.926 92.1589 238.224 91.8074C238.673 91.9384 237.438 101.167 237.587 102.59C237.583 102.64 237.583 102.69 237.587 102.74C242.923 103.432 246.947 101.841 252.17 98.2657C252.47 97.9662 252.806 98.247 252.563 98.5839Z" fill="#263238"/>
<path d="M312.748 90.5157C304.905 90.0665 288.132 87.4457 285.1 78.1608C282.067 68.8758 285.249 40.4033 282.348 33.2337C278.754 24.2857 264.302 16.9289 259.266 17.6402C252.752 18.5388 240.734 33.0839 234.22 33.4396C229.54 33.7017 228.81 27.9547 228.604 26.7005C228.117 24.1359 228.941 20.2235 227.387 20.2984C222.744 20.4669 218.252 33.9076 216.286 42.2004C216.286 42.2004 215.743 19.9427 227.387 11.3504C240.191 1.82214 272.389 -10.0274 299.457 14.7574C323.793 36.8653 312.748 90.5157 312.748 90.5157Z" fill="#263238"/>
<path d="M292.476 79.0779C292.476 79.0779 303.296 57.8124 312.731 61.5564C322.165 65.3003 315.913 94.5965 306.16 99.8567C304.949 100.614 303.597 101.118 302.186 101.34C300.775 101.562 299.334 101.495 297.949 101.146C296.564 100.796 295.264 100.17 294.127 99.305C292.99 98.4401 292.04 97.3543 291.334 96.1128L292.476 79.0779Z" fill="#F7A9A0"/>
<path d="M310.727 69.8491C310.757 69.8502 310.786 69.8602 310.81 69.8779C310.835 69.8956 310.853 69.9202 310.863 69.9484C310.873 69.9766 310.874 70.0073 310.867 70.0363C310.859 70.0653 310.843 70.0914 310.821 70.1112C304.007 74.0423 301.143 81.343 299.458 88.5875C301.218 85.6111 303.951 83.7391 307.882 85.7982C308.088 85.9106 307.882 86.2288 307.732 86.2101C306.407 85.99 305.046 86.1827 303.834 86.762C302.622 87.3412 301.617 88.2791 300.956 89.4486C299.869 91.4191 299.003 93.5033 298.372 95.6635C298.11 96.3561 296.912 96.1689 297.043 95.4014C297.043 95.4014 297.043 95.2704 297.043 95.2142C295.621 86.0416 300.974 72.1516 310.727 69.8491Z" fill="#263238"/>
<path d="M197.997 472.92H442.363C442.363 472.92 464.227 454.088 460.371 438.252C451.011 399.502 399.738 203.994 327.593 147.405C314.845 137.427 276.132 149.483 263.628 162.38C235.548 191.471 203.893 346.301 188.749 436.005C185.417 455.193 197.997 472.92 197.997 472.92Z" fill="#FFC727"/>
<path d="M327.576 147.386L324.169 133.197L262.75 154.836L262.001 163.597L327.576 147.386Z" fill="#37474F"/>
<path d="M320.162 177.319C316.418 173.145 298.373 159.873 276.433 158.712C268.627 158.3 256.853 162.662 245.359 172.321C233.865 181.98 195.808 237.84 193.692 290.386C191.577 342.932 293.936 415.658 299.309 415.264C304.681 414.871 300.151 392.801 297.998 390.405C295.846 388.009 228.155 323.108 225.216 300.326C222.277 277.544 240.529 209.349 245.939 201.318C251.349 193.287 261.851 172.714 265.688 172.321C276.358 171.217 295.771 189.992 301.555 190.105C307.339 190.217 324.43 182.317 320.162 177.319Z" fill="#263238"/>
<path d="M376.732 176.252C378.285 174.735 369.843 152.347 363.628 148.696C357.413 145.046 319.599 147.367 315.706 154.911C311.812 162.455 319.45 185.106 322.127 185.331C324.804 185.555 332.029 184.395 333.358 182.729C334.687 181.063 329.483 166.854 331.486 164.103C333.995 160.49 355.41 159.31 357.694 161.388C359.978 163.466 363.048 176.139 363.516 176.944C363.984 177.749 374.242 178.704 376.732 176.252Z" fill="#263238"/>
<path d="M281.02 388.925C290.118 404.201 319.414 423.051 336.261 424.942C353.109 426.833 464.285 434.77 480.59 410.509C495.434 388.401 454.85 239.262 420.444 193.361C417.852 189.703 414.779 186.41 411.308 183.571L410.597 183.028C379.242 160.321 320.593 177.075 313.255 179.621C301.836 183.627 286.111 194.709 279.129 217.397C272.147 240.086 271.903 373.65 281.02 388.925Z" fill="#37474F"/>
<path d="M343.15 375.26C345.565 386.248 364.677 411.351 385.699 416.63C406.722 421.909 480.627 410.509 496.351 394.915C498.111 393.174 499.215 389.749 499.702 385.013C503.146 351.317 476.078 251.429 450.563 222.152C448.294 219.342 445.487 217.013 442.308 215.3C438.702 213.562 434.942 212.164 431.076 211.126C411.701 205.716 385.887 206.259 366.119 212.23C353.371 216.124 343.112 222.264 338.769 230.594C327.762 251.766 340.716 364.29 343.15 375.26Z" fill="#455A64"/>
<path opacity="0.4" d="M343.15 375.26C345.565 386.248 364.677 411.351 385.699 416.63C406.722 421.909 480.627 410.509 496.351 394.915C498.111 393.174 499.215 389.749 499.702 385.013C503.146 351.317 476.078 251.429 450.563 222.152C448.294 219.342 445.487 217.013 442.308 215.3C438.702 213.562 434.942 212.164 431.076 211.126C411.701 205.716 385.887 206.259 366.119 212.23C353.371 216.124 343.112 222.264 338.769 230.594C327.762 251.766 340.716 364.29 343.15 375.26Z" fill="white"/>
<path opacity="0.1" d="M343.149 375.26C345.564 386.248 364.677 411.351 385.699 416.63C406.721 421.909 480.626 410.509 496.351 394.915C498.11 393.175 499.215 389.749 499.701 385.013C486.919 393.554 472.363 399.078 457.133 401.168C446.101 402.823 434.943 403.481 423.793 403.133C412.749 402.834 401.33 401.261 391.97 394.841C374.111 382.879 366.661 358.431 363.048 337.839C359.136 315.376 359.173 291.995 359.716 269.251C359.884 250.079 362.08 230.978 366.268 212.268C353.52 216.162 343.261 222.302 338.919 230.632C327.762 251.767 340.716 364.29 343.149 375.26Z" fill="black"/>
<path d="M354.381 329.865L359.416 329.284C356.702 305.978 351.929 242.725 362.823 229.752C373.344 217.116 417.335 212.568 435.961 217.21C440.987 218.424 445.893 220.091 450.618 222.189C448.347 219.385 445.549 217.051 442.382 215.319C438.772 213.595 435.013 212.204 431.15 211.164C408.687 208.094 369.787 213.354 358.836 226.514C344.422 243.811 353.894 326.364 354.381 329.865Z" fill="#263238"/>
<path d="M293.449 313.485L298.504 313.336C296.164 219.12 300.376 215.394 318.216 199.745L318.833 199.183C336.205 183.945 379.354 183.197 396.389 185.2C404.884 186.183 413.079 188.938 420.443 193.287C417.851 189.628 414.779 186.335 411.308 183.496C406.669 181.873 401.867 180.755 396.988 180.164C385.045 178.76 336.168 177.225 315.52 195.402L314.902 195.926C296.07 212.437 291.016 216.929 293.449 313.485Z" fill="#263238"/>
<path d="M267.336 386.922C270.836 399.015 301.031 421.76 315.37 426.234C318.291 427.151 342.439 430.614 342.963 420.917C342.963 420.281 342.963 419.626 342.963 419.045C343.525 393.755 329.859 339.749 326.92 332.542C323.42 324.043 295.471 309.236 279.185 306.802C276.306 306.186 273.318 306.309 270.499 307.158C259.006 311.763 265.146 379.247 267.336 386.922Z" fill="#455A64"/>
<path d="M267.336 386.922C270.836 399.015 301.031 421.76 315.37 426.234C318.291 427.151 342.439 430.614 342.963 420.917C342.963 420.281 342.963 419.626 342.963 419.045C325.311 418.615 300.376 412.063 288.676 391.995C277.613 373.07 277.688 330.614 279.185 306.802C276.306 306.186 273.318 306.309 270.499 307.158C259.006 311.763 265.146 379.247 267.336 386.922Z" fill="#37474F"/>
<path d="M276.359 213.186C272.877 306.784 241.484 426.889 210.241 435.125C175.441 444.298 179.091 316.611 183.303 313.148C186.504 310.528 213.985 261.857 242.42 201.692C270.855 141.527 277.238 190.142 276.359 213.186Z" fill="#F7A9A0"/>
<path d="M182.816 312.755C187.533 304.5 226.901 228.835 244.16 195.402C261.42 161.968 277.369 162.886 278.211 211.201C279.054 259.516 268.683 352.89 238.9 405.398C210.259 455.941 188.001 440.161 180.869 395.159C174.973 358.3 182.816 312.755 182.816 312.755Z" fill="#FFC727"/>
<path d="M203.914 435.612C177.706 429.865 158.762 397.349 99.926 308.992C91.783 296.769 162.936 212.511 172.296 225.11C184.108 241.003 226.433 305.192 228.942 310.284C250.057 353.171 221.66 439.506 203.914 435.612Z" fill="#F7A9A0"/>
<path d="M200.713 255.998L119.676 358.956C119.676 358.956 177.201 433.217 204.289 436.698C222.11 438.963 253.858 351.767 226.921 306.148L200.713 255.998Z" fill="#FFC727"/>
<path d="M235.68 370.299C238.094 360.134 242.138 332.654 226.956 306.072C226.825 305.829 226.432 306.072 226.544 306.241C235.904 327.15 236.728 360.284 235.249 370.262C235.211 370.524 235.623 370.561 235.68 370.299Z" fill="#263238"/>
<path d="M144.59 377.001C153.95 366.275 162.599 355.081 171.284 343.867C179.97 332.654 188.675 321.404 197.08 310.004C201.816 303.545 206.608 297.106 211.12 290.498C211.251 290.311 210.97 290.086 210.839 290.254C201.479 300.962 192.775 312.138 184.032 323.295C175.29 334.452 166.605 345.758 158.068 356.99C153.257 363.392 148.54 369.869 144.029 376.477C143.804 376.889 144.309 377.319 144.59 377.001Z" fill="#263238"/>
<path d="M200.881 254.874C204.625 259.311 219.75 283.59 232.48 317.753C232.48 317.959 232.48 325.016 232.33 324.792C222.315 296.974 202.753 262.25 200.076 256.914C199.809 257.291 199.515 257.648 199.196 257.981C198.971 258.206 198.503 257.981 198.578 257.701C198.766 256.821 199.14 256.091 199.383 255.23C199.413 255.07 199.489 254.922 199.601 254.804C199.714 254.686 199.858 254.603 200.016 254.566C200.175 254.528 200.341 254.537 200.494 254.592C200.648 254.647 200.782 254.745 200.881 254.874Z" fill="#263238"/>
<path d="M126.601 350.176L119.899 359.161V358.787C137.552 380.277 155.934 401.617 177.069 419.719C186.597 427.057 199.701 439.562 212.299 433.122C246.799 413.616 266.942 320.655 272.951 282.336C275.234 268.558 276.882 254.687 278.23 240.778C277.705 254.743 276.358 268.689 274.71 282.598C269.881 322.04 250.525 416.612 213.797 436.248C199.514 443.343 185.436 430.539 175.066 422.04C154.119 403.321 136.26 381.55 119.431 359.142L119.281 358.955L119.431 358.787L126.582 350.176H126.601Z" fill="#263238"/>
</svg>
