<svg width="580" height="786" viewBox="0 0 580 786" fill="none" xmlns="http://www.w3.org/2000/svg">
<path d="M389.851 585.229L421 771H97.5325C97.5325 771 90.5327 769.209 96.2399 720.021C101.947 670.832 140.226 585 140.226 585L389.851 585.229Z" fill="#263238"/>
<path d="M344.513 752.713C333.296 762.696 319.717 768.96 305.83 774.5C310.451 768.51 317.099 764.517 323.593 760.899C330.132 757.219 337.176 754.463 344.513 752.713Z" fill="#263238"/>
<path d="M324.082 121.684C367.514 161.738 352.01 216.291 369.414 247.136C380.066 266.003 416.824 287.065 423.319 308.627C433.869 343.865 403.014 354.845 408.79 374.011C416.978 401.138 453.839 400.863 458.203 444.835C462.567 488.807 410.767 532.804 292.894 539.667C175.021 546.529 112.748 501.634 110.463 464.4C108.179 427.167 147.812 416.76 151.893 389.234C154.46 371.64 131.05 358.164 131.512 325.572C131.974 292.98 165.138 284.021 171.145 256.744C177.152 229.468 165.678 161.514 209.187 129.271C252.696 97.0282 302.648 102.019 324.082 121.684Z" fill="#263238"/>
<path d="M318.768 122.408C331.008 131.777 340.739 143.883 347.133 157.695C353.761 172.302 358.611 187.612 361.585 203.314C363.51 212.522 365.255 221.956 369.285 230.565C372.963 237.921 377.962 244.581 384.045 250.23C396.135 261.984 410.844 271.218 421.573 284.295C431.841 296.773 439.336 312.969 434.177 328.94C431.379 337.625 425.039 344.513 420.932 352.524C417.004 360.135 415.105 369.743 421.625 376.531C427.195 382.346 435.563 385.29 441.98 390.132C448.313 394.896 453.809 400.627 458.255 407.102C462.772 413.5 465.866 420.745 467.338 428.373C468.81 436 468.627 443.843 466.802 451.398C458.075 486.535 422.831 505.003 390.591 516.283C386.099 517.855 381.581 519.352 377.063 520.849C376.37 521.074 375.831 520.101 376.55 519.826C408.944 507.573 446.575 493.199 460.539 459.334C463.692 451.947 465.052 443.953 464.514 435.972C463.975 427.991 461.552 420.239 457.433 413.316C453.307 406.45 447.932 400.37 441.57 395.372C435.435 390.381 428.222 387.312 421.958 382.645C418.847 380.501 416.375 377.592 414.797 374.217C413.219 370.841 412.59 367.118 412.974 363.429C413.796 355.119 418.365 348.057 422.857 341.194C427.631 333.932 431.738 326.545 431.584 317.685C431.069 309.359 428.229 301.327 423.37 294.452C414.206 280.377 400.063 270.744 387.433 259.838C374.804 248.933 364.87 236.38 360.892 220.084C358.889 211.824 357.811 203.389 356.143 195.128C354.613 187.407 352.668 179.768 350.316 172.244C345.883 157.157 338.122 143.191 327.573 131.317C324.764 128.294 321.651 125.552 318.281 123.131C317.973 122.732 318.383 122.133 318.768 122.408Z" fill="#263238"/>
<path d="M106.589 436.976C108.331 431.017 111.388 425.498 115.548 420.805C119.886 415.963 125.045 411.97 129.794 407.553C134.613 403.614 138.175 398.42 140.062 392.58C141.961 385.368 139.163 378.23 135.98 371.792C132.365 365.283 129.242 358.527 126.637 351.578C124.406 344.63 123.272 337.394 123.274 330.116C123.415 315.117 128.3 300.523 137.264 288.315C141.576 282.126 146.402 276.311 150.766 270.172C155.587 263.491 159.472 256.215 162.317 248.536C168.478 231.641 170.557 213.598 175.768 196.403C181.218 178.812 188.494 161.804 197.484 145.644C197.689 145.244 198.305 145.644 198.074 146.043C190.097 160.633 183.697 175.988 178.976 191.862C174.484 206.835 172.225 222.407 168.709 237.68C167.076 245.191 164.694 252.529 161.598 259.591C158.454 266.092 154.717 272.306 150.432 278.158C141.859 290.312 133.054 302.315 130.076 317.089C127.129 331.62 129.008 346.687 135.441 360.113C141.012 371.767 148.995 384.669 142.937 397.671C137.803 408.676 126.431 414.865 118.628 423.824C114.497 428.753 111.488 434.478 109.802 440.622C108.116 446.765 107.791 453.186 108.848 459.461C113.494 491.679 145.581 509.123 176.281 512.192C176.458 512.224 176.618 512.315 176.733 512.45C176.848 512.584 176.911 512.754 176.911 512.928C176.911 513.103 176.848 513.273 176.733 513.407C176.618 513.542 176.458 513.633 176.281 513.665C149.534 512.043 120.99 499.165 109.695 474.185C104.245 462.509 103.146 449.353 106.589 436.976Z" fill="#263238"/>
<path d="M421.016 612.653L150.024 625.17L151.878 663.11L422.87 650.593L421.016 612.653Z" fill="#FFC727"/>
<path opacity="0.1" d="M421.016 612.653L150.024 625.17L151.878 663.11L422.87 650.593L421.016 612.653Z" fill="black"/>
<path d="M422.86 650.599L151.868 663.115L157.321 774.705L428.313 762.189L422.86 650.599Z" fill="#FFC727"/>
<path d="M423.771 616.148L152.474 629.335L154.021 659.432L425.319 646.244L423.771 616.148Z" fill="#EB9481"/>
<path d="M168.861 652.215C250.001 647.698 341.076 643.506 422.293 640.511C341.153 645.028 250.079 649.221 168.861 652.215Z" fill="#DBDBDB"/>
<path d="M168.58 646.303C249.72 641.811 340.794 637.593 422.012 634.624C340.871 639.141 249.797 643.333 168.58 646.303Z" fill="#DBDBDB"/>
<path d="M168.27 640.414C249.435 635.897 340.51 631.705 421.727 628.735C340.587 633.252 249.512 637.444 168.27 640.414Z" fill="#DBDBDB"/>
<path d="M167.986 634.523C249.126 630.006 340.226 625.813 421.443 622.818C340.303 627.335 249.204 631.528 167.986 634.523Z" fill="#DBDBDB"/>
<path d="M377.704 539.292C373.058 530.483 298.129 382.396 282.882 346.161C267.635 309.925 279.776 298.071 320.487 330.289C361.199 362.507 452.067 471.762 474.297 530.708C495.705 587.482 383.839 550.922 377.704 539.292Z" fill="#FFC727"/>
<path d="M282.883 346.135C298.285 382.371 373.059 530.483 377.731 539.292C379.502 542.686 390.206 548.151 403.99 552.843C437.591 564.297 489.494 570.986 474.298 530.707C459.615 491.776 415.028 430.885 374.702 384.816C353.961 361.059 334.324 341.244 320.489 330.288C279.803 298.071 267.533 309.9 282.883 346.135Z" fill="white"/>
<path d="M309.811 322.403C311.377 323.451 312.994 324.599 314.688 325.847H276.749C276.595 324.624 276.518 323.476 276.492 322.403H309.811ZM283.217 346.834C283.654 347.883 284.167 349.031 284.706 350.253H342.513C341.358 349.08 340.177 347.932 339.048 346.834H283.217ZM294.409 371.266C294.923 372.389 295.462 373.512 296.026 374.685H365.744L362.638 371.266H294.409ZM306.14 395.673C306.679 396.821 307.244 397.969 307.809 399.117H386.972L384.072 395.673H306.14ZM318.076 420.104C318.641 421.227 319.206 422.375 319.745 423.523H406.763L404.068 420.104H318.076ZM330.141 444.511L331.835 447.955H425.219L422.652 444.511H330.141ZM342.257 468.868C342.847 470.016 343.412 471.139 343.976 472.286H442.366L440.082 468.868H342.257ZM354.475 493.274L356.195 496.718H457.537C456.869 495.57 456.202 494.422 455.509 493.274H354.475ZM366.796 517.706L368.516 521.125H470.32C469.832 520.002 469.293 518.854 468.728 517.706H366.796ZM380.658 542.112C382.494 543.409 384.434 544.56 386.459 545.556H476.917C477.008 544.41 477.008 543.259 476.917 542.112H380.658Z" fill="#455A64"/>
<path opacity="0.1" d="M282.883 346.135C298.285 382.371 373.059 530.483 377.731 539.292C379.502 542.686 390.206 548.151 403.99 552.843L374.702 384.816C353.961 361.059 334.324 341.244 320.489 330.288C279.803 298.071 267.533 309.9 282.883 346.135Z" fill="black"/>
<path d="M139.728 587.705L389.899 585.434L372.88 500.41C372.88 500.41 392.158 459.433 381.557 438.645C369.287 414.613 333.555 359.311 310.248 336.626C253.468 281.4 226.079 317.86 213.347 334.505C185.111 371.24 161.675 533.277 161.675 533.277L139.728 587.705Z" fill="white"/>
<path d="M291.557 498.489C303.375 497.603 315.248 497.653 327.058 498.639C332.936 499.213 338.763 500.061 344.615 501.135C347.516 501.634 350.417 502.033 353.343 502.407C356.381 502.889 359.472 502.973 362.533 502.657C362.594 502.657 362.653 502.681 362.696 502.723C362.739 502.765 362.764 502.822 362.764 502.882C362.764 502.941 362.739 502.998 362.696 503.04C362.653 503.082 362.594 503.106 362.533 503.106C359.711 503.739 356.845 504.172 353.959 504.404C351.15 504.52 348.336 504.436 345.54 504.154C339.559 503.63 333.603 502.832 327.571 502.233C315.532 501.06 303.519 499.737 291.455 499.612C291.044 499.512 290.916 498.514 291.557 498.489Z" fill="#263238"/>
<path d="M264.941 514.335C274.312 511.642 283.845 509.508 293.485 507.947C298.285 507.198 303.111 506.724 307.988 506.399C310.324 506.25 312.634 506.15 314.97 506.075C317.306 506 320.104 506.25 322.67 506.075C322.927 506.075 323.004 506.499 322.67 506.524C320.258 506.724 317.87 507.348 315.483 507.697L308.27 508.72C303.47 509.419 298.67 510.168 293.87 510.817C284.218 512.089 274.643 513.487 265.043 515.134C264.555 515.284 264.453 514.485 264.941 514.335Z" fill="#263238"/>
<path d="M220.302 325.847H298.156C296.65 324.616 295.162 323.468 293.69 322.403H223.485C222.355 323.551 221.303 324.699 220.302 325.847Z" fill="#455A64"/>
<path d="M204.516 350.253H322.594L319.693 346.834H206.21C205.542 347.932 205.029 349.08 204.516 350.253Z" fill="#455A64"/>
<path d="M195.402 374.685H341.357L338.79 371.266H196.506C196.147 372.389 195.762 373.512 195.402 374.685Z" fill="#455A64"/>
<path d="M188.242 399.117H357.941C357.222 397.969 356.452 396.821 355.708 395.673H189.243C188.918 396.821 188.584 397.969 188.242 399.117Z" fill="#455A64"/>
<path d="M182.286 423.524H373.188L371.16 420.105H183.108C182.8 421.228 182.543 422.376 182.286 423.524Z" fill="#455A64"/>
<path d="M176.922 447.954H384.329C384.173 446.794 383.95 445.645 383.661 444.51H177.641C177.384 445.683 177.153 446.831 176.922 447.954Z" fill="#455A64"/>
<path d="M172.071 472.361H382.558C382.789 471.238 383.046 470.09 383.251 468.942H172.841C172.508 470.09 172.277 471.363 172.071 472.361Z" fill="#455A64"/>
<path d="M167.704 496.793H374.546C374.957 495.819 375.419 494.646 375.932 493.349H168.243C168.021 494.53 167.841 495.678 167.704 496.793Z" fill="#455A64"/>
<path d="M163.548 521.275H377.038L376.345 517.856H164.113C163.907 518.979 163.728 520.127 163.548 521.275Z" fill="#455A64"/>
<path d="M156.719 545.632H381.94L381.247 542.188H158.105L156.719 545.632Z" fill="#455A64"/>
<path d="M146.861 570.039H386.817L386.123 566.62H148.247L146.861 570.039Z" fill="#455A64"/>
<path d="M241.248 314.865C242.531 320.106 269.997 355.069 294.639 353.846C302.648 353.422 300.851 320.98 300.851 320.98L311.53 273.564L250.283 236.13C250.283 236.13 240.734 312.644 241.248 314.865Z" fill="#EB9481"/>
<path d="M311.453 273.639L301.185 318.759C288.901 314.174 277.713 307.192 268.31 298.243C258.906 289.294 251.487 278.569 246.51 266.727C248.486 250.381 250.309 236.081 250.309 236.081L311.453 273.639Z" fill="#263238"/>
<path d="M372.445 204.885C384.587 283.421 337.561 299.342 320.157 301.863C304.345 304.159 250.183 309.998 229.776 233.11C209.369 156.222 243.073 125.801 278.958 118.813C314.844 111.826 360.227 126.35 372.445 204.885Z" fill="#EB9481"/>
<path d="M352.829 199.745C350.959 199.578 349.099 199.312 347.259 198.946C345.249 198.932 343.301 198.274 341.714 197.075C341.297 196.602 341.051 196.009 341.014 195.386C340.977 194.764 341.151 194.147 341.509 193.631C342.381 192.717 343.487 192.044 344.713 191.681C345.939 191.317 347.243 191.275 348.491 191.559C351.111 191.775 353.555 192.932 355.345 194.804C355.727 195.253 355.967 195.8 356.036 196.379C356.105 196.958 356.001 197.545 355.735 198.067C355.469 198.59 355.053 199.026 354.537 199.324C354.022 199.621 353.428 199.768 352.829 199.745Z" fill="#263238"/>
<path d="M296.052 202.839C297.951 202.514 299.645 201.89 301.493 201.391C303.432 201.105 305.229 200.232 306.627 198.896C306.982 198.376 307.152 197.758 307.11 197.136C307.069 196.514 306.818 195.922 306.396 195.452C305.42 194.643 304.238 194.103 302.974 193.888C301.71 193.673 300.41 193.791 299.209 194.229C296.637 194.762 294.36 196.202 292.817 198.272C292.482 198.769 292.307 199.353 292.314 199.947C292.321 200.542 292.51 201.122 292.857 201.611C293.204 202.101 293.693 202.48 294.262 202.698C294.831 202.917 295.454 202.966 296.052 202.839Z" fill="#263238"/>
<path d="M309.22 215.392C309.22 215.192 308.784 215.691 308.835 215.916C309.477 221.281 309.297 227.545 304.446 229.741C304.292 229.741 304.318 230.091 304.446 230.041C310.555 228.693 310.709 220.383 309.22 215.392Z" fill="#263238"/>
<path d="M303.752 210.176C294.793 210.176 295.64 227.644 303.931 227.644C312.223 227.644 311.273 210.101 303.752 210.176Z" fill="#263238"/>
<path d="M300.289 211.277C298.774 212.325 297.311 214.146 295.437 214.396C293.563 214.646 291.535 212.974 290.021 211.277C289.867 211.102 289.713 211.277 289.713 211.476C289.713 214.82 291.304 218.189 295.026 218.539C298.748 218.888 300.674 215.769 301.367 212.375C301.495 211.826 300.905 210.852 300.289 211.277Z" fill="#263238"/>
<path d="M341.975 211.649C341.975 211.449 342.411 211.898 342.411 212.123C342.411 217.513 343.438 223.702 348.546 225.324C348.587 225.324 348.626 225.34 348.655 225.368C348.684 225.396 348.7 225.434 348.7 225.474C348.7 225.514 348.684 225.552 348.655 225.58C348.626 225.608 348.587 225.624 348.546 225.624C342.257 225 341.128 216.814 341.975 211.649Z" fill="#263238"/>
<path d="M346.695 205.809C355.603 204.811 356.963 222.23 348.749 223.153C340.535 224.076 339.226 206.657 346.695 205.809Z" fill="#263238"/>
<path d="M350.521 206.683C352.01 207.507 353.55 209.054 355.244 209.054C356.938 209.054 358.504 207.033 359.634 205.136C359.634 204.937 359.89 205.136 359.916 205.286C360.275 208.605 359.428 212.174 356.194 213.047C352.96 213.921 350.804 211.176 349.725 207.931C349.52 207.332 349.956 206.359 350.521 206.683Z" fill="#263238"/>
<path d="M313.48 262.558C314.815 263.83 316.047 265.552 318.152 265.727C320.223 265.684 322.261 265.216 324.133 264.355C324.171 264.34 324.213 264.338 324.253 264.347C324.293 264.357 324.329 264.378 324.357 264.407C324.385 264.437 324.403 264.474 324.408 264.513C324.414 264.553 324.408 264.593 324.39 264.629C323.596 265.693 322.52 266.529 321.278 267.047C320.035 267.566 318.671 267.748 317.331 267.574C316.195 267.293 315.171 266.689 314.389 265.84C313.608 264.991 313.104 263.936 312.941 262.807C312.864 262.483 313.275 262.383 313.48 262.558Z" fill="#263238"/>
<path d="M337.764 240.074C337.764 240.074 339.407 248.059 339.638 251.853C339.638 252.227 338.714 252.452 337.379 252.601C337.379 252.601 337.379 252.601 337.225 252.601C333.906 253.39 330.427 253.275 327.171 252.266C323.915 251.258 321.008 249.397 318.769 246.887C318.694 246.817 318.651 246.721 318.649 246.621C318.646 246.52 318.685 246.423 318.756 246.35C318.828 246.277 318.926 246.235 319.03 246.233C319.133 246.23 319.233 246.268 319.308 246.337C324.505 249.353 330.561 250.665 336.584 250.081C336.789 249.008 333.324 236.48 334.017 236.405C337.065 236.494 340.087 236.98 343.001 237.853C340.1 221.107 334.479 204.936 331.835 188.216C331.828 188.099 331.861 187.982 331.93 187.886C331.999 187.79 332.099 187.718 332.214 187.684C332.33 187.649 332.454 187.653 332.567 187.696C332.679 187.738 332.774 187.815 332.836 187.916C339.998 204.437 343.771 223.653 347.211 240.872C347.596 243.018 339.382 240.623 337.764 240.074Z" fill="#263238"/>
<path d="M336.968 250.979C334.918 254.26 332.037 256.975 328.6 258.865C326.691 259.831 324.518 260.188 322.388 259.888C317.742 259.214 317.254 255.197 317.613 251.678C317.87 249.791 318.352 247.94 319.051 246.163C324.338 249.594 330.619 251.282 336.968 250.979Z" fill="#263238"/>
<path d="M328.6 258.865C326.691 259.831 324.518 260.189 322.388 259.889C317.742 259.215 317.254 255.197 317.613 251.678C322.516 251.753 327.676 254.249 328.6 258.865Z" fill="#FF98B9"/>
<path d="M319.335 131.566C319.335 131.566 322.467 143.77 318.078 152.479C309.042 170.422 286.838 165.406 279.138 172.444C271.95 179.057 274.26 192.932 267.74 199.571C258.679 208.704 246.563 204.986 245.023 211.2C243.483 217.414 238.991 237.229 230.828 239.649C222.665 242.07 186.883 109.506 293.179 114.996C293.179 114.996 307.836 109.356 330.347 120.761C355.195 133.238 365.591 173.642 365.591 173.642C365.591 173.642 365.078 173.093 361.458 169.898C356.325 165.431 354.451 161.314 350.729 158.394C344.876 153.827 341.616 155.499 335.507 150.907C326.24 144.244 319.335 131.566 319.335 131.566Z" fill="#263238"/>
<path d="M317.794 125.801C319.38 130.992 320.354 136.342 320.694 141.748C321.334 147 320.491 152.323 318.256 157.145C315.422 161.54 311.044 164.786 305.935 166.279C300.801 168.051 295.282 168.5 289.814 170.547C286.975 171.593 284.488 173.38 282.627 175.712C281.014 178.121 279.914 180.819 279.393 183.648C278.212 188.964 277.005 194.204 273.335 197.973C271.513 199.871 269.288 201.36 266.815 202.339C264.341 203.317 261.679 203.76 259.011 203.638C253.647 203.638 247.743 202.041 242.48 204.287C247.922 202.465 253.364 204.411 258.934 204.885C261.83 205.142 264.749 204.779 267.485 203.822C270.221 202.865 272.708 201.337 274.772 199.345C279.187 195.303 280.445 189.363 281.703 184.197C282.195 181.688 283.189 179.297 284.629 177.16C286.252 175.237 288.381 173.78 290.79 172.942C295.693 170.971 301.34 170.447 306.73 168.475C309.483 167.537 312.078 166.208 314.431 164.532C316.858 162.872 318.81 160.64 320.104 158.044C322.285 152.846 322.96 147.167 322.055 141.623C321.248 136.21 319.819 130.903 317.794 125.801Z" fill="#263238"/>
<path d="M319.77 130.568C320.753 135.557 322.428 140.392 324.749 144.943C326.99 149.737 330.655 153.77 335.274 156.522C337.617 157.719 340.076 158.688 342.615 159.417C344.844 160.148 346.818 161.471 348.314 163.235C349.598 165.449 351.121 167.524 352.857 169.424C354.751 171.214 357.043 172.555 359.557 173.342C357.339 172.143 355.392 170.522 353.832 168.576C352.322 166.57 351.023 164.421 349.956 162.162C348.385 159.876 346.113 158.13 343.462 157.171C341.098 156.456 338.805 155.537 336.608 154.426C332.414 151.853 328.968 148.279 326.597 144.044C324.012 139.707 321.73 135.205 319.77 130.568Z" fill="#263238"/>
<path d="M246.999 230.741C246.999 230.741 229.031 206.035 217.505 212.274C205.98 218.513 219.584 254.374 233.189 259.24C234.889 259.977 236.726 260.371 238.587 260.4C240.448 260.429 242.296 260.092 244.02 259.409C245.744 258.726 247.308 257.712 248.619 256.426C249.929 255.14 250.958 253.61 251.645 251.928L246.999 230.741Z" fill="#EB9481"/>
<path d="M221.612 222.456C221.573 222.47 221.539 222.495 221.515 222.529C221.491 222.562 221.479 222.602 221.479 222.643C221.479 222.684 221.491 222.723 221.515 222.757C221.539 222.79 221.573 222.816 221.612 222.83C231.136 226.523 236.193 235.083 239.761 243.967C236.911 240.548 233.035 238.702 228.338 241.996C228.107 242.171 228.338 242.545 228.594 242.495C230.264 241.962 232.063 241.947 233.742 242.453C235.42 242.958 236.896 243.958 237.964 245.315C239.737 247.595 241.252 250.055 242.481 252.652C242.943 253.475 244.484 253.026 244.15 252.078V251.878C244.253 240.049 234.704 223.579 221.612 222.456Z" fill="#263238"/>
<path d="M473.167 535.449C481.946 550.423 475.092 630.406 452.991 694.616C447.652 710.064 339.097 718.898 340.611 701.504C342.614 678.395 372.287 547.203 375.778 541.788C397.879 508.472 462.899 517.905 473.167 535.449Z" fill="#EB9481"/>
<path d="M322.994 768.43C333.098 773.062 342.505 767.248 342.505 767.248C345.102 771.138 349.488 774.243 354.903 776.025C364.645 778.838 374.981 768.955 374.981 768.955C378.833 772.581 384.096 775.279 390.084 776.7C399.801 778.725 412.173 769.836 412.173 769.836C418.239 771.744 425.047 771.997 431.348 770.549C447.999 766.217 453.72 747.033 457.535 734.918C461.349 722.804 456.504 685.617 456.555 678.49L349.413 660C349.413 660 311.087 710.971 309.283 725.748C307.865 738.2 311.68 763.235 322.994 768.43Z" fill="#EB9481"/>
<path d="M342.357 767.887C339.163 761.264 342.357 754.705 344.273 748.1C344.273 747.953 345.028 747.981 344.999 748.1C342.793 754.659 344.738 761.273 343.373 767.85C343.362 767.888 343.31 767.923 343.226 767.95C343.142 767.977 343.031 767.995 342.912 767.999C342.793 768.003 342.673 767.994 342.572 767.974C342.471 767.954 342.395 767.923 342.357 767.887Z" fill="#263238"/>
<path d="M374.081 770.835C373.824 769.399 374.177 767.959 375.13 766.553C375.83 765.047 376.603 763.548 377.45 762.054C379.162 759.049 381.113 756.061 383.303 753.091C383.303 752.961 384.077 752.978 383.994 753.091C382.309 756.084 380.763 759.078 379.465 762.088C378.83 763.594 378.223 765.108 377.643 766.613C377.399 768.048 376.649 769.469 375.406 770.852C375.359 770.897 375.267 770.935 375.143 770.962C375.02 770.988 374.873 771.002 374.723 771C374.573 770.998 374.43 770.981 374.314 770.951C374.198 770.921 374.117 770.881 374.081 770.835Z" fill="#263238"/>
<path d="M412.028 770.94C411.87 769.984 412.384 769.028 413.549 768.113C414.362 767.114 415.175 766.108 415.962 765.108C417.509 763.096 419.056 761.09 420.342 759.072C420.342 758.97 421.05 758.983 420.997 759.072C419.738 761.128 418.611 763.185 417.273 765.235C416.644 766.241 415.962 767.254 415.254 768.253C415.005 769.196 414.054 770.119 412.447 770.979C412.416 770.988 412.374 770.995 412.326 770.998C412.278 771.001 412.227 771.001 412.181 770.996C412.134 770.992 412.095 770.984 412.067 770.974C412.04 770.964 412.026 770.952 412.028 770.94Z" fill="#263238"/>
<path d="M349.857 660.038C342.807 669.855 335.982 679.76 329.383 689.753C320.319 704.798 307.972 719.656 309.951 736.544C310.811 745.948 313.234 765.526 326.674 769.72C329.418 770.176 332.264 770.216 335.03 769.837C337.796 769.459 340.424 768.669 342.746 767.52L342.954 767.407L343.085 767.576C346.367 771.845 351.394 777.243 359 776.979C351.342 777.374 346.132 771.996 342.694 767.726H343.033C339.914 769.446 336.164 770.466 332.249 770.66C318.99 771.996 314.015 760.429 311.41 753.113C308.284 742.299 306.201 730.695 310.212 719.9C319.85 698.799 335.01 679.296 349.961 660L349.857 660.038Z" fill="#263238"/>
<path d="M469.165 689.624L338.252 673.054C338.252 673.054 340.819 661.15 344.464 644.38C346.03 637.317 338.329 629.406 340.305 621.121C348.417 586.982 368.542 547.028 375.832 538.268C389 522.347 452.48 497.69 474.016 530.782C481.229 541.837 487.929 591.923 483.668 633.1C482.872 640.836 472.681 654.636 471.911 661.225C469.781 679.143 469.165 689.624 469.165 689.624Z" fill="white"/>
<path d="M414.771 517.78H457.921C460.222 518.704 462.408 519.876 464.441 521.274H404.118C407.532 519.926 411.1 518.778 414.771 517.78ZM370.877 545.63H479.124C478.85 544.432 478.568 543.284 478.277 542.186H373.059C372.314 543.21 371.621 544.358 370.877 545.63ZM358.427 570.037H483.025C482.897 568.864 482.769 567.741 482.64 566.618H359.993C359.48 567.741 358.941 568.864 358.427 570.037ZM348.416 594.468H484.771C484.771 593.32 484.771 592.173 484.643 591.025H349.674C349.263 592.148 348.827 593.296 348.416 594.468ZM340.716 618.875H484.463C484.463 617.727 484.463 616.604 484.463 615.456H341.717C341.383 616.604 341.075 617.752 340.818 618.875H340.716ZM344.463 643.307H479.842C480.407 642.134 480.972 640.986 481.46 639.863H344.335C344.602 640.991 344.68 642.154 344.566 643.307H344.463ZM339.201 667.713H471.064C471.064 666.615 471.295 665.467 471.423 664.294H340.048C339.689 665.542 339.535 666.69 339.304 667.713H339.201ZM461.797 688.701L469.087 689.624C469.087 689.624 469.087 689.325 469.087 688.701H461.797Z" fill="#455A64"/>
<path d="M461.438 657.232C442.931 655.934 367.772 648.048 351.78 645.253C350.676 645.079 350.599 644.33 351.78 644.38C407.431 646.875 443.547 654.362 461.515 656.508C461.977 656.558 461.9 657.257 461.438 657.232Z" fill="#263238"/>
<path d="M410.407 518.404C397.727 526.115 384.045 532.928 374.471 544.108C363.536 564.073 354.68 585.16 345.567 605.923C343.369 610.836 341.6 615.92 340.279 621.121C340.522 615.685 341.48 610.3 343.129 605.1C349.569 582.835 358.884 561.452 370.851 541.463C381.247 530.133 396.341 523.994 410.433 518.404H410.407Z" fill="#263238"/>
<path d="M197.304 360.934C182.801 406.253 154.565 508.172 151.818 538.119C149.251 566.219 175.382 677.871 175.1 695.04C174.715 716.727 292.844 701.254 290.611 686.505C289.071 676.049 246.306 540.839 244.15 529.11C239.786 505.377 240.505 408.874 236.295 361.633C231.88 312.77 207.212 329.939 197.304 360.934Z" fill="#EB9481"/>
<path d="M302.398 779.923C291.579 783.936 282.562 777.671 282.562 777.671C279.486 781.38 274.664 784.214 268.934 785.679C258.63 787.931 249.175 777.58 249.175 777.58C244.844 780.957 239.171 783.337 232.894 784.408C222.77 785.861 211.074 776.382 211.074 776.382C204.666 777.928 197.684 777.806 191.392 776.037C174.854 770.825 171.041 751.503 168.465 739.227C165.889 726.951 174.828 690.467 175.549 683.385L287.07 671C287.07 671 320.869 723.664 320.998 738.409C321.127 750.813 314.532 775.401 302.398 779.923Z" fill="#EB9481"/>
<path d="M282.948 776.891C287.256 771.996 285.854 767.033 285.497 762.063C285.477 762.045 285.435 762.029 285.378 762.018C285.32 762.006 285.25 762 285.178 762C285.106 762 285.036 762.006 284.979 762.018C284.921 762.029 284.879 762.045 284.86 762.063C285.395 767.013 282.31 771.922 282.004 776.858C281.987 776.891 282.021 776.924 282.097 776.951C282.174 776.977 282.287 776.994 282.412 776.999C282.537 777.003 282.664 776.994 282.764 776.974C282.865 776.954 282.931 776.924 282.948 776.891Z" fill="#263238"/>
<path d="M249.622 776.883C250.126 775.862 250.126 774.828 249.622 773.807C249.352 772.721 249.016 771.642 248.612 770.556C247.805 768.393 246.796 766.232 245.585 764.072C245.585 763.976 244.957 763.976 245.002 764.072C245.787 766.238 246.46 768.403 246.931 770.568C247.155 771.654 247.334 772.74 247.514 773.825C247.425 774.853 247.756 775.881 248.5 776.889C248.538 776.922 248.613 776.95 248.716 776.97C248.819 776.99 248.943 777.001 249.069 777C249.196 776.999 249.319 776.988 249.418 776.966C249.518 776.945 249.589 776.916 249.622 776.883Z" fill="#263238"/>
<path d="M211.63 776.949C212.587 776.217 211.439 775.337 210.975 774.6C210.428 773.766 209.909 772.926 209.418 772.092C208.434 770.414 207.451 768.74 206.686 767.061C206.686 766.98 205.948 766.98 206.003 767.061C206.631 768.766 207.15 770.475 207.861 772.179C208.216 773.013 208.598 773.853 209.008 774.692C208.977 775.461 209.68 776.226 211.084 776.949C211.084 776.962 211.113 776.975 211.164 776.985C211.215 776.995 211.285 777 211.357 777C211.43 777 211.499 776.995 211.55 776.985C211.602 776.975 211.63 776.962 211.63 776.949Z" fill="#263238"/>
<path d="M286.922 671C300.033 690.871 313.352 710.924 320.866 732.302C323.872 743.19 320.426 754.514 316.073 764.967C312.497 772.044 306.226 783.114 292.907 781.136C288.941 780.738 285.228 779.533 282.232 777.67H282.568C278.604 781.68 272.748 786.744 265 785.909C272.774 786.598 278.526 781.426 282.335 777.361C285.358 779.16 289.09 780.274 293.037 780.555C305.863 782.225 311.175 771.482 314.492 764.658C318.664 754.387 321.851 743.154 319.001 732.574C311.668 711.378 298.712 691.162 286.922 671Z" fill="#263238"/>
<path d="M172.839 701.928L306.319 682.463C306.319 682.463 301.621 669.087 294.947 649.871C292.714 643.432 297.257 635.421 294.691 627.96C278.93 582.391 248.281 514.686 246.458 506.051C243.455 491.777 244.584 406.029 245.894 375.309C249.436 292.955 210.983 322.902 194.709 360.71C184.082 385.391 146.349 497.966 143.166 534.825C139.187 580.918 140.368 614.534 147.863 648.373C149.557 656.11 163.008 665.842 164.574 672.106C169.194 690.648 172.839 701.928 172.839 701.928Z" fill="white"/>
<path d="M172.839 701.928L306.319 682.463C306.319 682.463 301.621 669.087 294.947 649.871C292.714 643.432 297.257 635.421 294.691 627.96C278.93 582.391 248.281 514.686 246.458 506.051C243.455 491.777 244.584 406.029 245.894 375.309C249.436 292.955 210.983 322.902 194.709 360.71C184.082 385.391 146.349 497.966 143.166 534.825C139.187 580.918 140.368 614.534 147.863 648.373C149.557 656.11 163.008 665.842 164.574 672.106C169.194 690.648 172.839 701.928 172.839 701.928Z" fill="white"/>
<path d="M220.61 325.846H237.167C232.598 321.404 226.745 322.003 220.61 325.846Z" fill="#455A64"/>
<path d="M199.846 350.253H245.46C245.46 349.055 245.203 347.932 245.049 346.834H201.848L199.846 350.253Z" fill="#455A64"/>
<path d="M189.217 374.685H245.92C245.92 373.512 245.92 372.389 246.048 371.266H190.5C190.09 372.364 189.653 373.487 189.217 374.685Z" fill="#455A64"/>
<path d="M180.539 399.117H245.148V395.673H181.72C181.335 396.796 180.95 397.944 180.539 399.117Z" fill="#455A64"/>
<path d="M172.403 423.524H244.713C244.713 422.376 244.713 421.253 244.713 420.105H173.507C173.148 421.228 172.84 422.376 172.403 423.524Z" fill="#455A64"/>
<path d="M164.677 447.954H244.559C244.559 446.806 244.559 445.658 244.559 444.51H165.729C165.37 445.658 165.139 446.806 164.677 447.954Z" fill="#455A64"/>
<path d="M157.438 472.361H244.714C244.714 471.238 244.714 470.09 244.714 468.942H158.388L157.438 472.361Z" fill="#455A64"/>
<path d="M150.713 496.793H245.432C245.432 495.719 245.304 494.571 245.227 493.349H151.611C151.303 494.497 151.021 495.67 150.713 496.793Z" fill="#455A64"/>
<path d="M145.168 521.275H252.054L250.668 517.856H145.835C145.604 518.954 145.373 520.102 145.168 521.275Z" fill="#455A64"/>
<path d="M142.293 545.632H262.194L260.756 542.188H142.678C142.447 543.336 142.37 544.484 142.293 545.632Z" fill="#455A64"/>
<path d="M141.087 570.039H272.308C271.82 568.891 271.358 567.743 270.896 566.62H141.164C141.138 567.768 141.087 568.916 141.087 570.039Z" fill="#455A64"/>
<path d="M141.037 591.148C141.037 592.296 141.037 593.444 141.037 594.592H282.063L280.677 591.148H141.037Z" fill="#455A64"/>
<path d="M142.549 615.456C142.549 616.604 142.78 617.751 142.908 618.874H291.43C291.019 617.751 290.608 616.604 290.172 615.456H142.549Z" fill="#455A64"/>
<path d="M146.091 639.864C146.322 641.012 146.527 642.16 146.784 643.308H294.407C294.407 642.185 294.664 641.037 294.843 639.864H146.091Z" fill="#455A64"/>
<path d="M159.389 664.295C160.415 665.468 161.365 666.616 162.187 667.714H301.185C300.774 666.641 300.389 665.493 299.979 664.295H159.389Z" fill="#455A64"/>
<path d="M168.938 688.703C169.298 689.925 169.606 691.198 169.914 692.147H239.888L263.504 688.703H168.938Z" fill="#455A64"/>
<path d="M285.987 652.218C267.557 655.786 191.884 667.69 175.456 669.163C174.327 669.163 174.07 668.564 175.251 668.314C230.388 656.236 267.66 654.089 285.91 651.494C286.372 651.419 286.475 652.118 285.987 652.218Z" fill="#263238"/>
<path d="M282.857 596.414C269.047 567.191 254.493 538.292 243.943 507.747C242.659 485.786 243.301 463.725 243.558 441.764C243.866 423.829 244.55 405.894 245.611 387.959C247.434 418.979 247.947 464.024 248.512 495.543C248.512 497.789 248.512 503.329 248.794 505.526C248.802 506.501 248.967 507.469 249.282 508.395C259.55 537.244 272.744 567.565 282.857 596.489V596.414Z" fill="#263238"/>
<path d="M250.078 400.789C251.09 408.68 249.856 416.69 246.51 423.947C246.356 416.129 247.562 408.341 250.078 400.913V400.789Z" fill="#263238"/>
</svg>
