<svg width="500" height="878" viewBox="0 0 500 878" fill="none" xmlns="http://www.w3.org/2000/svg">
<path d="M411.991 877.026H209.815C202.165 795.421 193.928 706.013 187.782 637.771C187.603 635.935 187.425 634.099 187.272 632.263C181.585 569.402 177.734 525.973 177.734 525.973H367.032V526.534C368.562 537.856 392.049 720.932 411.991 877.026Z" fill="#455A64"/>
<path d="M241.616 877.026H238.402C226.927 788.179 218.18 699 210.351 609.771C209.994 605.359 209.586 600.921 209.203 596.484C207.903 581.311 206.653 566.086 205.353 550.913C205.353 550.429 206.041 550.429 206.092 550.913C207.486 564.378 208.863 577.851 210.223 591.333C210.708 596.229 211.218 601.1 211.677 605.996C216.777 656.999 221.877 708.002 227.513 758.801C231.874 798.226 236.49 837.652 241.616 877.026Z" fill="#263238"/>
<path d="M339.693 525.947L314.192 693.823L313.325 699.51L311.03 714.811L310.877 715.857L310.265 719.962L286.421 877.026H193.799C180.309 800.98 165.62 717.948 153.89 651.771C153.686 650.573 153.482 649.425 153.278 648.278C140.527 576.874 131.627 525.871 131.627 525.871L339.693 525.947Z" fill="#263238"/>
<path d="M367.211 525.769C367.198 526.015 367.198 526.262 367.211 526.508C365.706 536.301 353.415 628.157 326.409 697.036C326.204 697.623 326 698.158 325.771 698.745C325.771 698.745 321.946 699.944 315.06 702.672C312.51 703.718 271.019 720.523 269.948 721.033C269.948 721.033 260.589 807.917 255.463 877H65.4775C71.4959 813.935 71.8528 787.031 77.6927 728.531C78.8913 716.519 71.5979 672.861 72.7199 661.691C77.5342 615.595 86.8091 570.074 100.415 525.769H367.211Z" fill="#455A64"/>
<path d="M214.787 576.414C214.843 573.678 214.561 570.946 213.946 568.279C213.923 568.192 213.872 568.114 213.8 568.058C213.729 568.003 213.641 567.973 213.55 567.973C213.46 567.973 213.372 568.003 213.3 568.058C213.229 568.114 213.178 568.192 213.155 568.279C212.605 570.587 212.298 572.946 212.237 575.318C211.956 578.021 211.625 580.699 211.319 583.402C210.742 588.92 209.779 594.39 208.437 599.774C205.955 609.944 200.774 619.256 193.442 626.729C186.12 633.922 177.456 639.607 167.941 643.458C157.383 647.921 146.29 649.604 135.376 652.791C135.267 652.808 135.17 652.867 135.106 652.956C135.041 653.044 135.014 653.155 135.031 653.263C135.048 653.371 135.107 653.468 135.196 653.533C135.284 653.597 135.395 653.624 135.503 653.607C147.595 653.577 159.568 651.222 170.772 646.671C180.732 642.943 189.789 637.146 197.344 629.661C204.942 622.005 210.288 612.406 212.798 601.916C214.051 596.535 214.76 591.041 214.915 585.518C215.06 582.484 215.017 579.444 214.787 576.414Z" fill="#263238"/>
<path d="M376.927 632.594C375.473 630.962 368.588 629.381 361.626 611.148C358.964 603.807 356.992 596.234 355.735 588.528C354.919 583.861 352.139 561.139 351.935 561.012C351.731 560.884 351.782 561.012 351.757 561.318C351.527 562.873 353.312 583.683 354.052 588.987C355.023 597.894 357.061 606.653 360.121 615.075C366.726 630.962 375.422 635.144 376.927 634.099C377.258 633.92 377.131 632.849 376.927 632.594Z" fill="#263238"/>
<path d="M329.036 692.574C302.667 701.627 277.242 714.505 252.914 728.021C252.743 728.136 252.619 728.307 252.563 728.505C252.507 728.704 252.523 728.915 252.609 729.102C252.695 729.289 252.845 729.44 253.031 729.527C253.218 729.613 253.43 729.631 253.628 729.576C279.257 718.56 305.421 708.028 330.413 695.634C330.784 695.43 331.065 695.094 331.199 694.693C331.334 694.291 331.312 693.854 331.138 693.467C330.965 693.081 330.652 692.775 330.262 692.609C329.872 692.444 329.434 692.431 329.036 692.574Z" fill="#263238"/>
<path d="M327.555 543.773C327.555 543.033 326.203 542.855 326.229 543.773C326.433 569.427 324.877 591.97 322.837 615.942C321.868 627.06 313.3 688.519 294.581 684.005C291.445 683.266 289.838 680.078 289.328 675.207C288.742 669.342 290.858 662.176 291.878 656.362C293.918 643.483 295.576 630.58 296.622 617.574C298.76 593.362 298.461 568.996 295.729 544.844C295.747 544.755 295.746 544.663 295.724 544.574C295.703 544.486 295.662 544.403 295.604 544.333C295.547 544.262 295.475 544.206 295.393 544.167C295.31 544.128 295.221 544.107 295.13 544.107C295.039 544.107 294.949 544.128 294.867 544.167C294.785 544.206 294.712 544.262 294.655 544.333C294.598 544.403 294.557 544.486 294.535 544.574C294.514 544.663 294.512 544.755 294.53 544.844C294.53 578.429 293.816 611.963 288.997 645.243C286.676 661.207 278.796 685.28 295.143 687.779C311.489 690.279 322.225 650.063 324.214 638.944C329.799 608.164 329.952 574.935 327.555 543.773Z" fill="#263238"/>
<path d="M293.103 686.759C291.085 691.687 289.381 696.738 288.003 701.882C286.537 705.865 285.811 710.082 285.861 714.326C285.861 715.117 287.034 715.193 287.467 714.658C289.835 710.91 291.623 706.826 292.772 702.545C294.531 697.878 296.367 693.237 297.872 688.493C298.027 687.881 297.949 687.233 297.653 686.674C297.357 686.116 296.865 685.687 296.271 685.472C295.677 685.256 295.025 685.268 294.439 685.506C293.854 685.744 293.378 686.19 293.103 686.759Z" fill="#263238"/>
<path d="M120 535.434C114.9 563.689 107.657 602.681 103.042 630.529C101.282 642.361 98.6809 654.041 98.8339 666.001C99.701 686.122 101.971 706.192 103.934 726.261C100.262 764.003 96.2243 801.72 91.821 839.411C90.2654 851.958 88.8374 864.479 87.1543 877C87.8428 864.403 88.7864 851.805 89.7044 839.207C92.2546 802.307 95.6463 761.428 99.038 726.542C96.8704 706.447 94.8047 686.351 93.9377 666.129C93.9377 653.939 96.7938 641.749 98.8339 629.789C104.929 598.116 112.095 566.699 119.975 535.434H120Z" fill="#263238"/>
<path d="M348.161 256.371C380.293 287.559 488.878 425.242 493.162 443.756C512.11 525.514 487.577 584.626 469.369 580.291C422.294 569.096 308.302 337.848 291.701 265.169C283.591 229.645 294.378 204.17 348.161 256.371Z" fill="#EB9481"/>
<path d="M331.534 401.041L404.8 315.79C404.8 315.79 360.351 259.686 325.031 233.649C298.076 213.809 284.943 227.452 287.952 249.46C298.05 322.802 331.534 401.041 331.534 401.041Z" fill="#FFC727"/>
<path d="M388.402 306.864C376.187 319.181 344.029 353.583 326.051 378.65C326.051 378.803 326.459 379.288 326.586 379.16C344.692 360.544 378.074 320.915 389.167 307.552C389.371 307.323 388.631 306.634 388.402 306.864Z" fill="#263238"/>
<path d="M371.649 558.053L87.1801 557.798C86.262 556.676 162.562 253.948 223.996 210.519C239.296 199.758 287.418 200.778 301.367 225.31C327.506 271.391 375.219 551.296 371.649 558.053Z" fill="#EBEBEB"/>
<path d="M50.2647 732.821L293.868 663.107L284.165 629.2L40.5611 698.914L50.2647 732.821Z" fill="#FFC727"/>
<path d="M40.5547 698.911L284.158 629.196L243.604 487.487L0.000402894 557.201L40.5547 698.911Z" fill="#FFC727"/>
<path opacity="0.1" d="M40.5547 698.911L284.158 629.196L243.604 487.487L0.000402894 557.201L40.5547 698.911Z" fill="black"/>
<path d="M49.253 729.291L292.856 659.577L285.167 632.706L41.5631 702.42L49.253 729.291Z" fill="white"/>
<path d="M271.02 642.718C198.239 664.344 116.379 687.779 43.1641 707.9C115.945 686.275 197.805 662.839 271.02 642.718Z" fill="#DBDBDB"/>
<path d="M272.524 647.997C199.742 669.622 117.883 693.058 44.668 713.179C117.449 691.554 199.334 668.118 272.524 647.997Z" fill="#DBDBDB"/>
<path d="M274.028 653.25C201.272 674.901 119.387 698.337 46.1719 718.458C118.953 696.807 200.838 673.397 274.028 653.25Z" fill="#DBDBDB"/>
<path d="M275.531 658.529C202.776 680.155 120.89 703.59 47.7012 723.737C120.457 702.086 202.342 678.675 275.531 658.529Z" fill="#DBDBDB"/>
<path d="M184.492 229.288C120.738 285.392 39.6945 389.438 39.3885 416.342C38.649 483.768 51.6802 554.279 62.3398 588.222C69.3272 610.765 187.297 561.292 180.667 541.35C170.9 511.692 158.225 433.045 154.579 421.493C152.641 415.322 190.638 334.533 213.232 279.424C237.076 220.49 204.97 211.233 184.492 229.288Z" fill="#EB9481"/>
<path d="M225.574 705.146C214.71 713.664 202.929 705.58 202.929 705.58C200.586 712.007 196.077 717.417 190.178 720.881C179.442 726.491 165.926 712.083 165.926 712.083C162.082 718.275 156.467 723.17 149.809 726.134C138.996 730.469 123.288 717.897 123.288 717.897C116.624 721.631 108.84 722.844 101.356 721.314C81.5161 716.418 71.0861 686.658 66.8274 667.276C61.7271 644.07 58.7944 584.116 57.5703 572.921L177.427 536.785C177.427 536.785 229.986 612.882 234.347 636.037C238.044 655.546 237.738 695.583 225.574 705.146Z" fill="#EB9481"/>
<path d="M203.364 705.018C204.435 683.342 199.029 662.533 194.821 641.443C194.8 641.348 194.743 641.266 194.662 641.213C194.581 641.16 194.482 641.142 194.387 641.163C194.293 641.183 194.21 641.24 194.157 641.321C194.105 641.403 194.086 641.501 194.107 641.596C198.519 662.507 198.748 684.031 202.318 705.095C202.352 705.213 202.426 705.316 202.527 705.386C202.627 705.457 202.749 705.49 202.872 705.481C202.995 705.472 203.111 705.421 203.2 705.337C203.29 705.253 203.347 705.14 203.364 705.018Z" fill="#263238"/>
<path d="M167.278 711.266C167.067 706.322 166.21 701.427 164.728 696.705C163.428 691.605 162.178 686.504 160.622 681.404C157.715 671.331 154.604 661.309 151.161 651.389C151.008 650.93 150.32 651.057 150.447 651.542C153.303 661.589 156.032 671.688 158.48 681.863C159.704 686.963 160.886 692.064 162.025 697.164C162.809 702.051 164.117 706.838 165.927 711.445C166 711.57 166.109 711.671 166.24 711.735C166.371 711.799 166.517 711.823 166.662 711.804C166.806 711.785 166.942 711.724 167.051 711.628C167.161 711.533 167.24 711.407 167.278 711.266Z" fill="#263238"/>
<path d="M123.11 717.539C123.365 713.281 121.3 708.588 120.05 704.559C118.647 699.994 117.245 695.404 115.868 690.839C113.139 681.659 110.411 672.504 108.013 663.247C107.981 663.162 107.919 663.091 107.84 663.048C107.76 663.004 107.667 662.99 107.578 663.009C107.49 663.027 107.41 663.077 107.354 663.148C107.298 663.22 107.27 663.309 107.274 663.4C109.696 672.81 111.966 682.245 114.44 691.655C115.664 696.271 116.99 700.862 118.163 705.477C119.26 709.379 120.152 714.403 122.651 717.692C122.683 717.735 122.728 717.767 122.779 717.783C122.83 717.799 122.885 717.798 122.936 717.781C122.987 717.764 123.031 717.732 123.062 717.689C123.093 717.645 123.11 717.593 123.11 717.539Z" fill="#263238"/>
<path d="M81.6455 327.367L190.894 353.735C190.894 353.735 220.628 288.605 227.692 245.329C233.073 212.177 214.942 206.796 196.734 219.521C136.04 261.905 81.6455 327.367 81.6455 327.367Z" fill="#FFC727"/>
<path d="M191.377 335.069C174.852 329.815 129.587 316.861 99.062 312.27C98.8835 312.27 98.6795 312.933 98.858 312.984C123.671 320.635 174.189 332.289 191.097 336.089C191.428 336.165 191.607 335.171 191.377 335.069Z" fill="#263238"/>
<path d="M230.752 208.479C228.654 211.404 227.367 214.832 227.023 218.415C226.678 221.999 227.287 225.609 228.789 228.881C234.807 243.059 260.053 271.034 288.182 267.337C301.289 265.628 302.87 248.644 301.57 237.347C300.269 226.05 291.369 212.942 278.236 206.745C265.103 200.548 236.108 201.39 230.752 208.479Z" fill="#FFC727"/>
<path d="M291.318 258.207C275.685 267.26 243.987 246.349 231.211 225.922C230.344 224.52 229.094 167.014 228.406 155.411C228.253 153.039 302.181 168.825 302.181 168.825C302.181 168.825 296.443 193.561 297.744 213.758C297.854 215.361 298.119 216.95 298.535 218.501C298.535 218.705 298.535 218.96 298.688 219.266C300.677 228.217 299.351 253.566 291.318 258.207Z" fill="#EB9481"/>
<path d="M298.714 219.292C296.258 219.762 293.768 220.035 291.268 220.108C253.016 221.485 236.644 175.608 231.237 155.309C244.677 156.558 302.208 168.799 302.208 168.799C302.208 168.799 296.47 193.535 297.796 213.783C297.883 215.37 298.139 216.943 298.561 218.476C298.561 218.705 298.714 219.088 298.714 219.292Z" fill="#263238"/>
<path d="M212.007 63.0443C205.223 89.6678 222.666 164.846 242.124 180.861C270.354 204.118 314.778 204.373 334.082 170.839C352.775 138.35 328.319 40.7815 306.745 26.3987C275.021 5.20695 222.054 23.6955 212.007 63.0443Z" fill="#EB9481"/>
<path d="M279.69 108.922C279.69 108.718 279.333 109.253 279.384 109.457C280.71 114.557 281.347 120.474 277.14 123.177C277.012 123.177 277.14 123.534 277.14 123.457C282.673 121.417 281.73 113.461 279.69 108.922Z" fill="#263238"/>
<path d="M273.951 104.637C265.663 105.861 268.723 122.361 276.501 121.239C284.279 120.117 280.862 103.617 273.951 104.637Z" fill="#263238"/>
<path d="M309.475 102.572C309.475 102.368 309.908 102.75 309.934 102.954C310.724 108.055 312.484 113.843 317.431 114.685C317.584 114.685 317.635 114.966 317.431 114.991C311.668 115.246 309.398 107.57 309.475 102.572Z" fill="#263238"/>
<path d="M313.045 96.4001C321.129 94.2325 324.852 110.604 317.355 112.594C309.857 114.583 306.364 98.1852 313.045 96.4001Z" fill="#263238"/>
<path d="M268.646 100.914C270.771 100.037 272.848 99.0497 274.869 97.9559C277.204 97.218 279.229 95.7299 280.632 93.7227C280.953 93.0053 281.024 92.2012 280.834 91.4387C280.645 90.6761 280.205 89.9989 279.586 89.515C278.238 88.7211 276.701 88.3025 275.136 88.3025C273.572 88.3025 272.035 88.7211 270.686 89.515C267.698 90.6977 265.266 92.9656 263.878 95.8648C263.582 96.5432 263.491 97.2937 263.619 98.0229C263.746 98.752 264.085 99.4277 264.593 99.9658C265.101 100.504 265.756 100.881 266.477 101.049C267.198 101.218 267.952 101.171 268.646 100.914Z" fill="#263238"/>
<path d="M317.864 86.8885C315.57 86.8548 313.28 86.6931 311.004 86.4039C308.556 86.5808 306.117 85.9443 304.068 84.5933C303.509 84.0399 303.148 83.3174 303.042 82.5381C302.936 81.7588 303.091 80.9663 303.481 80.2836C304.457 79.0583 305.741 78.1148 307.202 77.5501C308.663 76.9854 310.248 76.8199 311.795 77.0704C315.012 77.0746 318.11 78.2953 320.465 80.4876C320.975 81.0133 321.321 81.676 321.461 82.395C321.601 83.114 321.529 83.8581 321.253 84.5367C320.977 85.2153 320.51 85.7989 319.908 86.2165C319.306 86.6341 318.596 86.8676 317.864 86.8885Z" fill="#263238"/>
<path d="M283.998 155.487C285.451 156.456 286.982 157.884 288.869 157.68C290.761 157.29 292.55 156.508 294.122 155.385C294.153 155.369 294.187 155.362 294.222 155.366C294.256 155.369 294.289 155.382 294.316 155.404C294.343 155.426 294.363 155.455 294.374 155.488C294.385 155.52 294.386 155.556 294.377 155.589C293.839 156.733 292.999 157.708 291.947 158.409C290.896 159.11 289.672 159.511 288.41 159.567C287.323 159.489 286.283 159.092 285.421 158.425C284.559 157.758 283.913 156.851 283.564 155.819C283.539 155.761 283.533 155.696 283.549 155.635C283.564 155.574 283.6 155.52 283.65 155.482C283.7 155.443 283.762 155.423 283.825 155.424C283.888 155.425 283.949 155.447 283.998 155.487Z" fill="#263238"/>
<path d="M286.524 139.192C288.203 140.967 290.227 142.378 292.473 143.339C294.719 144.299 297.138 144.789 299.581 144.777C301.721 144.784 303.851 144.484 305.905 143.884C306.308 143.808 306.701 143.688 307.078 143.527C307.442 143.418 307.799 143.291 308.149 143.145C308.413 143.045 308.636 142.86 308.783 142.621C308.931 142.381 308.995 142.099 308.965 141.819C308.926 141.645 308.875 141.475 308.812 141.308V140.849C308.2 136.897 306.696 130.98 306.696 130.98C308.277 131.439 316.208 133.378 315.723 131.337C311.541 114.506 306.874 95.7884 299.173 79.9264C299.127 79.8109 299.039 79.7173 298.927 79.6647C298.815 79.6122 298.686 79.6048 298.569 79.644C298.451 79.6833 298.353 79.7661 298.294 79.8756C298.236 79.9851 298.222 80.1129 298.255 80.2325C301.647 96.5789 307.869 112.186 311.516 128.558C308.687 127.82 305.767 127.494 302.845 127.589C302.31 127.844 305.931 138.962 306.084 140.747V140.951C299.632 143.017 294.277 141.946 287.034 138.707C286.499 138.427 286.142 138.835 286.524 139.192Z" fill="#263238"/>
<path d="M303.202 142.328C301.576 145.525 299.151 148.248 296.164 150.234C294.497 151.28 292.542 151.771 290.579 151.636C286.295 151.33 285.479 147.607 285.657 144.266C285.761 142.486 286.069 140.723 286.575 139.013C291.624 141.859 297.448 143.02 303.202 142.328Z" fill="#263238"/>
<path d="M296.164 150.234C294.497 151.28 292.542 151.771 290.579 151.637C286.295 151.331 285.479 147.608 285.657 144.267C290.095 143.91 294.965 146.077 296.164 150.234Z" fill="#FF98B9"/>
<path d="M223.917 135.545C237.433 131.49 232.205 96.3748 232.205 96.3748C232.205 96.3748 248.424 87.1943 248.883 54.4759C248.883 54.4759 265.612 83.9811 321.97 67.9407C322.134 57.4882 319.012 47.2479 313.045 38.665C320.29 47.6791 326.781 57.2746 332.451 67.3542C332.451 67.3542 338.622 17.3713 295.168 6.9922C277.903 2.86097 253.448 8.11427 218.868 32.4937C218.868 32.4937 208.132 11.1744 204.281 14.8212C200.43 18.4679 211.931 38.104 211.931 38.104C211.931 38.104 194.667 35.5538 192.448 39.5066C190.535 42.8473 207.035 44.6069 207.035 44.6069C207.035 44.6069 183.115 56.6435 191.913 85.0267C200.099 111.038 217.108 137.483 223.917 135.545Z" fill="#263238"/>
<path d="M211.677 43.4594C204.377 44.3673 197.66 47.9114 192.79 53.425C187.92 58.9385 185.232 66.0416 185.232 73.3981C185.801 81.9591 188.331 90.2746 192.628 97.701C196.976 105.529 202.316 112.763 208.515 119.224C208.847 119.581 209.382 118.995 209.025 118.638C203.574 112.504 199.094 105.572 195.739 98.0836C192.155 91.0936 189.701 83.5793 188.471 75.8208C187.701 68.5916 189.675 61.3369 194.001 55.4943C198.328 49.6518 204.691 45.6476 211.83 44.2754C212.289 44.1989 212.162 43.3829 211.677 43.4594Z" fill="#263238"/>
<path d="M261.098 4.23806C251.65 7.99106 242.734 12.9635 234.576 19.0289C226.588 24.4654 219.57 31.2068 213.818 38.9711C213.75 39.0488 213.716 39.1503 213.724 39.2531C213.731 39.3559 213.779 39.4517 213.856 39.5193C213.934 39.587 214.036 39.6209 214.138 39.6138C214.241 39.6066 214.337 39.5589 214.405 39.4811C227.155 26.3478 243.629 16.5298 260.154 8.87933C275.608 1.68791 294.785 -1.32126 309.219 9.89939C309.449 10.0779 309.755 9.74638 309.525 9.54237C296.315 -2.51982 276.858 -1.78028 261.098 4.23806Z" fill="#263238"/>
<path d="M232.895 124.733C232.895 124.733 214.126 101.399 203.416 108.259C192.705 115.119 207.98 149.75 221.267 153.728C222.948 154.356 224.74 154.638 226.533 154.557C228.327 154.475 230.085 154.031 231.703 153.252C233.321 152.473 234.764 151.375 235.946 150.024C237.128 148.672 238.025 147.096 238.582 145.389L232.895 124.733Z" fill="#EB9481"/>
<path d="M208.031 117.975C207.984 117.975 207.938 117.993 207.905 118.027C207.871 118.06 207.853 118.106 207.853 118.153C207.853 118.2 207.871 118.246 207.905 118.279C207.938 118.313 207.984 118.332 208.031 118.332C217.441 121.417 222.822 129.578 226.8 138.146C223.842 134.933 220.017 133.326 215.707 136.871C215.478 137.05 215.707 137.432 215.988 137.356C217.557 136.729 219.283 136.609 220.925 137.011C222.566 137.413 224.041 138.318 225.143 139.6C226.989 141.739 228.597 144.073 229.937 146.562C230.421 147.352 231.875 146.817 231.492 145.899V145.695C230.804 134.015 220.654 118.306 208.031 117.975Z" fill="#263238"/>
<path d="M298.381 220.975C297.489 213.835 316.462 224.418 318.782 234.873C321.103 245.329 372.335 446.331 372.335 446.331C372.335 446.331 343.391 413.97 326.254 354.96C313.146 310.026 299.172 227.35 298.381 220.975Z" fill="#455A64"/>
<path d="M454.272 585.671C422.217 583.529 394.548 551.601 342.805 435.213C335.639 419.096 430.224 342.362 438.742 359.167C449.503 380.333 492.091 460.434 494.003 466.936C510.375 521.943 491.479 588.145 454.272 585.671Z" fill="#EB9481"/>
<path d="M284.635 271.596C275.735 280.19 281.448 291.691 281.448 291.691C275.388 292.965 269.971 296.332 266.147 301.203C259.823 310.052 270.967 323.848 270.967 323.848C264.987 326.505 259.942 330.893 256.482 336.446C251.382 345.55 260.537 361.08 260.537 361.08C256.388 366.55 254.343 373.329 254.773 380.181C256.686 398.44 279.841 415.016 295.78 422.998C311.718 430.98 345.584 441.665 345.584 441.665L439.225 360.315C439.225 360.315 429.917 327.877 406.073 306.227C386.055 288.121 358.819 276.186 347.293 272.31C330.309 266.623 294.658 261.931 284.635 271.596Z" fill="#EB9481"/>
<path d="M282.978 290.492C302.41 292.201 320.261 299.57 338.495 305.92C338.579 305.951 338.648 306.014 338.687 306.095C338.725 306.176 338.729 306.269 338.699 306.354C338.668 306.438 338.606 306.507 338.524 306.546C338.443 306.584 338.35 306.588 338.265 306.558C320.21 300.03 301.084 297.173 282.8 291.257C282.743 291.202 282.702 291.133 282.68 291.057C282.657 290.981 282.655 290.901 282.673 290.824C282.691 290.747 282.729 290.676 282.782 290.618C282.835 290.56 282.903 290.516 282.978 290.492Z" fill="#263238"/>
<path d="M272.013 322.7C276.431 323.495 280.72 324.885 284.764 326.832C289.116 328.532 293.452 330.368 297.77 332.34C306.389 336.165 314.89 340.203 323.271 344.453C323.628 344.657 323.45 345.269 323.042 345.091C314.448 341.291 305.803 337.619 297.056 334.202C292.67 332.501 288.275 330.801 283.872 329.101C279.621 327.799 275.525 326.038 271.656 323.848C271.563 323.763 271.496 323.653 271.463 323.531C271.43 323.41 271.432 323.281 271.469 323.16C271.507 323.04 271.578 322.933 271.674 322.851C271.771 322.77 271.888 322.717 272.013 322.7Z" fill="#263238"/>
<path d="M260.947 361.233C264.772 361.513 268.597 363.936 272.142 365.543C276.018 367.379 279.92 369.164 283.822 370.949C291.651 374.519 299.48 378.064 307.41 381.354C307.793 381.532 307.589 382.144 307.181 381.991C299.097 378.701 290.962 375.514 282.929 372.122C278.985 370.422 275.032 368.722 271.071 367.022C267.373 365.813 263.919 363.956 260.87 361.539C260.842 361.488 260.833 361.428 260.848 361.371C260.862 361.314 260.897 361.264 260.947 361.233Z" fill="#263238"/>
<path d="M438.69 359.193C456.108 388.316 473.551 418.127 485.766 449.851C470.465 419.963 452.869 389.565 438.69 359.193Z" fill="#263238"/>
</svg>
